<?xml version="1.0" standalone="no"?>
<!DOCTYPE svg PUBLIC "-//W3C//DTD SVG 1.1//EN" "http://www.w3.org/Graphics/SVG/1.1/DTD/svg11.dtd" >
<svg xmlns="http://www.w3.org/2000/svg">
<metadata>
This is a custom SVG webfont generated by Font Squirrel.
Copyright   :  J O E B O B graphics 2006   wwwjoebobnl
Designer    : J O E B O B graphics 
Foundry     : J O E B O B graphics
Foundry URL : wwwmyfontscom  wwwjoebobnl
</metadata>
<defs>
<font id="webfontWipSU10O" horiz-adv-x="424" >
<font-face units-per-em="1000" ascent="800" descent="-200" />
<missing-glyph horiz-adv-x="354" />
<glyph unicode=" "  horiz-adv-x="354" />
<glyph unicode="&#x09;" horiz-adv-x="354" />
<glyph unicode="&#xa0;" horiz-adv-x="354" />
<glyph unicode="," horiz-adv-x="406" d="M311 96q-4 -4 -9 -53q-5 -45 -4 -57l-8 -10t-14 -5q-9 0 -9 6.5t-2 6.5q-4 -3 -2 -13q3 -15 3 -18q-13 7 -17 1q-1 -4 5 -10q10 -10 12 -13q-14 4 -27 21q-5 -22 -53 -31q-8 16 -8 44q0 105 8 124q20 8 51 34q2 0 6.5 -9t13.5 -9q28 0 54 -9z" />
<glyph unicode="." horiz-adv-x="361" d="M138 9q-15 0 -30.5 19t-15.5 31q0 18 28 40.5t48 22.5q19 0 31 -16.5t12 -39.5q0 -27 -24 -43q-20 -14 -49 -14z" />
<glyph unicode="0" horiz-adv-x="463" d="M219 74l-5 -4l-6 6l5 5zM403 403q0 8 -5 -83q-4 -75 -6 -154l5 -9l-9 -62q-4 -18 -25 -36l-36 -29q-4 -7 -18 -19q-22 -10 -45 -10q-5 0 -4 6l-4 3q-7 0 -9 -5q-3 -8 -4 -8q-2 0 -7.5 4t-10.5 4l-7 -2l4 -5q-1 0 -4 6t-9 6q-4 0 -9.5 -4.5t-9.5 -4.5q-7 0 -33 18l-34 24 q-1 2 0 9q-27 10 -29 38q-6 2 -15 9q0 7 -5 21t-5 22q0 10 3.5 31t3.5 32q0 8 -4.5 24t-4.5 24v51q0 8 -2 14l-5 6l2 5l3 -1l2 1q5 37 5 63q0 38 0 37q-2 4 -6 13q2 27 2 63q0 18 -1 54t-1 55q0 8 13 39q1 17 -1 50q11 0 30 31l24 42q21 6 25 8q9 5 14 20q7 -1 17 -1 q9 0 26.5 1t26.5 1q31 0 75 -22q49 -25 49 -53q0 -7 -8 -11l26 -23q0 -18 -7 -25q20 -24 20 -42q0 2 -6 -30l6 -7l-6 -4v-6q0 -6 2.5 -18.5t2.5 -19.5q0 -19 -15 -19q13 -17 14 -49l-2 -53v-2q1 -2 6 -7t5 -11zM313 115q2 7 2 12q0 6 -13 13q1 11 1 25q0 19 -3 56.5t-3 56.5 v192q0 29 3.5 87t3.5 87q0 3 -10 45q-32 28 -54 28q-23 0 -50 -23t-28 -45q-10 -250 -10 -475q0 -5 4 -22.5t1 -26.5l32 -15q16 -11 12 -30q8 3 20 13q2 -4 9 -13v4q0 9 4 13q0 -4 4 -13q20 20 41 18q3 22 18 22q9 0 16 -9zM270 87v8h-16v-8h16zM132 136h-10l6 -21q5 6 5 17 zM170 80l-2 6l-11 -6v-6zM157 87q-3 2 -10 11q-4 6 -13 6h-4q5 0 9 -5q-6 -4 -12 -14q8 -5 24 -9q4 4 6 11z" />
<glyph unicode="1" horiz-adv-x="361" d="M308 75q0 -5 -5 -16t-6 -15q6 -15 4 -18q-1 -5 -4 -14q-9 -14 -18 -14q-6 0 -6 2t-5 2t-13.5 -6.5t-13.5 -6.5t-17.5 2t-17.5 2q-8 0 -16 8.5t-8 16.5t3 212q-3 49 -7 314q-3 1 -13.5 8.5t-16.5 7.5q-11 0 -68 -57q-25 15 -25 62q0 69 6 83q4 11 67 78q47 51 80 76 q30 6 33 6q20 0 33 -11q14 -19 14 -51q0 -9 -1.5 -28t-1.5 -28q0 -20 6 -34q2 -64 -1 -195q3 -3 13 -3q0 -2 -9 -10q4 -3 9 -3q0 -31 -13 -55q4 -4 0 -194q8 -12 8 -36q0 -9 -2 -33q-1 -20 -1 -29q1 -2 7 -10t6 -13zM254 572v8h-21v-8h21z" />
<glyph unicode="2" horiz-adv-x="497" d="M440 35q0 -12 -20 -27t-31 -15q-30 0 -89.5 6.5t-88.5 6.5q-11 0 -31.5 -4.5t-31.5 -4.5q-5 0 -15 4.5t-16 4.5q-4 0 -6.5 -4.5t-8.5 -4.5q-14 0 -23 15q-8 12 -8 27q0 7 6 13t6 10t-3.5 12.5t-3.5 12.5l9 17q11 30 35 89l182 454q-3 11 -21 48q-31 23 -44 23 q-12 0 -31.5 -12t-26.5 -22t-16 -68q-11 0 -32 -5t-32 -5q-37 0 -37 43q0 29 20.5 71t43.5 62q16 14 56 24q36 10 62 10q5 0 13 -4t12 -4q153 -27 153 -150q0 -25 -12 -56l-22 -53l-9 -42q-1 -1 -24 -52q-112 -249 -135 -249q-7 0 -9 5q-2 -2 -4 -16q3 -10 3 -18 q0 -7 -5 -20t-5 -20q0 -12 19.5 -25t33.5 -13q34 0 47 9l9 -9q17 23 75 23q56 0 56 -87zM102 184l-13 -6v6l11 6zM190 182v8h-12v-8h12zM281 58l-7 7l-4 -5l6 -6zM255 54l-10 5v-22q11 10 11 15zM218 47l-4 5l-11 -11l4 -5zM168 66q0 13 -13 25t-25 11h-2q13 -7 32 -31 q-2 -2 -10 -2.5t-8 -6.5q0 -11 5 -11h16q0 1 2.5 5t2.5 10z" />
<glyph unicode="3" horiz-adv-x="469" d="M409 269q0 -18 -1.5 -55t-1.5 -56q0 -17 3 -20q-7 -21 -13 -41q-5 -13 -22 -40q-5 1 -9 -1q0 3 0 -11q0 -2 -1 -2q-2 0 -5 2t-5 2q-7 0 -5 -12q-3 -1 -15.5 -12t-19.5 -11q-4 0 -4 1v1q0 2 -4 2q-8 0 -30 -11t-27 -11q-1 0 -3.5 6.5t-8.5 6.5q-20 0 -55 -17 q-7 11 -38.5 29t-36.5 34q-6 3 -16 13t-19.5 39t-9.5 43q0 53 33 53q10 0 29.5 -5t27.5 -6q8 -5 13 -13q8 -49 5 -61q21 -18 27 -39q40 14 38 14q5 0 13.5 -4.5t13.5 -4.5h6l-2 4q-3 -23 -3 -15q0 -5 7 -11q6 5 6 8t-1.5 7t-1.5 6q27 1 30 14q7 0 15 -9q3 7 3 15q0 12 -6 24 l4 -4q2 1 2 5q0 6 -6 16t-6 15q4 -4 7 -4q2 0 5 3q1 9 -22 19q0 2 4.5 4.5t4.5 8.5q0 69 -12 137q-9 7 -34.5 18.5t-35.5 11.5q-4 0 -5 -2.5t-5 -2.5q-49 0 -49 55q0 68 46 68q5 0 5.5 -2t5.5 -2q27 0 51 17t24 43v131q0 15 -15.5 33t-30.5 18q-7 0 -17 -3 q-14 -3 -16.5 -3.5t-4.5 -6t-8 -5.5t-10 4.5t-5 4.5q-8 -6 -8 -11.5t-12 -13.5l8 -8l-15 -50q-33 -18 -51 -18q-29 0 -40.5 9.5t-11.5 38.5q0 49 34 94t82 58q21 6 86 6q28 0 65 -31q34 -29 47 -58q6 -12 13 -79q7 -60 7 -84q0 -27 -8 -88q-19 -20 -19 -42q0 -6 13 -42 q15 -40 16 -48q11 -45 11 -66zM318 100h-6l-6 11l7 2zM362 514l-5 4l-11 -10l5 -5zM371 175v16h-8v-16h8zM372 141q-5 0 -5 11q0 -6 -11 -16q5 3 16 5zM353 142l-6 2l-6 -11l7 -3zM360 101q-5 7 -16 20q0 -1 -2.5 -5t-2.5 -10q0 -8 11 -19q1 14 10 14zM338 116v7h-16v-7h16z M351 56q0 5 -6 13q0 -5 -5 -9q-4 4 -9 4q0 -9 4 -17q5 5 16 9zM257 77h-8l-5 -21h8zM221 52l-5 13l-6 -3l5 -10h6zM166 54v8h-16v-8h16z" />
<glyph unicode="4" horiz-adv-x="480" d="M328 25h-7l-5 10l6 3zM321 2q-10 10 -13 10q-2 0 -3 -1q1 3 0.5 9.5t-0.5 8.5q0 8 2 13zM273 777q0 -6 -7.5 -24t-7.5 -25q-1 -22 -2 -25q-3 -14 -15 -17q0 -6 9 -6q-5 -7 -5 -12q-9 2 -15 2q-3 0 -9 -1.5t-8 -1.5q-6 0 -10.5 9t-10.5 9q-4 0 -4 -1v-2t-5 -1t-13 7t-13 7 v56q2 2 16 12q13 7 13 16q0 7 -7 16q21 11 38 11q56 0 56 -29zM429 123q-11 4 -16 8q-12 -12 -30 -34q-3 -14 -3 -75q0 -5 -10 -16h-15q-28 26 -28 41q0 7 4 11q0 7 -13 7q7 8 16 16.5t9 16.5q0 7 -7 14q9 0 17 8q-2 1 -11 20q-6 -2 -16 -5q-4 -10 -20 -28v0q0 -3 -9 -3 q-6 0 -6 18q0 6 5.5 10.5t3.5 6.5q4 -2 6 -2q4 0 4 4t-13 26q-3 -4 -3 -13q-17 3 -11 3q-3 0 -6 -3q6 -5 12 -11t6 -11q-7 -1 -12 -5q0 1 -3 13t-3 24l-7 7q-8 -8 -8 -11q-2 4 -8 7l-3 -6l4 -4q-7 -8 -19 -8q0 1 0 -16q0 -3 -1 -6q-11 14 -11 20q0 5 4 13q-8 6 -20 16 q-1 -2 -1 -4q0 -5 8 -13q-5 0 -13 -7t-14 -7t-9.5 2.5t-4.5 2.5q0 -6 -2 -17t-2 -17.5t-11 -6.5q-5 0 -5 1q2 3 2 5q-1 2 -2 3q-1 -1 -2.5 -7.5t-8.5 -6.5q-37 0 -55 5l-9 -9q-23 8 -26.5 16t-3.5 24q0 75 24 182q1 4 8.5 13.5t7.5 11.5q0 1 -3.5 7.5t-3.5 11.5t5 17.5 t6 16.5l-3 2l-4 -2q8 15 17 19q-4 4 -9 4q11 15 10 44v47q6 8 16 14q1 21 3.5 43t19.5 37q-7 16 -7 26q0 4 1 8q6 1 9 6q0 4 2.5 10t2.5 10q0 5 -7 12h30q0 -9 1 -13q33 -13 62 -41q-8 -26 -12 -72q-6 -55 -9 -73q-1 -6 -9.5 -31t-8.5 -28t3 -8t3 -7v-1l-27 -86 q-1 -4 -16 -25q-9 -14 -9 -41q0 -6 9 -22q10 -20 11 -25q5 1 12 -1.5t11 -2.5t4 1v2t5 1q13 0 19 -2q8 -8 21 -29q5 0 16 3v8q-9 5 -27 14q1 0 11 3q7 1 13 -1q17 31 17 64q0 25 -10 49v56q5 1 32 10q22 8 28 8q8 0 26 -6.5t23 -6.5q11 -15 11 -51q0 -18 -7 -28q2 -15 2 -31 q0 -20 -4 -39q41 -11 50 -38q4 -14 4 -67zM375 156q-10 -10 -19 -10h-1q-4 5 -8 5q4 0 4 5l-2 5zM102 134h-12v8h12v-8zM246 774l-2 7l-11 -6v-6zM230 763q-4 0 -4 11q-5 -3 -16 -12q4 0 10 1h10zM232 706v7h-12v-7h12zM145 572l-7 2l-5 -12l6 -2zM402 178q-3 4 -1 16 q-1 -2 -8.5 -11.5t-7.5 -14.5q7 0 17 10zM335 161v8h-21v-8h21zM267 140q-18 -18 -34 -18q0 -11 6 -18q21 21 28 36zM183 188v7h-17v-7h17zM121 170q-5 0 -13 6v-14q-18 0 -18 -8q3 0 9 1t9 1t7 -2q0 10 6 16z" />
<glyph unicode="5" horiz-adv-x="438" d="M394 351q-7 -11 -9.5 -43t-5.5 -37q3 -42 3 -66q0 -154 -86 -191l-5 -8t-10.5 -8t-47 -4t-47.5 -4q-4 0 -25 8.5t-27 8.5t-6 -2t-5 -2q-8 0 -26.5 18t-24.5 31q-3 5 -8 31q-5 4 -14 13q-1 6 -5.5 22.5t-4.5 21.5q0 22 19 51q22 -5 67 -5q7 -14 8 -36l33 -41 q25 -30 49 -32q11 9 9 14q14 8 29.5 16t19.5 17q15 29 15 62q0 21 -17 47q9 0 17 9v64q-5 9 -5 24q0 19 -1 24q-4 17 -17 30q-21 21 -36 21q1 0 -29 -6q-8 -5 -24 -20l-8 9q-6 -6 -9 -20q-23 -20 -46 -20q-10 0 -55 15l-5.5 8t-5.5 14q0 5 3 21t3 23q8 235 4 315 q-1 34 8 48.5t35 14.5q4 0 35.5 -4.5t46.5 -5.5q-3 -7 8 -7q4 0 8 4.5t11 4.5q6 0 12.5 -4.5t11.5 -4.5q6 0 7 4.5t6 4.5q7 0 8 -3.5t2 -4.5q5 -1 41 -1q6 0 7.5 3.5l1.5 3.5q7 -2 20 0q17 2 19 2q5 0 12 -5t8 -6q15 -7 15 -40q0 -63 -57 -63q-6 0 -18 4.5t-15 5.5 q6 -1 -33 -1q-16 0 -38 22q-2 0 -6 -4q-3 -2 -3 0q-3 0 -12 8q-14 -16 -14 -21q0 -4 2 -9q-10 10 -3 23q-1 1 -8 6t-12 10l-24 -14q9 -8 18 -8q6 0 8.5 -3t4.5 -3q-13 -7 -37 2q-3 -8 -16 -29l12 -11q5 0 9 -5t6 -5q-8 1 -20 10l-11 -11q12 -13 33 -39q-1 -3 -1 -7 q0 -12 12 -38q14 -30 15 -36l24 -16q18 -10 42 -10q5 0 6 2t7 2q17 0 70 -41q28 -23 53 -65q0 -1 4 -28q4 -21 15 -25zM198 67l-6 7l-5 -5l6 -6z" />
<glyph unicode="6" horiz-adv-x="433" d="M391 647q0 -15 -2 -20q-7 -12 -29 -12q-6 0 -9.5 -4t-8.5 -4q-9 0 -26.5 8.5t-23.5 18.5q-22 46 -35.5 58t-43.5 12q-13 0 -16 -1q-11 -7 -30 -25q-13 -17 -13 -54q0 -18 6 -53q6 -38 12 -45q6 -2 15 -6q0 -3 1.5 -7t9.5 -4q4 0 32.5 -2t41.5 -2l27.5 -20.5t26.5 -6.5 q-3 -15 25 -29q3 -6 13 -43q16 -9 16 -40q0 -15 -8 -24q0 1 6 -9q5 -43 1 -64q4 0 -13 -28q5 -6 18 -17v-59q-5 -20 -17 -53q-1 -7 8 -7q-8 -16 -58 -86q-11 -3 -34 -13.5l-23 -10.5q2 0 -25 2q-20 1 -30 -1q-3 3 -5 5.5t-9 2.5q-5 0 -6.5 -4.5t-6.5 -4.5q-6 0 -9.5 6 t-6.5 7l-11 -9q-6 6 -26 20.5t-26 21.5q-10 10 -21 33q-9 20 -22 28v215q10 9 22 21q-14 7 -18 23q-7 23 -8 26v181q-1 66 7 99q3 17 9 44q5 22 26 47q26 30 51 30q5 0 22 -12q21 -15 24 -16q0 -6 5 -16q1 1 14 11q10 7 17 7q5 0 12 -2.5t11 -2.5q0 1 -2 -9q-1 -8 2 -13 q5 2 19 0q15 -3 21 -1q-2 -6 -2 -11q0 -10 16 -12t18 -4q0 -9 13.5 -20.5t23.5 -11.5q4 0 7 2q0 -6 -4 -10q8 -8 24 -20h5zM367 370l-6 7l-5 -4l7 -7zM299 147v29q-17 4 -17 11q4 2 10 9q0 -6 2 134q0 17 -23 52q-16 25 -35 25q-23 0 -49.5 -19t-31.5 -40q-4 -15 -4 -34 q0 -14 3 -43.5t2 -42.5q0 -11 -5.5 -34.5t-5.5 -27.5q0 -25 9 -51q26 0 31 -3l-9 -8q3 -7 16.5 -16t20.5 -9q54 0 76 41q-1 9 10 27z" />
<glyph unicode="7" horiz-adv-x="439" d="M368 654h-16v7h16v-7zM404 757q0 -8 -6 -16q-10 -12 -11 -13q3 -4 12 -3q0 -19 5 -22h-5q-6 -1 -10 9q-2 -4 -2 -10q0 -10 4 -15h-1q-11 0 -23 12l-7 -6q5 -2 10 -15t8 -15q-1 0 -11 10q-4 -2 -4 -7q-1 5 -6.5 6.5t-5.5 2.5l5 12q1 1 1 2q-2 1 -8 1q-5 0 -5.5 -4t-5.5 -4 q-3 0 -2 7q-1 2 -15 2q-2 0 -5 -3q16 -11 16 -20q0 -7 -7 -15q11 -11 31 -17q-7 -5 -7 -15l1 -6q5 4 10 4q-3 -22 -22 -33q3 -14 13 -40q-10 3 -11 8q1 -5 1 -9q0 -5 -2 -13.5t-2 -12.5q0 -9 10 -17h-2q-7 1 -24 -9q0 -16 -2 -48q-5 -6 -13 -17q1 -6 1 -15q0 -32 -10 -61 l-81 -228q-16 -48 -27 -111q-3 -15 -14 -15t-33 -2.5t-33 -2.5q-6 0 -13 7t-9 7q6 7 13 20l-5 1q1 3 12 14q9 8 9 15q0 6 -7 10q15 0 21 -12q6 0 6 13q7 -6 19 -13q1 2 1 4t-7 17h22l-9.5 9.5t-10.5 4.5q-5 0 -14 -8q-6 16 -28 23q12 30 10 41q6 4 15 14q0 18 7 53 q21 46 48 180l20 45q24 66 29 107q5 0 10 -5q1 2 7.5 19.5t6.5 18.5q0 2 -1 6t-1 7v1q16 19 22 19q2 1 2 3t-7 16q0 12 19 12v17q0 -4 5 -8q1 5 6 15q-2 2 -29 2q-2 3 -2 8v7q1 5 1 7q11 0 19 -8q7 6 7 9q0 9 1 11l-3 2q-5 -5 -22 -5q-7 0 -24 10q-20 11 -24 12l-3 -4l4 -2 q-1 1 -37 11q-2 -4 -7 -11q4 -2 35 -12q0 -13 -16 -21v6q0 10 3 13q-6 7 -19 7q-7 0 -9 -4.5t-3 -5.5q-7 -10 -15 -32q-1 0 -24 -13q3 -3 8 -3q0 -22 -10 -61q-2 3 -3.5 6t-7.5 3q-7 0 -48 -9q-3 8 -7 23q-5 2 -15 9v3q2 16 2 48v11h-1q-6 0 -6 10q0 14 14 92q18 16 47 16 q5 0 13.5 -4.5t13.5 -4.5q3 0 8.5 2t8.5 2q58 0 82 -17q22 22 44 22q-5 0 39 -9q5 4 4 22q11 -14 50 -21q28 -5 28 -36zM117 73l-7 1h-2q-7 0 -10 -3q2 9 8 24q7 -5 11 -5v-17zM338 627v8h-17v-8h17zM110 685l-7 7l-4 -5l6 -6zM139 654v7h-21v-7h21zM199 212l-7 2l-5 -11 l6 -3zM174 212v8h-16v-8h16zM172 193l-5 4l-11 -10l5 -5zM161 146v8h-16v-8h16zM161 30v16q-7 -1 -21 -16h21z" />
<glyph unicode="8" horiz-adv-x="421" d="M198 56l-12 -11l-4 5l11 11zM371 334l-5 -4l-6 7l4 4zM379 654q-4 -4 -19 -2q-1 -2 -1 -3t3 -6t3 -9q0 -5 -20 -25.5t-23 -27.5q-8 -20 -28 -59q2 28 2 45q0 21 -3 38h1q5 0 5 9q0 58 -19 83q-13 16 -40 20t-32 10q-17 -24 -56 -65v-137q11 -10 30 -47q34 -13 39 -13h35 q14 0 23 19q12 29 13 29q17 -12 28 -49q9 -29 17 -59v-1q0 -1 -4 -13q15 -24 15 -35q0 -10 -9 -15v-11q1 -5 6 -12q9 8 15 8q0 -4 -5.5 -10.5t-6.5 -8.5q3 -4 8 -4q4 0 7 4q-1 -2 -1 -5t1.5 -7.5t1.5 -7.5l-11 1q-7 0 -11 -4q10 -10 12 -10q-3 0 17 0q3 0 7 -2q0 -4 -15 -3 q-1 -3 -1 -7q0 -3 5 -18q-8 -38 -8 -54q0 -28 14 -43v-25q-4 1 -11.5 -6t-12.5 -7t-14 9q-13 -6 -13 -20q0 12 -6 18h3q6 0 10 6q-6 9 -16 9q-8 0 -24 -8q10 6 27 19l-8 7q-3 0 -7 -4t-7 -4q2 26 7 59q0 2 5 3t5 8q0 4 -12 19q-4 33 -9.5 66t-39.5 50q-2 1 -12 10 q-7 6 -18 6q3 0 -53 -13q-10 -12 -29 -30l1 -5q0 -4 -9 -65q2 -3 6 -5q2 -12 2 -29q0 -18 -2 -29q-1 -4 -6.5 -13.5t-5.5 -14.5q0 -8 7 -12q2 -15 13 -43q12 -8 33 -29q41 -5 52 -6q5 -3 5 -11q0 -6 -3 -12q13 -3 14 -6q3 -7 6 -10q4 7 3 26q25 0 31 -8q-1 -3 -1 -5t2 -5 q11 14 11 17q0 7 -13 12l12 11q1 -1 6 -8.5t5 -13.5q0 -10 -11 -31q-12 2 -36 14q-5 -9 -5 -16q0 -5 3 -10q-1 0 -14 -9q-8 -6 -15 -6q-5 0 -5.5 4.5t-5.5 4.5q-3 0 -21 -2q-12 -1 -20 1q-2 -4 -14 -6.5t-14 -3.5q2 0 6 4q-30 21 -42 21q-4 0 -4 -1l4 -3q-1 -1 -4 -1 q-6 0 -13 6q-10 8 -11 9v7v8q0 5 -21.5 28t-21.5 63q0 10 2.5 30t2.5 29q0 1 -3.5 4t-3.5 10q0 11 7 22q-4 22 -4 29q0 8 2 15q-2 6 -2 15q0 5 1 15.5t1 15.5q1 1 10 7q6 5 6 9q0 3 -1.5 8.5t-0.5 8.5v2q4 3 10 9q6 11 6 35q0 28 -11 56.5l-11 28.5v133q0 6 15 19 q-1 7 -5.5 22t-4.5 24q0 5 9.5 13.5t10.5 11.5q1 9 8 27q25 34 48 48q15 9 48 19t49 10q-1 0 82 -29l40 -48q1 -1 5 -22q4 -17 15 -24q-3 0 -9.5 1t-9.5 1q-4 0 -7 -2q3 -3 17 -3v-4q0 -11 -4 -15q6 -4 18 -13zM352 95q0 -3 -4 -11.5t-2 -13.5q-10 -9 -28 -33v19 q0 24 -15 28l11 11q9 -9 17 -9q9 7 9 22l8 -4q4 -2 4 -9zM178 34q-23 3 -35 20q9 4 25 15q1 -2 1 -4q0 -4 -8 -12q17 -8 17 -19zM94 509l-17 6v-7l15 -5zM335 216l-21 10l-2 -7l20 -10zM112 331l-11 6l-3 -6l12 -6zM271 78q0 5 -4 13q-3 0 -3.5 -6t-2.5 -7q-4 3 -9 3h-2 q4 -3 13 -3h8zM251 67l-6 2l-6 -11l7 -3zM100 199l-6 4l-10 -16l5 -4z" />
<glyph unicode="9" horiz-adv-x="450" d="M401 125q0 -15 -25.5 -54t-32.5 -42q-32 -9 -31 -9h-10l-3 1q6 11 4 16q-11 -13 -2 -25q-72 -14 -67 -14q-5 0 -34 4.5t-34.5 4.5t-16 9t-15.5 11q-49 16 -67 63q-12 29 -12 57q0 54 37 54q-6 0 32 -6q6 -12 21 -12q0 -6 -8 -14l7 -7q8 8 8 9q0 -1 5 -20q-7 2 -7 -8 t14 -36q-3 -16 4 -27q2 1 2 15q0 -6 8 -6q6 0 4.5 2t4.5 2q5 0 14 -7t11 -8q1 -6 5 -20q9 9 13 5q2 1 2 -14q2 0 5.5 6t4.5 8q2 0 3 -6.5t6 -11.5q2 7 14 31q0 -7 8 -26q4 10 22 39q0 -14 11 -14q0 18 -4 85q-4 61 -2 99q-4 9 -16.5 21t-23.5 13q-4 0 -22.5 3.5t-24.5 3.5 t-9 -4t-9 -4t-7 3t-2 4q-84 9 -125 93q-11 22 -11 70l4 74q0 30 2 90q-2 7 -9 7q0 1 7 11q-1 15 2 39q7 17 22 48q10 16 50 39q45 26 55 35q8 -9 29 -9q7 0 33 3q19 2 28 0q24 -12 75 -35q5 -11 14 -29q26 -34 30 -64q1 -31 1 -62q1 -26 -1 -85q-2 -71 -2 -92 q0 -4 5.5 -14.5t5.5 -15.5v-277zM298 124h-7v11h7v-11zM314 553q0 56 -10 91q-8 13 -18 34l-19 17q-9 3 -29 24q0 -6 -19 -6q7 -6 2 -11q-2 0 -6.5 2t-10.5 2t-9 -2t-4 -1q-3 -16 -7 -19q-16 -10 -28 -31q1 -10 -1 -23q4 0 8 -4q-13 -15 -13 -45q0 -9 14 -88q-4 -8 -4 -21 q0 -23 9 -50q30 -27 65 -27q16 0 37 13.5t24 27.5q3 32 12 90q0 3 3.5 12t3.5 15zM371 167l-4 5l-11 -11l4 -4zM297 57q-4 0 -13 -9l12 -11q0 19 1 20z" />
<glyph unicode="A" horiz-adv-x="491" d="M138 152l-17 -5v7l15 5zM60 105l-12 -5v6l10 5zM71 94q-3 1 -4 -9t-7 -10q-13 0 -12 1q5 6 10.5 12t12.5 6zM90 35q-6 -15 -28 -25q-8 10 -28 28q2 4 8.5 9t8.5 8l-7 7q-3 0 -8 -2t-9 -2q-2 0 -6 2q10 4 25 11q3 -6 44 -36zM475 52q-3 -5 -4 -44l-1 -5q-17 -10 -32 -10 q-5 0 -6.5 4.5t-6.5 4.5q-4 0 -5 -2.5t-5 -2.5t-3 7q-1 2 -4 2q-4 0 -4 -6q0 -2 -5 -3q-24 0 -35 19q-2 3 -16 77q-11 60 -35 60q-5 0 -6.5 -4.5t-6.5 -4.5q-4 0 -8 6.5t-9 6.5t-5 -1l1 -1q0 -2 -5 -2q-4 0 -4 1t1.5 3t1.5 3l-3 2q-30 11 -39 25q-10 -13 -7 -29 q-7 -1 -12 -1q-10 0 -16 5q-3 -7 -10 -13q-2 6 -2 11q0 3 2 9t2 9q0 5 -7 11q-7 0 -19.5 1.5t-18.5 1.5q0 3 12 16l1 5q0 2 -3 5q-8 -8 -10 -8q0 6 8 14q-5 5 -10 5q-3 0 -6 -2q0 3 7 10q-5 3 -15 11q-4 -4 -3 -17q-7 5 -11 5q0 2 12 14q-4 7 -14 14q-13 9 -16 12q4 6 5 10 q4 0 11 -5l11 -7q2 4 7 11q0 5 -33 24h-1l7 10q-3 6 -3 15q0 26 17 33q-5 3 -15 11q-4 -4 -3 -13q-7 2 -12 7q11 4 30 17l-6 6q-4 -2 -5 -6q-4 7 -9 23q5 -4 14 -13q1 2 2 9q0 4 6 4t6.5 -2t1.5 -2q2 4 8 11l-7 6l-22 -13q-5 4 -10 13q11 0 15 -4l6 7l1 5q0 2 -3 5 q-5 -4 -10 -4q-2 11 -9 33q10 10 34 26v33q-4 4 -17 4q5 18 13 41q4 6 4 8q0 3 -3.5 6t-13.5 6q9 22 22 27q-13 13 -13 21q0 20 14 68q15 52 16 72q28 8 56 17q33 10 56 10q24 0 48 -102l121 -516q8 -37 15 -74q14 -57 28 -62zM109 487h-6l-6 10l7 2zM317 167h-8v15h8v-15z M265 171h-7l-5 10l6 3zM92 335h-8v12h8v-12zM156 262l-11 -11l-4 5l11 10zM105 242l-6 -12l-6 3l6 11zM46 182h-16v7h16v-7zM62 154l-11 -15l-5 4l10 15zM247 526l-4 4l-11 -10l4 -5zM130 604l-4 4l-11 -10l4 -5zM125 457q-9 9 -9 15q-7 0 -7 -16q1 1 16 1zM302 296 q0 38 -20 101q-25 76 -53 76q-35 0 -49 -81q-17 -96 -33 -112q8 -6 25 -21l-8 -9l19 -11l10 9q10 0 30.5 -4.5t31.5 -4.5q16 0 31.5 20t15.5 37zM129 341q-4 1 -11 6q-4 -7 -13 -19q4 3 24 13zM168 223q-9 9 -9 20h-17q9 -10 26 -20zM137 197q-4 8 -15.5 13.5l-22.5 10.5 q3 -3 13 -22l-7 -8h-11q1 3 1 5q0 5 -5 13.5t-6 12.5q0 2 0 -29q0 -9 -6 -19l-9 1q-6 0 -9 -3q9 -2 26 -9q-5 -2 -13 -8q4 -4 6 -11q7 7 12 7l4 -1q0 -6 -22 -26q11 1 22.5 3t18.5 9l10 -9q-2 6 -12 27q6 3 6 10q0 5 -3 15l-12 -5q-4 2 -8 7q1 0 9 7q5 4 10 4q11 0 10 -4 l-1 7q0 3 3 6q5 -5 11 -4z" />
<glyph unicode="B" horiz-adv-x="416" d="M384 594q0 -6 -4 -12q-7 -7 -8 -10q4 -7 4 -17t-4.5 -30t-4.5 -28q7 -4 17 -15q-2 0 -9 2t-9 2q-22 -54 -22 -70q0 -20 17.5 -51.5t18.5 -42.5q-5 -4 0 -119q-3 -19 -11 -62q-6 -29 -14.5 -53.5t-30.5 -49.5q-24 -28 -48 -35q-17 -6 -60 -6q-6 0 -47 4.5t-46 4.5 q-6 0 -7 -4.5t-7 -4.5h-44q-5 0 -30 14q0 12 3 35t3 33q0 99 3 147q0 10 -3 31q-5 28 -6 35q-1 4 2.5 16t3.5 15q-1 34 -2 102q6 154 0 217q0 9 -5 32.5t-5 28.5q0 6 4 8.5t4 3.5q1 5 1 13q0 6 -1.5 19t-1.5 19q0 25 18 43l161 -13q5 0 11 6q8 10 11 12q8 -10 27 -26 q14 -2 40 -12q43 -25 66 -79q1 -13 9 -38l-4 -47q0 -1 5 -6.5t5 -11.5zM287 589q0 27 -2 32q-6 20 -18 48q-8 13 -28.5 25.5t-33.5 12.5q-24 0 -37.5 -6.5t-27 -21.5t-13.5 -23q0 -4 3 -34.5t3 -45.5v-51q3 -34 19 -48t50 -14q6 0 24.5 7t25.5 7q14 7 22 39q5 21 9 42 q4 10 4 31zM308 192v34q1 6 -4.5 12l-5.5 6q-5 33 -17 93q-3 11 -39 23q-32 10 -46 10q-12 0 -32 -8q-23 -10 -27 -20q-3 -15 -12 -36q3 -8 3 -54q0 -25 -4 -33l-6 -5q0 -6 8.5 -11t9.5 -8l-12 -6q2 -6 -2 -23t-4 -20q0 -11 6 -6q6 -22 -1 -40q4 0 10 4l9 -9q10 2 23 8 q31 -31 33 -31q6 0 6 4.5t5 4.5q6 0 10 -3.5t5 -3.5q-7 7 1 7q5 0 11 -2t11 -2q7 0 10 4t5 6q27 46 35 73q3 14 1 31q3 7 10 1zM291 53q-11 0 -20 19q0 -19 9 -26q4 4 11 7zM173 79l-6 3l-6 -12l6 -2zM111 79l-7 3l-5 -12l6 -2zM123 28l-21 10l-2 -6l20 -10z" />
<glyph unicode="C" horiz-adv-x="398" d="M373 131q0 -6 -2 -12t-2 -7v-6q-9 -10 -39 -54q-22 -32 -40 -41q-39 -18 -102 -18q-5 0 -43 17.5t-46 22.5q-13 9 -25 35q-10 9 -23 26q-12 28 -13 68v83q0 2 1 13v17q-1 10 -5 17q-1 4 6 14l1 31q1 21 -1 34q-2 19 -12 29q8 2 12 -2q1 0 6.5 4.5t9.5 6.5q-1 0 -6 -4 q-1 -3 3 -11q1 0 5.5 5t8.5 7q0 14 -9 14q-10 0 -17 -3q5 4 -4 13q0 2 6.5 6t10.5 8q-4 4 -17 3q-2 17 2 40q-1 2 -5 8q-1 12 -1 24q1 14 13 25v24q-10 10 -13 8q8 12 8 19q0 5 -6.5 11.5t-6.5 14.5q0 32 14 82q8 27 31 51q40 42 77 44q9 -1 23 4q24 2 64 2q13 0 36.5 -18 t42.5 -23l34 -46q15 -21 15 -57q0 -19 -16.5 -30t-33.5 -11t-53 18q2 5 2 9q0 20 -32 41q-26 18 -38 18q-8 0 -13 -4l-8 8q-8 -8 -18 -24q-4 1 -13.5 -6.5t-13.5 -15.5q-9 -20 -9 -49q0 -3 7 -57q7 -57 8 -76q-2 -9 -1 -76q0 -9 -1 -39q-1 -28 0 -45q1 -24 5 -41 q-9 -26 -9 -63q0 -44 13 -99q30 -17 47 -17q18 0 27 5q26 15 26 39q0 4 -1 7q9 0 18.5 13t17.5 15q17 3 65 3q15 0 31 -32q1 -3 1 -20zM280 706v16h-8v-16h8zM105 440v8h-20v-8h20zM101 406q-3 0 -10 -7q-8 8 -15 8q0 -3 5 -11t5 -10q2 2 7.5 10t7.5 10zM71 378q-5 5 -19 5 q4 0 4 -10q5 5 15 5zM67 334l-11 6l-2 -7l11 -5zM77 263l-6 2l-6 -11l6 -3z" />
<glyph unicode="D" horiz-adv-x="425" d="M392 433q-1 3 -11 3q-18 0 -21 -17q1 6 1 -25q0 3 4 -6q3 -6 -1 -25q4 -12 12 -12v-238l-9 -2q-6 0 -5 -7q2 -10 2 -13q-18 -25 -61 -70q-26 -19 -33.5 -19t-65 -4.5t-62.5 -4.5t-11.5 4.5t-11.5 4.5q-6 0 -6 -3q3 -8 3 -6q-10 13 -16 13t-6 -2v0q0 -2 -6 -2t-4 5 q2 6 0 8l-8 -9h-38q0 5 -2.5 17.5t-2.5 17.5q0 4 7.5 39.5t8.5 52.5q-3 16 -2 49q8 30 8 24q0 7 -7 14q-2 6 -2 10q0 2 6 5t8 5v16q-16 16 -16 23q0 5 5 13q-6 20 -6 23q8 10 8 16q-2 11 -13 31v16q9 2 14 5q9 5 12 14q-8 3 -26 -4q9 9 35 19q-15 15 -44 35q7 19 36 30 q6 7 18 28q-1 2 1 4.5t2 8.5l-4 4q0 16 -16 43q-8 -9 -10 -9q-3 24 -22 27q-1 22 0 63q2 45 2 63q0 6 -6 23t-6 21q0 18 19 45l34 6q15 0 82 -22q2 2 5 8.5t5 9.5q0 -17 -3 -20q1 -1 1.5 -4t7.5 -3q16 0 42 18l9 -9q4 4 4 11q0 -6 6 -13t12 -7t6 2.5t5 2.5t10 -7t10 -7 q10 0 18 9q3 -8 15 -18l18 -14q0 -6 -9 -14q2 -3 3.5 -6t3.5 -6q12 6 18 18q0 -10 16 -46q-6 -5 -6 -12l15.5 -6t7.5 -9q0 -20 -17 -53q8 -20 9 -31q-10 -26 -8 -31q-6 -17 -4 -26q4 -10 9 -18q-7 -14 -7 -48q19 -10 31 -20zM308 736q-10 0 -10 10l-12 -11q20 0 22 1z M203 752v12h-8v-12h8zM196 745v8h-12v-8h12zM112 575q-5 11 -5 29q-2 -2 -16 -29h21zM63 622q-20 -10 -20 -22h15q5 5 5 22zM122 547l-2 6l-11 -5v-7zM72 585v8h-12v-8h12zM294 134q-1 0 -3.5 -2t-9.5 -2t-6 4q1 3 3 6q8 11 6 15q4 57 3 71q-15 185 -15 263q0 6 3 22t3 20 q0 89 -1 58q1 33 13 45q-7 0 -17 14q0 9 -2 22q-19 37 -36 37q-6 0 -12 -2.5t-10 -2.5q-13 0 -22 18l-46 -20q-5 -6 -13 -14q-10 -65 -10 -117q0 -25 10 -47q-1 -23 -2 -69q-1 -40 -1 -59q0 -16 1.5 -47t1.5 -46q0 -25 -7.5 -46l-7.5 -21q0 3 4 -4t2 -27q1 -2 6.5 -5.5 t5.5 -6.5l-7 -8q-5 0 -8 -5q2 -9 0 -18t-5 -9q12 -8 2 -28q9 -4 18 -12q-3 -3 -3 -16q7 7 22 17q5 -4 3 -6q-1 -1 -6.5 -4.5t-5.5 -6.5q4 0 8 -3q-14 -10 -40 -26q11 -11 20 -11q4 0 4 2l-1 2t-1 3q1 2 4 2h12q16 0 23 -9q-2 4 -2 7q0 8 12 8q-5 0 24 -5q3 8 8 8 q10 -14 29 -18l-13 23q4 2 9.5 10t10.5 7q8 -8 15 -8q-1 8 1.5 15t2.5 6q4 -4 10 -3q-5 3 -5 6t8 7q4 2 9 4q1 4 1 12zM336 164l-7 7l-4 -4l6 -7zM270 71l-11 16l-6 -4l10 -16zM207 58h-6l-5 -14l6 -3zM220 28l-16 11l-3 -6l15 -11zM90 97h-15q4 0 4 -11zM261 115l-6 -12 l-6 3l5 11zM205 94q0 -17 -3 -21q-13 8 -13 21h16z" />
<glyph unicode="E" horiz-adv-x="439" d="M213 16l-17 -1q0 13 7 13zM193 13q-6 0 -15 9q8 5 13 5q-2 -3 -2 -7q0 -7 4 -7zM426 49q-5 -3 -12 -11q-5 -27 -9 -35q-8 -19 -28 -19q-6 0 -18.5 6.5t-18.5 6.5q-5 0 -14 -9l-9 9q-10 -2 -22 -2q-13 0 -38 5.5t-37 5.5q-7 0 -5 -11q0 2 -9 11q-15 -13 -37 -13 q-3 0 -21 2q-13 1 -22 -1l1 2q0 6 -9 6q-5 0 -6 -4.5t-5 -4.5t-16.5 4.5t-22.5 4.5l-19 583q-1 46 -7 98q-6 60 -6 61q0 16 18 49q6 3 24 3q72 2 217 7q8 0 24 3t25 3q37 0 50 -19q10 -15 10 -55q0 -28 -10.5 -39.5t-37.5 -11.5q-30 0 -90 2.5t-90 2.5q-11 0 -24.5 -24.5 t-13.5 -35.5q0 -6 7 -9q3 -24 3 -84q0 -8 -5 -14q4 -13 4 -47q7 -8 11 -8t7.5 2.5t7.5 2.5q6 0 14 -7t13 -7q20 0 60 2.5t60 2.5q27 0 27 -47q0 -38 -4 -46q-7 -18 -37 -18q-12 0 -35.5 2t-35.5 2q-8 0 -36 -6.5t-32.5 -11.5t-12 -39t-7.5 -40l2 -5.5t2 -16.5q0 -17 -10 -56 v-2q0 -2 -1.5 -7.5t-1.5 -8.5q0 -6 7.5 -25.5t8.5 -27.5l-8 -5v-16l7 -3q1 1 1 4t-1 7t-1 6h16q4 -4 13 -40q5 3 5 9.5t2 8.5q1 0 3 -7q2 -10 3 -10l9 8v-5q0 -8 4 -12q5 1 15 6l-8 3v17q5 0 13 8.5t9 9.5q0 1 0 -21q0 -6 2 -10q4 4 8 16q30 9 36 24q3 -6 7 -12t11 -6 q5 0 12 4.5t9 5.5q23 8 63 8q15 0 24 -28t18 -31zM134 31l-6 7l-5 -4l7 -7z" />
<glyph unicode="F" horiz-adv-x="381" d="M363 758q0 -38 -19 -48q-11 -7 -55 -7q-9 0 -27 18h-1q-2 0 -16 -13q-6 5 -11 5q1 1 9.5 5.5t8.5 5.5t-3 2q-18 1 -50 5q4 5 9 18l-8 7q-7 -7 -7 -35q-3 5 -10 13q-1 -1 -6 -9.5t-12 -8.5q-5 0 -8 2.5t-4 2.5q-1 -8 -5 -22l-10 9q-3 0 -3.5 -4.5t-0.5 -7.5h-6 q-13 0 -13 -5q0 -2 4 -6q-1 1 -2 1q-4 0 -12 -8q0 4 0 -16q0 -2 2 -2q1 0 7 2q-8 -4 -22 -10q2 -2 2 -4v-1q0 -2 7 -2q3 0 7 1.5t6 1.5q-9 -8 -9 -14q0 -11 8.5 -31.5t8.5 -30.5t-8 -17q9 -7 9 -18q0 -5 -1.5 -13.5t-1.5 -12.5l22 -29q14 -18 30 -18q5 -1 5 1l-1 1q1 2 5 2 q6 0 6 -2l-1 -3l1 -4l8 9h7q10 0 29 -1.5t27 -1.5q5 0 12.5 3.5t12.5 3.5q7 0 12 -2q14 -18 14 -44l-4 -5q2 -5 2 -12q0 -4 -2 -14q-1 -10 0 -15q-27 -10 -29 -10q-5 0 -13 9q-2 -4 -8 -13h-2q-10 0 -23 9l-12 -9l-8 9q-8 -9 -24 -9q-13 1 -27 1h-2l-31 -33q0 -7 -5 -20 q1 -7 6 -23q-9 9 -27 9q0 -1 18 -10q0 -2 -13 -28l5 -2q3 1 7 4l1 -5q0 -7 -4 -10q4 -4 13 -4l-5 -25q-5 6 -14 13q-1 -1 -3 -2q0 -12 5.5 -15.5t12.5 -6.5l-9 -10q12 -16 7 -61q2 -17 12 -49q-3 -14 -3 -27q0 -7 5.5 -19t5.5 -18q0 -15 -24 -24q-18 -7 -36 -7q-5 0 -20 7.5 t-22 7.5q4 0 9 5q-14 15 -13 38v21q2 0 7 -2t7 -1q1 -7 3 -15t9 -8q16 0 22 6q1 0 1 9q0 2 -5 2q-6 0 -11 -3.5t-7 -3.5q0 9 9 23q-6 4 -18 11l-11 -9q-6 5 -11 6q9 25 9 45q0 59 -18 76q7 4 14 14q-2 5 -7 8q6 10 7 27q1 13 0 33q-1 25 -1 29q0 26 9 31q-3 3 -12 2 q0 45 1.5 136t1.5 136q0 56 -1 85q-1 9 -6.5 26.5t-5.5 26.5q0 42 56 42q20 0 41 -6.5t25 -6.5q18 0 54.5 2t54.5 2q10 0 30.5 6.5t31.5 6.5q49 0 49 -51zM271 754l-6 3l-6 -12l6 -2zM261 759l-16 8l-2 -7l15 -8zM250 739q0 12 -5 17q-4 -4 -11 -5zM233 730q0 12 -5 17 q-7 0 -7 -12q5 0 12 -5zM116 577l-7 2l-5 -11l6 -3zM253 426l-6 2l-6 -11l6 -3zM252 406l-2 6l-11 -5v-7zM88 539l-12 6l-2 -6l11 -6zM110 523l-11 11q-26 -3 -32 -17l-8 9q-1 -1 -1 -3q0 -1 19 -19q6 13 19 13q9 0 7 -11q0 11 7 17zM164 422l-7 7l-4 -4l6 -7zM75 450l-3 6 l-10 -5v-7zM136 396q-11 6 -20 23q0 -4 -11 -7q6 0 18 -13q-9 -8 -9 -18l1 -6q5 -4 16 -8zM115 365l-6 7l-5 -5l7 -6zM108 346q-7 10 -23 24q-4 -9 -15 -24q3 -2 7 -2q8 0 15 7q-5 0 -5 5l2 6q9 -17 8 -22q2 0 5 4t6 2zM70 379l-2 6l-11 -5v-7zM71 333l-6 2l-6 -11l7 -3z M96 279q-22 22 -22 28q-2 2 -4 2q-3 0 -9 -6v-21q5 0 17 -1.5t18 -1.5zM115 241l-3 7l-15 -5v-7zM83 263q-4 0 -9.5 5.5t-5.5 8.5q-1 -13 -5 -17q-7 4 -10 4q-1 0 -14 -7q5 -1 15 -9q7 -5 16 -5h4q-1 1 -7 4t-6 5q2 2 5 2q2 0 6 -1.5t6 -1.5q0 5 5 12zM98 198l-6 18l-6 -3 l5 -15h7zM96 121v7h-25v-7h25z" />
<glyph unicode="G" horiz-adv-x="383" d="M233 45l-5 -4l-6 6l4 5zM355 675q0 -3 -3 -12t-1 -15q-13 -3 -20 -3q-5 0 -8.5 3t-4.5 3q-6 0 -7 -4.5t-7 -4.5q-7 0 -20.5 5.5t-20.5 5.5q8 8 8 16q0 13 -15 15q-8 23 -11 25.5t-30 9.5q-5 5 -5 17q0 6 -11 8q-3 -2 -4 -7q2 -5 4 -15q-4 4 -14 4q-5 0 -15.5 -6.5 t-14.5 -8.5q-8 -2 -18.5 -22.5t-19.5 -22.5q4 -6 4 -15q0 -8 -4.5 -21t-5.5 -18q-15 4 -24 22q-5 0 -17 -12q3 4 3 8q0 5 -3 12l-13 -13l-13 13q-3 -6 -11 -12v47q11 0 17 7q-3 3 -8 4q9 15 7 32q1 2 6.5 6t5.5 9l9 -9q5 7 5 16q0 5 -2 10q4 2 34 32l-1 -5q0 -5 4 -9 q24 36 46 36q12 0 20 -9q3 5 9 13l26 -9q4 4 4 13l10 -8l5 4l9 -9q30 -6 65 -24q10 -16 10 -18q8 -3 19 -8q-2 -5 -2 -8q24 -46 24 -68zM121 584q-2 -2 -4 -9t-4 -7q-1 6 -5 11q8 4 13 5zM82 588l-4 -4l-7 6l5 5zM121 382q0 -41 -15 -71q-10 10 -10 12t3 4l-7 6 q-15 -5 -21 -17q-13 10 -19 26q-2 -3 -23 -13q0 6 -2.5 18.5t-2.5 18.5q0 15 3 45t3 44q5 2 14 8q-4 5 -4 11q0 10 13 18q5 -16 27 -35q10 4 10 17q0 6 -11 19t-11 19q0 10 15 24q11 -7 33 -14q-5 -36 -5 -107q0 -2 5 -14.5t5 -18.5zM355 419q0 -5 -4 -9l-4 -4q0 -1 1 -2 q5 2 5 6q0 -29 -6 -66q-1 -1 -4 -5v-2q0 -3 6 -7q-4 -14 -4 -27q0 -8 2 -12q-4 -6 -8 -6q0 6 -4 17q-8 -4 -20 -11q1 0 6 -10q3 -5 10 -5q6 0 7.5 1.5t2.5 1.5v-20q-2 0 -15 12q-12 -10 -12 -17q-8 0 -22 4l-12 -11q2 -1 6 -1t11.5 1.5t11.5 1.5q5 0 5 -1q-2 -3 -2 -4 q0 -3 1 -4q5 5 14 13q0 -9 13 -21h1q3 0 3 -3q0 -7 -6 -13q7 -7 12 -7v-33q0 -49 -14 -83q-12 -16 -32 -50q-9 -2 -26 -16q-22 -17 -25 -19q-17 -3 -47 -10q-3 18 -25 31h-5q-9 0 -17 8q-2 -5 -5 -16q-11 -1 -23 -15q0 19 -16 27q-2 -4 -7 -6t-5 -7q-2 0 -9.5 4.5t-9.5 1.5 l6 9q-8 24 -17 24q-6 0 -9 -2t-4 -2q-13 19 -36 60q4 2 13.5 8.5t15.5 6.5q4 0 12 -4.5t14 -4.5q20 0 26 13q5 -3 14 -17.5t9.5 -18t9.5 -5.5q2 -2 2 -6q0 -6 -3 -10l-9 9q-3 -3 -3 -5v-5q13 -4 38 -17l15 18v-3q0 -4 -4 -8q12 -5 33 -20l7 7q-5 2 -13 8v20q8 0 13 9 q2 -3 2 -9q0 -9 -7 -15q3 -1 6 -1q4 0 13 3q7 2 14 0q8 8 8 18q0 7 7 25.5t8 22.5q0 -8 5 -13q6 0 6 8h26q0 -1 -1.5 -3.5t-1.5 -4.5t4 -5l4 24q-5 3 -12 3q-9 0 -17 -4l-9 9q-4 -3 -4 -7v3.5v3.5q0 4 -2 7h7q11 0 25 -3q2 2 3.5 9t3.5 7q-1 1 -3 1q-5 0 -14 -3.5t-14 -3.5 l22 10l-7 7q-5 -4 -10 -4q0 11 6 17q4 -4 7 -4q2 0 5 2v5q0 3 -3 6q-4 -4 -12 -4h-3v21l9 -1q5 0 8 3q-1 2 -2 6q0 1 -6 1q-9 0 -11.5 4.5t-1.5 11.5q1 12 1 13q0 3 -1.5 3.5t-5 5t-3.5 7.5q0 1 1 2q7 5 7 17q0 9 -6 27.5t-6 27.5q0 4 8 11q-11 11 -16 11q-9 0 -8 -8 q-1 9 -24 14t-23 34q0 33 15 62q61 0 135 -10q0 -6 7 -11v-6q1 -7 -7 -27zM77 287q-6 -7 -6 -11q-5 5 -24 5q0 6 8 15q-7 6 -11 6q-7 0 -7 -1l2 -5q0 12 -6 18h5q6 0 10 -3q5 2 5 7q0 -3 17 -12q1 -7 7 -19zM103 159l-26 10l2 7l24 -10v-7zM83 144h-8v16h8v-16zM306 688 q-6 6 -6 14q0 -4 -11 -4q10 -10 17 -10zM235 738v7h-12v-7h12zM222 751v8h-16v-8h16zM187 771v16q-10 0 -15 6q-9 -10 -15 -10v-21q10 2 30 9zM145 769l-7 2l-5 -12l6 -2zM107 770q-21 -11 -21 -22q0 -6 3 -8t3 -3q0 3 15 33zM130 728q-3 2 -6 2q-4 0 -10.5 -2.5t-9.5 -2.5 q-1 -12 1 -34q17 15 17 22q0 1 -1.5 3.5t-1.5 3.5q0 2 1 3h1q4 0 9 5zM72 667v8h-16v-8h16zM311 409q-5 10 -16 21q-5 -3 -10 -12q1 0 3 1.5t8 1.5t9.5 -6t5.5 -6zM284 427v16q-3 0 -10 -2.5t-11 -2.5q0 -7 10 -16q4 0 11 5zM315 375q-10 10 -25 10q0 -5 5.5 -9t6.5 -5 q-4 -4 -3 -10v-1zM313 366q0 -2 -15 -17q4 -5 7 -11q4 9 8 28zM291 357l-7 4l-10 -16l6 -4zM282 259v16h-8v-16h8zM118 62l-7 7l-4 -4l6 -7z" />
<glyph unicode="H" horiz-adv-x="402" d="M377 312q0 -14 -15 -58q1 -3 1 -6l-1 -7l4 -5q7 -38 7 -131q0 -4 1 -19v-23q0 -74 -35 -74q-4 0 -10.5 2.5t-9.5 2.5q-5 -1 -4 -2q1 -3 1 -5t-4 -2q-5 0 -13.5 4.5t-13.5 4.5l-10 2h-7q0 23 -11 30q4 3 11 11q2 26 16 53h9q-6 22 -21 22q16 0 16 17q0 6 -8 17t-10 16 q15 0 27 8q-10 9 -12 6q-2 13 -2 9q0 5 5 12v47q-12 8 -13 37l-2 44q-3 13 -24.5 25.5t-36.5 12.5q-11 0 -32.5 -5t-30.5 -5q-7 -8 -19 -24q4 -11 4 -16v-2q-6 -2 -8 -8q2 -35 2 -48q0 -16 -4.5 -49t-4.5 -49q0 -17 2 -37q-6 -2 -16 -8l14 -14q-1 -1 -3 -6t-9 -5q-4 0 -9 4 q-6 -6 -6 -10l6 -7l3 8h26q-10 -13 -10 -24q0 -6 5 -18.5t5 -17.5q0 -33 -24 -33h-38q-6 0 -35 15v108q2 6 7 18v5q0 3 -1 10.5t-1 10.5q0 1 3.5 8t3.5 12q0 10 -12 16l23 -3q0 -1 8 7q-7 7 -14 7q-5 0 -8 -2t-4 -2q1 6 5 19q-4 3 -4 12q0 10 4 20v111q0 6 -9 9q6 12 6 24 q0 22 -4 66.5t-4 67.5q0 70 8 255q8 8 23 13q20 5 25 8l10 -9q5 2 12 4q6 0 15 -7t10 -12q3 -16 4 -36q0 -14 -1 -37q-1 -27 -1 -37q0 -6 1 -18.5t1 -18.5q0 -9 -3 -27t-3 -27q0 -3 7.5 -12t7.5 -15t-9 -21t-9 -21q0 -16 15.5 -34.5t31.5 -18.5q5 0 9 4t9 4q4 0 10.5 -4 t11.5 -4q55 0 55 58q0 7 -1 22v23q0 17 4.5 51.5t4.5 52.5q0 11 -3.5 34t-3.5 34q0 27 11 47q5 5 17 14q6 1 19 3.5t20 2.5q6 0 12.5 -4.5t8.5 -4.5l1 -112q3 -7 10 -20q8 -38 8 -59q0 -5 -7 -12.5t-7 -20.5q0 -6 1.5 -18t1.5 -18q0 -13 -7 -19v-56q0 -6 3.5 -20t3.5 -22 t2.5 -25.5t2.5 -26.5q0 -4 -3.5 -11.5t-3.5 -12.5q0 -3 6.5 -11t6.5 -14zM284 99l-5 -4l-6 6l5 5zM356 564v16h-8v-16h8zM345 585h-17q0 -13 12 -13q4 5 5 13zM354 537q0 9 -6 17q-10 -10 -10 -26q9 9 16 9zM334 554q4 3 4 6q0 4 -13 8q-5 -6 -5 -13q4 -7 11 -13q1 2 0 7 q-1 4 -1 6q0 1 1 1zM358 468v8h-12v-8h12zM331 486v8h-16v-8h16zM341 418q-8 10 -22 19l9 -9q-5 -5 -4 -10h17zM327 406v8h-12v-8h12zM331 214v8h-11v-8h11zM91 342q0 1 -4 8q-2 5 0 7q-6 -6 -17 -15h21zM331 118q0 5 -29 9v-21q5 -5 10 -14q0 10 6 31q8 0 13 -5zM84 188 l-7 7l-4 -5l6 -6zM67 199v12h-8v-12h8zM78 169q-14 1 -15 16q-11 -22 -11 -25l1 -1q8 5 25 10zM93 128v16h-7v-16h7zM78 77v6l-15 6l-3 -7z" />
<glyph unicode="I" horiz-adv-x="213" d="M58 723h-7l-5 11l6 2zM168 372q-7 -11 -22 -31q15 -23 15 -34l-13.5 -33t-13.5 -57q0 -25 13.5 -57t13.5 -33q0 -9 -14 -28t-16 -28h-5q-9 -1 -18 4q-3 -2 -3 -5t4 -7q1 3 -10 3q-9 0 -21 -12q1 -9 14 -22q-13 0 -23 -5q0 -8 16 -19q9 5 19 5q18 0 42 -21l-60 -15h-20 q-14 20 -14 45q0 11 4 32t4 32q0 14 -5 25q-4 2 -4 6t5 15.5t6 16.5q4 39 4 125q0 10 2 44q1 27 0 44q11 3 11 14q0 19 -11 39q3 6 3 15t-3 25t-3 25q0 16 9 26q-5 6 -18 17l10 23q-4 17 -4 18v1q13 7 13 28q-1 2 -3 4q-8 -8 -11 -8q3 13 3 22q0 13 -6 20.5t-6 12.5 q0 6 7 16t7 19q0 7 -2 19q6 16 6 15q0 9 -6 28.5t-12 22.5q10 28 16 33q9 10 33 10q13 0 20 -13q3 3 3 8q18 0 30 -8l13 8q0 -3 -12 -15q8 -9 8 -22q0 -8 -5 -19t-5 -17q0 -8 6 -18l-36 -9q8 -4 31 -3q0 -16 13 -43l-6 2q-5 -7 -16 -19v-52q4 -3 9 -4q0 -5 -2.5 -16.5 t-2.5 -17.5q0 -10 12 -11q-11 -41 -11 -86q0 -1 1.5 -6.5t1.5 -6.5q3 -11 3 -19q0 -7 -3 -12q3 -13 15 -36zM146 789l-2 6l-15 -5v-6zM138 676l-6 2l-6 -11l6 -3zM152 647v12h-8v-12h8zM151 150l-7 7l-4 -5l6 -7z" />
<glyph unicode="J" horiz-adv-x="410" d="M373 739l-22 -484q0 -7 -8 -25q4 -9 6 -27q-6 -21 -10 -84q-2 -42 -26 -69q1 -5 0 -9q-9 -12 -27 -26q-22 -16 -35 -16h-12.5h-10.5q-7 -6 -4 -8q4 -5 4 -10q-4 3 -18 0q-16 -4 -19 -4q-5 0 -9.5 6.5t-10.5 6.5t-12.5 -2t-12.5 -2q-36 0 -74 14q-50 19 -50 51 q0 16 25 47.5t45 31.5q12 0 40.5 -31.5t47.5 -31.5q5 0 4 4.5t5 4.5q5 0 4 -2.5t5 -2.5q5 0 4 4.5t5 4.5q15 0 15 8q0 2 -2 4q11 0 14 -3v362q0 5 4 44q5 45 6 60q-1 38 0 117q0 12 -1 34.5t-1 31.5q0 42 20 71q92 -8 95 -10q16 -7 16 -60zM279 102l-2 7l-11 -6v-6zM265 67 q-7 21 -22 21q0 -2 2.5 -10t2.5 -11h17zM246 60v8h-16v-8h16zM163 20l-6 2l-6 -12l6 -2z" />
<glyph unicode="K" d="M411 782q-9 -21 -112 -231q2 -7 -1 -14q-29 -46 -29 -86q0 -5 7 -17t8 -16q-2 9 -2 -28q0 -15 14 -15q-3 -6 -2 -16q2 -16 2 -17q0 -7 13 -7q0 -3 -9 -11q2 -13 4.5 -27t9.5 -14q13 0 13 -5q0 -4 -9 -11.5t-9 -14.5q0 -12 13 -6l-9 -11q0 -4 18 -12l-13 -14q5 -6 29 -61 q2 -4 8 -58q1 -12 14 -38t15 -39q-12 0 -4 -8q-42 -2 -59 7q-12 -11 -12 -7q-1 1 -1.5 4t-7.5 3q-5 0 -9.5 -4.5t-10.5 -4.5q-10 0 -5 20q-19 20 -19 47q0 18 9 41q-7 8 -11 8t-8 7.5t-8 11.5q5 9 18 23q-7 2 -21 9q0 10 -7.5 18.5l-14.5 16.5q-6 12 -19 33l-11 -9l-14 14 q-2 -3 -8.5 -7t-6.5 -5q1 -2 6 -4q-10 -5 -30 -40v-44q0 2 9 -40l-11 -14q-3 -27 4 -80q-2 -1 -16.5 -10t-21.5 -9h-27.5h-35.5q-10 23 -10 27q0 29 14 144q1 7 22 23l-4 37q-3 -4 -3 -14q-11 57 -11 73q0 54 13 56.5t13 30.5q0 15 -20 27q-3 17 -1 46q0 1 -2.5 3t-2.5 8 q0 12 5 60q2 17 12 22q-13 7 -13 35q1 47 1 45q-5 38 -5 95q0 62 8 79q10 23 47 23q69 0 69 -42q0 -19 -6 -45q-16 -68 -16 -66q0 -7 11.5 -26.5t16 -19.5t10 -4.5t10.5 -4.5q12 0 29 18q15 15 19 25q1 6 3 17q16 44 53 128q31 11 52 11q18 0 66 -19zM79 548l-2 7l-11 -6v-6 zM122 232v8h-16v-8h16zM80 210l-7 7l-4 -4l6 -7zM105 197q-21 10 -25 10q-10 -20 -15 -25h17q0 9 8 16q8 -8 15 -1zM124 51l-7 7l-4 -5l6 -6z" />
<glyph unicode="L" horiz-adv-x="377" d="M358 45q0 -18 -10.5 -33t-22.5 -15q-10 4 -14 4q-8 0 -12 -9q-7 5 -20.5 9.5t-19.5 8.5q-5 -3 -11 -7q-1 -1 -1 -14q-4 0 -18 8.5t-19 8.5t-14 -4.5t-15 -4.5q-5 0 -27.5 6.5t-27.5 6.5q-6 0 -2.5 -4.5t-1.5 -4.5t-18 4.5t-18 4.5q-4 0 -8.5 -6.5t-11.5 -6.5 q-5 0 -17.5 4.5t-16.5 4.5q0 23 2 69.5t2 65.5q4 -1 8 3q-4 3 -8 3v112q0 3 4.5 42.5t4.5 58.5q-2 9 -2 71q0 40 4 122q4 95 4 108q0 18 -1 52q0 15 4 57q2 20 -4 33q41 1 45 -3q9 9 22 9q5 0 22.5 -4.5t27.5 -4.5q14 -29 14 -33l-49 -648q2 -1 2.5 -6.5t6.5 -5.5t5 2t4 2 q12 0 25 -26q2 1 11 8q6 5 13 5q5 0 32.5 -4.5t33.5 -4.5q5 0 25 2.5t26 2.5h16q12 -1 16 -1q10 -29 10 -48zM220 44v7h-21v-7h21zM81 130l-6 13l-6 -3l6 -10h6zM89 103l-17 5v-6l14 -5z" />
<glyph unicode="M" horiz-adv-x="588" d="M546 458q-5 -32 -5 -75q0 5 -5 9q-1 -4 -6 -11q5 -2 13 -8q0 -3 -14 -15h-25q3 5 3 9q0 3 -6.5 10.5t-7.5 16.5q0 3 1 8v8q0 6 -2 11q4 2 12 9q0 -1 -18 17q13 6 27 14q0 2 -3 5q-10 -4 -24 -8q18 4 18 29q0 20 -9 30q4 0 11 -7q8 7 8 13q0 3 -3 7.5t-3 5.5q9 7 9 10 q-2 2 -5 2q-2 0 -6 -1t-6 -1q-4 5 -9 16q3 0 8.5 -2t8.5 -2t2 7q1 2 5 2q13 0 23 -6q0 -1 -12 -14q3 -4 12 -3q-4 -11 -4 -29q0 -34 12 -57zM469 328q-4 -6 -10 -6v11q0 8 -6 13q7 -4 16 -18zM547 636v-2q0 -7 -8.5 -18.5t-8.5 -19.5q0 -9 8 -19q-12 1 -11 1q-12 0 -24 -8h1 q1 0 4 3q-1 1 -13 10q-9 6 -15 6q-5 0 -9 -5l-9 9q-1 -5 -4 -15q3 -4 5 -11q-5 0 -10 4q-5 -5 -8.5 -15.5t-15.5 -17.5q2 -11 9 -30q-3 -5 -22 -14q1 -3 1 -8q0 -1 -2 -17q-1 -11 1 -16h-4q0 -8 9.5 -25.5t16.5 -24.5l-26 -14v-4q-1 -3 3 -6q3 2 6 8h17l-1 -5q0 -4 4 -7 q8 3 22 12v-16q-11 0 -16 -5q-12 -11 -13 -12q5 -4 13 -11q0 -10 -7 -17q-10 14 -25 18q0 1 -7 -7q8 -8 21 -13h-5q-4 0 -21 -3q-2 -7 -28 -21l-9 5q-1 -1 -1 -4q0 -2 1 -6.5t1 -6.5q0 -13 -10 -19t-20 -11q1 -6 18 -11q-5 -7 -11 -20q-12 -1 -24 -9q2 -3 5 -6l-7 5 q-2 -2 -4 -6q0 -7 4 -18q-1 1 -3 1q1 0 -8 -9q10 -5 22 -28q-19 -6 -19.5 -36.5t-14.5 -33.5q-2 5 -2 13q0 13 6 20v3v3q0 4 -7 4q-6 0 -7.5 -2t-2.5 -2l-2 4q2 3 5 6q-6 2 -17 9q1 2 12 13q7 7 7 15q0 5 -1 10q-6 0 -6 -13q0 4 -10 8l-7 3q2 3 2 7v9q-1 5 -1 8 q-5 0 -8 -4.5t-5 -4.5q0 3 8 11q0 7 -8 8l-4 -2q-1 22 -1 17q0 25 22 30l-3 18q-8 -17 -22 -17q-5 5 -14 5q0 9 1 28q-1 2 -8 4t-6 12q-6 0 -17 1.5t-16 1.5q-14 0 -30 -22t-16 -37l-4 12q-3 0 -11 8q-3 -2 -4 -6v-4.5v-6.5q-1 -5 -1 -7q0 11 -9 15q-4 -1 -5 -9l-2 -12h-3 q-15 0 -30 -5q-9 8 -22 28q-5 23 -5 204q0 61 -6 94q0 3 5 11.5t5 14.5q0 25 -8.5 75.5t-8.5 74.5q0 8 2 22t2 21q13 5 33 19q0 -5 6 -7t43 -2h22l34 -124q17 -42 46 -127q4 -12 28 -53q17 -29 19 -32q12 -14 33 -14q29 0 53 73l1 2q0 4 -5 10q5 4 25 54q8 15 23 46 q10 20 12 41q3 4 12.5 5.5t11.5 4.5q-9 3 -26 11q9 13 5 32q6 1 11 5q5 -6 20 -13v2q0 5 -4.5 15.5l-4.5 10.5v29q2 -1 5 -1q8 0 17 4q-1 5 -5 6q-3 6 -3 9v2q5 2 40 24q3 -5 9 -13l9 8q11 -5 30 -16q7 -1 7 -12q0 -13 -18 -31q4 -3 10 -13v-3q0 -6 3 -17t3 -16 q0 -25 -12 -43v-12q7 -6 22 -12zM565 78q0 -70 -26 -70h-33q-32 0 -43 15t-11 48q0 11 1 26q3 2 12 10q-1 6 -13 6q2 9 2 15q0 14 -7 15q0 15 17 32q-3 4 -8 4v15l17 18q0 9 -17 15v47q14 0 19 -4q3 1 3 5q-5 5 -17 4q0 9 -4 26l-12 -9q-4 5 -13 11q1 0 4.5 -1t6.5 -1 q1 0 7 6t23 6q0 -7 -9 -15q5 -9 20 -19q12 10 12 18q0 6 -5 10q10 8 30 22l-17 14h7q3 0 8 -1q0 -3 7 -11q1 7 7 18q-1 -3 -3 -10q2 -3 6 -3q6 0 8 1.5t3 1.5q0 -10 -7 -19q2 -11 12 -29q0 -7 -6.5 -14t-12.5 -7t-6.5 -4.5t-5.5 -4.5q-9 0 -9 -3v-2l8 -8q11 0 11 13 q20 -9 20 -38q0 -18 -5 -29q6 -14 10 -37q5 -32 7 -38q-4 -4 -4 -19v-20zM154 29q0 -17 -5 -30q-10 0 -30 -4.5t-30 -4.5q-19 0 -38 14q-6 55 -6 63q0 19 5 58t5 58.5t12 18.5q-3 3 -8 3q0 2 18 21q6 -5 11 -5q-7 -11 -17 -32q3 -4 14 -11q0 3 3 7t3 6l-1 3l-5 5 q16 -1 23 -12q2 7 12 15.5t12 12.5l-8 8t-4 7q0 4 6 5t6 4q0 1 -1 4t-1 5q1 -5 11 -33q9 -24 9 -30q0 -10 -18 -26q13 -7 13 -14q0 -5 -8 -13q6 -2 17 -9q-7 -5 -12 -16q-9 -17 -10 -18q22 -26 22 -60zM481 696v8l-25 4v-7zM462 646v16h-8v-16h8zM527 500l-7 7l-4 -5l6 -6z M418 600l-6 2l-6 -11l6 -3zM435 574l-6 2l-6 -11l7 -3zM417 527l-3 6l-10 -5v-6zM411 414q0 11 -6 17q-8 -16 -8 -24q0 7 14 7zM108 681v12h-8v-12h8zM396 393v11h-8v-11h8zM424 360v7h-11v-7h11zM520 239q-5 -5 -16 -9v-21q5 0 11 -5q7 13 7 26q0 5 -2 9zM501 218l-6 13 l-6 -3l5 -10h7zM359 308q-5 0 -12 -4q0 -4 4.5 -12t2.5 -14q5 16 5 30zM154 471q-3 7 -6 21q-5 -10 -10 -26q5 5 16 5zM490 137v8h-25v-8h25zM495 115q-10 5 -26 10q0 -2 15 -17q5 4 11 7zM329 274l-11 6l-2 -6l11 -6zM341 229v7h-20v-7h20zM194 377l-11 11q-5 -8 -15 -21 q16 0 26 10zM281 223q-4 10 -17 25q1 -8 8 -15q-6 -4 -12 -11zM145 353q-5 10 -16 26v-21q11 0 16 -5zM121 367v20h-8v-20h8z" />
<glyph unicode="N" horiz-adv-x="448" d="M409 781q0 -8 -2.5 -23.5t-2.5 -23.5l-10 -1q-4 0 -11.5 2t-10.5 2q-14 0 -17 -5v-17q0 -6 -3 -11.5t-3 -6.5q1 -3 3 -1q-22 7 -28 18q2 2 5 7l-2 3q-9 -6 -11.5 -9t-3.5 -13q-13 26 -13 46q0 33 14 43q11 8 45 8q29 0 51 -18zM395 724q0 -22 -11 -22t-11 -2q1 -3 3 -5 q-4 4 -15 3l5 22q4 -2 8 -2q10 0 21 6zM409 400q-9 6 -18 6q-6 0 -13 -2q18 -9 16 -14v-216q0 -18 7.5 -66t7.5 -69q0 -29 -11.5 -36.5t-41.5 -7.5q-16 0 -36.5 9.5t-26.5 22.5q-3 6 -15 67q-10 20 -22 62q-20 131 -88 131q-5 0 -15 -12q-6 -9 -12 -17q2 -4 2 -10 q0 -16 -10 -25l-20 -18q1 -1 4 -1q4 0 13 3.5t14 3.5v-186q0 -6 -10 -25q-10 -2 -30 -2q-41 0 -48 1q-27 7 -27 34l6 774l5 -4l4 3q3 -1 7 -1q8 0 23.5 3t22.5 3q-8 0 36 -6q30 -30 30 -58v-9q-1 -7 -1 -10q0 -16 5 -32q1 -3 6.5 -11t5.5 -14q0 -10 -7 -14.5l-15 -9.5 q2 -2 6 -2t13 2q9 -7 25 -51q15 -40 20 -40q6 0 8 2t3 2q0 -3 -9 -11q8 -8 21 -24q0 1 3 7q1 2 7 2q5 0 5 -1v-2q1 -1 4 -1q8 0 5 8q3 0 16 -13l20 30q8 46 8 60q0 7 -4 21.5t-4 22.5v2q6 3 13 12q-2 4 -2 8q0 9 10 16l-1 -2q0 -24 30 -24q2 0 7 1t7 1q3 0 8 -2l8 22 q21 -20 21 -29q0 -5 -3 -16t-3 -16q-10 3 -13 3q-4 0 -8 -2q2 -1 2.5 -6t6.5 -5q4 0 8 2t5 2q-1 -2 -1 -6q0 -3 1 -10.5t1 -11.5q0 -15 -10 -23v-157q5 -7 18 -18zM245 190q-7 -4 -12 -4q0 1 -1 5v6q0 5 2 10q11 -12 11 -17zM383 572q-5 2 -12 2t-15 -2l9 -5q-5 -5 -5 -7 q0 -1 3 -4q2 3 4 3q2 -1 3 -4l-12 -6v-1q0 -2 1 -7v-6q0 -3 -5 -10q-9 9 -9 11q0 -5 -5 -11.5t-5 -7.5q30 3 36 21t12 34zM336 526v16h-8v-16h8zM140 521l-12 6l-2 -7l11 -5zM378 155v15l-14 15q-5 0 -9.5 4t-6.5 4q0 -3 -5 -4q-3 0 -11 1q-6 0 -8 -1q-1 5 -1 29l-1 3h-1 q-3 0 -5 2l7 6q14 -12 13 -35q11 22 11 27q5 0 5 -4q0 -2 -1.5 -6t-1.5 -6q8 3 15 11q-3 -1 -4 -1q-7 0 -5 18q-2 0 -6.5 -3.5t-7.5 -3.5q-2 0 -3 1q4 8 20 24q3 -6 11 -12q4 7 8 21q-11 -5 -15 -5l-6 3q9 4 9 10q0 13 -1 9q-4 -4 -10 -4q-11 0 -11 11q0 4 1.5 12.5 t1.5 12.5q8 -8 12 -8v-12q0 3 3.5 10.5t3.5 12.5l-18 5v19l7 8q5 -6 15 -12q-5 6 -10 19q5 65 5 59v5q-7 -5 -8 -5q-2 1 -4 3q4 6 8.5 19.5t8.5 20.5q-5 4 -10 15q-4 -5 -18 -5q-15 0 -19 5q1 -4 1 -8q0 -17 -14.5 -30.5l-27.5 -26.5q8 -2 14.5 -10t11.5 -16q-3 -2 -12 -6 q2 -1 2 -3q0 -5 -10 -15q-13 -13 -14 -15v-15q4 0 8 -3q-8 -5 -12 -15t-6 -12q22 -19 22 -31q0 -5 -17 -22q12 -6 12 -31q0 -15 -8 -23q11 0 16 -16t22 -16q4 0 13 9q1 -1 1 -9q0 -4 6 -4q25 0 21 0q0 13 6 13q3 -5 10 -13q5 4 11 5zM388 122l-7 7l-4 -5l6 -6zM298 121v8 h-21v-8h21zM348 450l-18 -6v7l15 5zM357 424h-6l-5 15l6 3zM333 422h-12v8h12v-8zM322 296h-7v16h7v-16zM324 272h-11v7h11v-7zM308 269l-3 -6l-14 5v7zM317 189l-13 -5v6l10 5z" />
<glyph unicode="O" d="M387 392q0 -34 -6.5 -101t-6.5 -101q0 -8 1 -25t1 -25q0 -43 -17 -61q-30 -31 -34 -38q1 4 7.5 14.5t6.5 19.5v6q-9 -7 -17 -22q-1 0 -10 9q-5 -4 -16 -11q18 -9 18 -20q-11 -2 -22.5 -5t-16.5 -14q0 4 -3 13t-3 14q0 8 10 17q9 6 17 12q-1 0 -20 30q-2 -2 -4 -7 q5 -13 5 -20q-11 1 -31 7q9 1 19.5 14t18.5 13q4 0 9 -3l4 15q-4 2 -9 2q-8 0 -13 -7v13q0 21 8 31v488q-4 4 -13 4q0 11 8 20q-6 11 -21 28q-12 8 -24 17q-17 12 -23 12q-36 0 -62 -36q-23 -32 -23 -70q0 -102 12 -124q-13 -6 -13 -28q0 -8 2 -22.5t2 -21.5q0 -14 1 -43 v-43q0 -35 -2 -60q-1 -6 -5 -17.5t-4 -19.5q0 -21 3 -61t3 -60q0 -8 -8 -19q2 -4 2 -9q0 -19 -12 -27q3 -6 11 -16q3 5 5 19q2 11 11 19q4 2 11 7l6 -5v-17h-3q-9 0 -14 -11q2 -4 7 -12q2 7 9 18q2 -2 9 -21q5 -15 10.5 -15t15 -2.5t13.5 -2.5q3 11 10 32h5q23 -1 28 5 q9 -7 20 -20v-5q1 -2 1 -4q0 -8 -8 -8q4 0 -8 4l-3 -2q9 -19 18 -27q-24 -15 -48 -15q-69 0 -86 27l-9 -9q-24 11 -24 25q0 6 3.5 13.5t3.5 10.5q0 6 -3 7q1 -1 2 -1q3 0 3 6q0 13 -14 17q4 7 5 12q4 -2 14 -4q3 3 3 4q0 21 -4 23q-8 2 -15 5l-1 -5q0 -8 6 -18l-11 9 q-15 -21 -32 -27q-4 6 -4 15q0 10 5 15q-4 6 -9 18q7 7 7 18q0 23 -14 26q0 6 1 10q7 3 15 12l-5 6l25 23q-2 3 -7 3q-7 0 -15 -5v1q-1 6 4 10q-2 3 -10.5 12t-8.5 15q0 18 16 34q7 -4 19 -18l3 2q-1 1 -1 7.5t-26 24.5v2q0 1 1 4t1 4q0 7 -8 6h1q2 6 8 16q-5 8 -18 24 q2 0 6.5 -2t7.5 -2t3 2q0 1 -2 3l-3 3q1 1 4 1q12 0 16 19l-11 -14h-16v9q-1 10 9 13v1q0 3 4 7q-5 2 -12 8q-2 7 0 19q-4 17 -15 50q6 9 23 23q-6 12 -21 14h9q4 12 4 27q0 10 -2.5 29.5t-2.5 28.5q0 21 9 32l-3 5l9 18v9q-1 21 8 55q11 4 27 18v4q-2 31 44 48q35 14 72 13 l12 -13q8 7 8 13q26 -4 77 -15l37 -28q22 -19 29 -35q20 -50 20 -128q0 -9 2 -25.5t2 -24.5q0 -9 -1 -27t-1 -27q0 -18 1 -54.5t1 -55.5zM234 75l-5 -4l-7 7l5 4zM200 76q0 -19 -11 -31v4q0 6 -4 10q-3 -5 -11 -13q1 1 8 18q5 11 18 12zM79 48l-4 -4l-11 11l4 5zM360 706 q-12 6 -16 20q-11 -22 -11 -25v-1q14 -8 18 -19q2 10 9 25zM361 645v17h-7v-17h7zM220 784l-7 7l-4 -5l6 -7zM350 614l-5 21q-6 -7 -17 -21h22zM355 541q-5 11 -16 22q-7 -7 -14 -18q9 9 17 9q5 0 5 -5q0 -2 -1.5 -6.5t-1.5 -7.5q0 5 11 6zM360 514l-17 16q5 -11 5 -24 q1 8 12 8zM352 497l-6 2l-6 -11l6 -3zM360 472l-2 6l-11 -6v-6zM311 489l-7 7l-4 -5l6 -7zM321 483l-7 3l-6 -12l7 -3zM101 178l-11 12q-5 -4 -6 -13q1 1 17 1zM89 150l-6 13l-6 -2l5 -11h7zM101 137l-9 12h-6h-15q-2 -2 -2 -4t1 -6t2 -5q-1 6 11 6q3 0 9 -1.5t9 -1.5z M73 152v8h-12v-8h12zM179 27l-3 6l-11 -6v-6zM160 33q-3 7 -17 21q6 -11 6 -23q0 -5 -2 -8z" />
<glyph unicode="P" horiz-adv-x="438" d="M405 548q-4 -1 -8 -5v-7q1 -58 -26 -91q-65 -82 -120 -82q-12 0 -36.5 4.5t-37.5 4.5q-11 0 -22.5 -23.5t-11.5 -37.5q0 -5 3 -13t3 -13q0 -26 -1.5 -78.5t-1.5 -78.5q0 -68 9 -125q-53 -10 -87 -10q-33 0 -33 48q0 17 5 47.5t5 45.5q0 -8 0 42t1.5 152t1.5 152v125 q0 14 -8 13v131q0 20 15.5 44t35.5 24q5 0 14 -8q14 0 43.5 -2.5t44.5 -2.5q5 0 13.5 2t13.5 2q6 0 17.5 -6.5t17.5 -6.5q5 0 6 2.5t6 2.5q24 0 65 -31.5t49 -55.5q11 -36 11 -143q0 -10 13 -22zM293 628q0 10 -7 30t-8 29q-12 8 -23 19q-1 -14 -7 -14v3q0 14 -17 18l-27 4 q7 8 7 18q0 5 -1 11q-9 -1 -9 -4q0 3 8 -11q-10 -6 -45 -18q7 -7 7 -12l-1 -4q-13 0 -18 -2q-1 -3 -13 -21q-11 -14 -11 -19q0 -6 6 -14.5t6 -11.5q0 -2 -1 -3q-14 1 -15 -13q10 -3 10 -15q1 -17 2 -19q-2 -4 -6 -13q2 -26 5 -53q7 -34 26 -42q37 -14 55 -14q3 5 35 30 q28 22 30 47q1 13 7 47q5 30 5 47z" />
<glyph unicode="Q" horiz-adv-x="457" d="M183 39q-6 -5 -6 -16l-16 10q5 7 5 11q6 -2 17 -5zM443 53q0 -16 -8 -32q-10 -20 -24 -20q-8 0 -39 11.5t-39 16.5q-1 1 -5 6t-10 5t-36 -21.5t-36 -21.5q-4 0 -4 2q2 2 2 4t-5 3q-10 0 -31 -6.5t-31 -6.5q-6 0 -23 13t-19 13q-4 0 -5 -2.5t-5 -2.5q-17 0 -27 31l-3 -9 q-42 34 -51 102q-1 15 -1 120q0 15 7 32q-4 6 -4 16q0 9 3 18q-4 4 -13 3v111l7 9q3 81 3 106q0 39 -3 67q2 7 2 17q0 77 47 122t124 45q126 0 162 -130q10 -36 9 -61l-26 -436q-1 -19 10 -47q5 -14 29 -23q32 -12 37 -16l3.5 -18t2.5 -20zM110 551l-6 7l-4 -5l6 -6z M336 295l-6 7l-5 -5l6 -6zM322 216q-14 5 -39 18v12l13 10q-6 0 -12 9q0 3 -3 41q-2 25 0 41q0 1 -3.5 1.5t-3.5 6.5t2.5 8.5t3.5 4.5q-1 19 2 58q-17 0 -17 10q3 2 6 2q4 0 11 -7q-4 26 -4 55q0 20 2 38q0 5 3.5 17t3.5 18q0 8 -5 24t-5 25l1 5q4 -1 13 -3l-27 57 q-20 37 -46 37q-46 0 -68 -18q-10 -45 -19 -66v-56q0 -8 3.5 -22.5t3.5 -22.5q0 -22 -5 -65t-5 -64q0 -73 -1 -78l9 3q-12 -13 -12 -22q0 -8 15 -17l1 -5q-14 -4 -15 -14q1 9 1 -22q0 -12 -7 -21q-3 13 -12 22l-11 -10q2 -19 18 -36q-2 -1 -5 -1q-4 0 -10.5 3.5t-10.5 3.5 q0 -3 1.5 -8t1.5 -8q0 -2 -1 -5q-9 9 -9 11q0 -7 -11 -18q5 -6 15 -19q3 2 8 5l3 -3l-7 -7q-5 1 -9 5l-5 -21q7 -3 17 -16l-8 -10q5 2 16 9.5t14 7.5h1q14 -11 38 -37q-4 -7 -13 -19q4 0 12 -5l-1 5q0 4 4 8q4 -9 14 -13l20 -8v-1q-1 -2 10 -13q-1 2 -2 7q1 2 6 2 q-3 0 5 -11q4 -5 14 -5q-4 -4 -3 -9v-1q2 2 4 2t5.5 -1t5.5 -1q13 14 14 21l-6 -1q-3 0 -7 3q23 16 33 16q5 0 4 -3v-3q13 -7 19 -7l4 21q-6 0 -15 9q0 -5 -4 -9q-3 3 -3 5l1 6q6 5 13 14q-17 9 -17 16l13 10q-10 1 -10 5t5 10q3 -4 12 -9q4 7 12 13q4 -5 4 -17l7 25 q-14 0 -14 9q-5 -10 -14 -17l-7 7q2 26 12 76h11q6 -7 15 -22q0 13 6 19zM293 161l-7 6l-4 -4l6 -6zM335 115l-17 5v-6l15 -6zM310 104l-7 7l-4 -4l6 -7zM100 317q-3 0 -9.5 -5t-9.5 -5q2 0 2 -3t-1 -7q1 -2 1 -7q0 -4 -3 -7h-5q-6 1 -9 -3q18 0 24 -14v5q-1 4 -1 6 q0 5 5.5 19t5.5 21zM114 258l-20 10l-2 -7l19 -10zM271 67l-15 10l-5 -6l16 -10zM79 210l-11 5l-2 -6l11 -5zM105 167l-17 5v-6l15 -6zM137 111l-6 12l-6 -2l5 -10h7zM341 177q-2 -6 -4 -17q-3 4 -6 14h2h1q7 0 7 3zM336 128h-6l-5 10l6 3zM322 77q-6 -6 -6 -13l1 -5 q-2 0 -25 23l15 3q8 0 15 -8z" />
<glyph unicode="R" horiz-adv-x="440" d="M415 54q0 -25 -17.5 -38.5t-36.5 -13.5q-6 0 -18 8q-4 2 -10 0q-8 -3 -13 -3q-12 0 -23 17q-8 13 -9 21q2 1 4 3t2 8q0 12 -14 60l10 14l-7 6q-1 -1 -4 -6.5t-6 -5.5q8 22 8 44q0 1 -12.5 37t-16.5 54q-9 50 -16 68q-16 42 -45 42q-5 0 -17 -4t-19 -4q-1 -1 2 -11 q-8 -8 -11 -22q5 -20 5 -30q0 -8 -4 -15t-4 -15q0 -50 10 -122q1 -6 0 -18q-2 -16 -2 -22q0 -26 18 -40q0 -5 -8 -15q-4 -22 1 -29q-2 -10 -18.5 -21.5t-30.5 -11.5q-28 0 -51 15q-5 3 -11 30q-3 5 -9 14q3 6 7 17q-2 22 -6 141q-2 3 -6 6q8 17 8 34q0 43 -2 132.5t-2 135.5 q0 54 -3 103q-1 31 -4 95q-7 11 -7 15q0 65 43 65q5 0 11 -2t11 -2q4 0 10 6.5t11 6.5t35.5 -6.5t35.5 -6.5t14.5 6.5t16.5 6.5q6 0 9.5 -6l3.5 -6q15 0 39 -3q13 -6 39 -13q15 -19 36 -35q7 -18 38 -70q-4 4 -7 0q-5 -31 -4 -41q1 -3 6 -9q2 -59 -5 -118q-3 -27 -43 -99 q-4 -1 -11 -9q1 -15 36 -124q-1 -14 4 -36q7 -31 8 -41zM299 518q-16 16 -16 40q0 14 5 38q-7 12 -6 16q11 6 6 19l-16 36q-13 26 -27 26q-6 0 -5 -2.5t-4 -2.5t-6.5 6.5t-17.5 6.5q-24 0 -59 -14q-17 -8 -26 -41q-5 -21 -5 -78q0 -35 14 -77l18 -25q30 -11 54 -11 q21 0 46 20q6 5 45 43zM317 137v11h-7v-11h7zM300 134l-6 2l-6 -11l7 -2z" />
<glyph unicode="S" horiz-adv-x="416" d="M380 618q-15 -14 -24 -17q-5 -2 -24 -2q-5 0 -21.5 2t-23 2t-8 3.5t-3.5 7.5q2 27 -15 58q-20 37 -50 37q-34 0 -54 -32q-16 -27 -13 -54q0 -4 -3 -15.5t-3 -17.5q0 -31 12 -49q12 -21 22 -31q2 -6 -7 -15q4 -3 17 -3q-3 -2 -13.5 -13.5t-16.5 -11.5t-10 2q-2 1 -4 -1 q0 -7 3 -10q2 0 54 26q0 -10 2 -13q4 5 4 9q27 -19 70 -58q55 -67 81 -108q4 -7 0 -17q4 -4 14 -17q-2 -16 2 -44l4 -33q0 -3 -4 -12.5t-4 -13.5q0 -6 6 -8q-13 -35 -18 -89q-8 -4 -19 -19q-14 -18 -20 -24q1 -2 6 -9q-12 0 -16 3q0 -1 -3 -9.5t-8.5 -8.5t-20.5 -1h-20 q-1 0 -7 -6t-12.5 -6t-37 -2t-36.5 -2q-27 0 -57 14q-17 8 -41 31q-45 42 -45 107q0 31 9.5 43t41.5 12q19 0 23 -2q13 -5 30 -17q5 -21 20 -57q20 -30 30 -30q5 0 13.5 -4.5t13.5 -4.5t10.5 4.5t11.5 4.5t9.5 -6.5t4.5 -6.5q7 5 7 10t-8 5q2 2 6 -2l22 35q13 23 13 39 q0 15 -10 25q8 8 11 14q-3 14 -4 47q-4 10 -17 30l-87 93l7 25q0 -8 4 -13q3 0 7 1q5 5 6.5 16t4.5 16l-4 3q-8 2 -21 9q0 2 7 6.5t11 8.5q0 -1 -11 19q-2 -2 -5 -4q-4 -5 -4 -7q0 -4 11 -4q-17 -8 -28 -2l-12 -12q4 -3 13 -3q-9 -10 -4 -15q-9 -2 -25 0q-85 40 -85 206 q0 27 3 42q5 9 12 31l16 13q-4 2 -13 9q1 0 5 5t10 5q12 0 12 3q-2 23 14 39q13 14 44.5 26t55.5 12q23 0 34 -2q-3 -7 7 -7q6 0 5 4.5t4 4.5t47 -25.5t50 -34.5q7 -13 13 -26q13 -24 24 -25v-86zM90 715l-12 11q0 -10 -10 -20q2 0 11 4.5t11 4.5z" />
<glyph unicode="T" horiz-adv-x="391" d="M370 736q0 -56 -34 -56q-5 0 -23 4t-22 4q-16 0 -27 -9q-3 -2 -26 -28q-1 -3 1 -9.5t2 -8.5q-9 -2 -23 12q-7 -12 3 -18q1 -6 1 -15q-11 -4 -11 -7l7 -7q8 8 14 8q0 -3 -21 -24q-1 -2 3 -6q12 0 12 11q0 -2 5.5 -8.5t6.5 -8.5q1 -8 -2 -27t-3 -29l11 -17q1 -10 1 -43 v-139q0 -6 -4 -17.5t-4 -16.5t4.5 -16t4.5 -15t-4 -13q4 -7 4 -30q1 -30 2 -35q1 -3 -2.5 -15t-3.5 -19q0 -4 4 -13t5 -12q3 -25 3 -44q0 -71 -37 -71q-5 0 -30 -2t-30 -2q-18 0 -28 21q-9 17 -9 37l31 559q0 49 -12 54q-32 15 -34 15q-5 0 -30 -4.5t-30 -4.5q-32 0 -32 65 q0 20 8 41q10 28 28 28q6 0 13.5 -2.5t12.5 -2.5t15.5 -3.5t14.5 -3.5q46 0 56 1q2 -5 9 -15q9 5 25 11q12 -4 33 -4q24 0 60 5t35 5q30 0 40 -18q7 -13 7 -42zM231 745v21q-9 -10 -33 -10zM219 735q-1 0 -17 -15q3 0 7 -6.5t5 -7.5q0 4 2.5 14.5t2.5 14.5zM202 708v8h-25 v-8h25zM184 752q-5 -4 -13 -9.5t-10 -6.5l-10 8q11 -20 15 -30q1 5 18 38zM191 689v16h-8v-16h8zM204 611v16h-8v-16h8zM203 248l-3 6l-19 -9v-7z" />
<glyph unicode="U" horiz-adv-x="456" d="M258 43l-5 -11l-7 2l6 12zM406 354q-17 -7 -17 -37q0 -10 5.5 -29t5.5 -24q0 -2 -4 -11t-4 -12q2 -8 2 -20q0 -16 -4.5 -46.5t-4.5 -45.5q0 -3 1 -7.5t1 -6.5v-2q-8 -23 -27 -62q-13 -21 -40 -39q-30 -20 -52 -20q-5 0 -6 2.5t-5 2.5q-6 0 -17.5 -9t-17.5 -9h-40 q-6 0 -13 11t-11 11q-5 0 -5 -1v-1q0 -2 -4 -2q-14 0 -40 27q-33 35 -36 37q-2 13 -15 47q-8 25 -8 54q0 7 -13 7v393q0 7 3 7.5t4 2.5q-1 9 -1 22q0 69 4 194q10 19 49 19q36 0 53 -14q1 -15 15 -40q0 -6 -17 -15v-15v-18q0 -13 2 -27h-2q-5 0 -5 -8q0 -13 2.5 -38.5 t3.5 -37.5q3 -4 7 -14q-8 -14 -8 -37q0 -13 7 -35t7 -33q0 -3 -8 -173q-1 -44 -5 -132l-3 -5.5t-3 -11.5t3 -6.5t3 -2.5q-1 -5 -1 -11q0 -26 17 -36q0 -2 -13 -14q1 -6 7 -16q12 5 36 18q0 -2 -4 -10q-2 -5 0 -11q-9 2 -13 2t-8 -1q8 -8 22 -12t24 -17q13 13 12 22 q4 -2 9 -2q7 0 16 5l-8 2v16l12 5l-3 -12l2 -5q9 7 28 18q-4 7 -8 9l-12 -9q-5 7 -5 10q38 30 38 87q0 1 -7 78q-5 52 -12 157v5q0 13 1.5 36t1.5 34q0 1 -3 3t-3 8q0 2 4.5 3.5t4.5 6.5q0 9 -5 26t-5 26q0 50 19 81q-7 7 -13 8v106q0 5 8 19.5t12 15.5q33 8 55 8 q19 0 33 -19q0 -4 5 -160q0 -29 8 -118l1 -2q0 -4 -3.5 -11t-3.5 -11v-2l12 -18v-108zM331 541v8h-12v-8h12zM134 129l-11 6l-3 -6l12 -6z" />
<glyph unicode="V" horiz-adv-x="411" d="M391 782q0 -7 -2 -7q-5 -2 -6 -3l-2 -52q-4 -34 -21 -49q0 -6 13 -6q-1 -5 -19 -67q1 -2 3 -9q-5 -24 -11 -70q-6 -103 -33 -229q2 -9 2 -27q-6 -4 -16 -12l26 -26q-6 -6 -22 -6v-25q-1 -19 -1 -26q0 -2 -5 -9.5t-6 -13.5q-1 -14 0 -40q3 -35 3 -45q0 -33 -10 -55 q-13 -11 -29 -11q-5 0 -7.5 4.5t-7.5 4.5q-6 0 -20 -4.5t-20 -4.5q-5 0 -17 11q-16 15 -20 17q7 12 3 31q-1 2 -6 9q1 37 -27 127q-6 21 -26 119q-13 65 -55 329q-3 18 -19 77q-15 53 -15 59q0 22 31 28q6 1 39 1q24 0 42 -15q10 -38 25 -115q-3 -5 -3 -14q0 -11 6 -30 l8 -23q4 -25 9 -51q10 -29 43 -29q17 0 25.5 15t14.5 54q8 32 19 96q-1 29 -1 58q1 44 12 52q15 10 66 10q11 0 24 -7.5t13 -20.5zM322 199l-5 -12l-6 3l5 11zM356 630l-2 6l-10 -5v-6zM225 73l-3 6l-10 -5v-7zM217 17l-5 5l-11 -11l5 -5z" />
<glyph unicode="W" horiz-adv-x="593" d="M569 764q0 -15 -4 -47.5t-4 -49.5q-5 -22 -20 -65q4 -11 4 -12v-2q-6 -7 -20 -18v-33q6 -4 16 -14q-1 -4 -1 -9t1.5 -14.5t1.5 -13.5q0 -8 -7 -92q-3 -50 -12 -148q-2 -11 -21 -22q13 -13 13 -37q0 -10 -4 -28q-5 -22 -6 -27q-2 -11 -4 -62q-1 -39 -10 -61 q-24 -15 -37 -15q-5 0 -14.5 2t-14.5 2t-8.5 -4.5t-8.5 -4.5q-14 0 -33 19v55q8 7 16 15q0 -1 0 23q0 5 13 32q-1 8 10 29q-13 6 -21 21q-6 0 -6 -9q-10 13 -16 13q-7 0 -19 -4.5t-19 -4.5q-5 0 -11 6.5t-11 6.5q-7 0 -24 -15t-19 -22q-3 -10 -3 -39q0 -1 -13 -14 q0 -7 13 -7q-8 -26 -18 -100q-18 0 -19 1q-8 -4 -33 -6.5t-34 -1.5q-16 3 -22 40q-7 47 -18 61q2 8 2 19q0 31 -16.5 86.5t-16.5 68.5q0 21 10 38q6 4 16 13q1 10 -6 10q-4 0 -11 -2t-9 -2l-88 441q8 28 43 28q37 0 47 -14q15 -66 15 -89q0 -1 -17 -26q1 -6 2.5 -13t8.5 -7 q3 0 7.5 2t6.5 2q0 -1 2.5 -4t2.5 -9q0 -12 -17 -28q7 -7 17 -7q0 -3 -13 -15q1 -6 7 -15q4 3 8 11q0 -21 11 -39q12 -21 31 -21q15 0 25 17q3 9 12 27q21 22 45 32t50 19q-1 3 -7 8t-6 11q0 14 26 29q-1 2 -1.5 4.5t-7.5 2.5q-5 0 -8 -2.5t-4 -2.5l-2 4q3 5 6 8 q1 14 -16 14q-5 1 -5 -1q1 0 1 -1q-1 -2 -5 -2q-6 0 -13.5 6t-8.5 12q-6 -9 -17 -27q-6 7 -6 19q0 3 4 13.5t5 14.5q0 16 2 47q5 0 7 5q-1 5 -5 10q13 0 28 14q4 -9 44 -9q5 0 6.5 4.5t6.5 4.5q9 0 28 -18q0 -52 -22 -51q0 -10 12 -10q5 0 10 4q-2 -4 -26 -28q7 -7 19 -7 q4 6 12 13q-6 -12 -18 -23q10 -7 19 -14t9 -19v-2l-5 -31q6 -2 15 -8q2 -18 21 -46q21 -32 36 -32q6 0 7.5 4t2.5 4v-23q8 -7 11 -7q2 1 2 4q0 4 -7 18l11 -9q6 0 6 13q4 -5 11 -13l11 11q-3 4 -8 12q0 2 6 5.5t6 9.5q0 10 -9 17t-9 11q0 5 3 15t3 15h6q7 0 15 3q-1 6 -7 15 q-8 -8 -15 -8v32q0 8 7 19q-1 9 -1 20q0 14 2 42t2 42t18 26l4 -1q7 0 19.5 2t18.5 2q10 0 16 -17q6 -13 6 -25zM517 613l-3 6l-10 -6v-6zM527 585l-10 16l-7 -4l11 -16zM521 541l-22 5l11 -12q4 4 11 7zM265 743v7h-16v-7h16zM505 494q-4 -7 -15 -20q5 0 12 -6q5 11 5 20 q0 3 -2 6zM309 618q0 3 1 9t1 9t-2 7q-5 -2 -16 -4q0 -14 16 -21zM452 476l-11 11l-5 -5l11 -11zM482 366l-6 6l-5 -4l7 -6zM499 273h-7q-4 -1 -6 -1q-5 0 -8 3q0 -11 6 -18q0 2 15 16zM460 266l-4 6l-15 -10l4 -6zM474 251l-6 2l-6 -11l6 -3zM470 176l-7 3l-5 -12l6 -2z M165 460q-1 4 -6 12q-7 -9 -13 -9q-4 0 -12 4q0 16 -6 23q-2 -15 -11 -19q8 -8 19 -25q14 14 29 14zM477 112l-2 6l-11 -5v-6zM448 128l-7 2l-5 -11l6 -3zM478 76l-7 7l-4 -5l6 -6zM439 115l-6 2l-6 -11l6 -3zM438 80l-6 7l-5 -4l7 -7zM156 342q0 4 -6 12q-1 -1 -4 -8.5 t-5 -7.5h6q6 0 9 4zM409 62q-3 0 -5 5.5t-4 5.5t-3.5 -7.5t-2.5 -8.5q4 2 15 5zM132 282l-7 2l-5 -11l6 -3zM162 201v20h-7v-20h7zM166 197l-4 4l-15 -15l4 -4zM209 127q-5 5 -5 15h-21q15 -15 26 -15zM169 140q-10 19 -5 29q-11 -12 -11 -29h16z" />
<glyph unicode="X" horiz-adv-x="466" d="M438 770q-26 -34 -50 -91l-34.5 -91.5t-38.5 -115.5t-21 -78q0 4 37 -124q1 -1 10 -21q6 -12 18 -17q0 -11 -8 -19q4 -4 11 -12q11 -35 41 -116q26 -68 26 -72q0 -10 -13 -17t-20 -7q-5 0 -8.5 4.5t-8.5 4.5q-6 0 -3.5 -4.5t-3.5 -4.5q-5 0 -19 2t-19 2t-15.5 9t-15.5 9 q0 2 4 7.5t4 11.5q0 3 -11.5 46.5t-15.5 65.5q-8 2 -10 9q-4 11 -5 13q-8 8 -25 8q-15 0 -32 -12q-20 -15 -28 -39q0 -7 -2 -22q-10 -26 -27 -83q-2 -2 -20 -15q-11 -8 -17 -8q-38 0 -58 5q0 2 -2.5 9t-2.5 12q0 14 23 55q-1 2 -3 9l22 35q-5 13 9 26q-2 11 -2 29 q10 37 41 132q27 81 27 86q0 20 -27 91q-12 16 -28 48q-2 22 -12 65q-32 70 -76 185q7 8 23 17q39 6 38 6q13 0 39 -11q30 -13 33 -26q11 -57 10 -70v-30q19 -25 55 -68q15 7 17 20q14 -2 36 34l8 8q-3 2 -3 6v44q9 7 25 53q12 35 43 35q48 0 65 -4h6q7 -9 14 -24zM261 318 l-7 2l-5 -11l6 -3zM303 206l-2 6l-11 -5v-6zM181 197l-2 7l-15 -6v-6zM160 151l-4 4l-11 -10l4 -5z" />
<glyph unicode="Y" horiz-adv-x="412" d="M394 756q0 -3 -25 -88q-27 -92 -34 -127q-1 -1 -6 -5q-9 -59 -38 -193q-8 -15 -19 -44q-1 -20 -3 -57q-7 -83 -7 -70q0 -26 6 -78.5t6 -79.5q0 -6 -8 -15t-15 -9q-5 0 -30.5 2t-30.5 2q-17 0 -22 54l-4 76q5 13 5.5 25.5t1.5 18.5q0 32 -4 91q-5 9 -17 18q6 21 -1 44 q-5 2 -13 8q-2 26 -5.5 52t-20.5 31q0 5 -2.5 22.5t-2.5 29.5q-5 -4 -9 -4q-3 39 -44 173q-40 131 -40 134q0 7 6.5 14.5t13.5 7.5q9 0 17 -9q3 3 3 13q23 0 64 -11q20 -11 20 -40q0 -7 -3 -13q3 -4 12 -17q-2 -7 0 -16l10 -10q4 -27 -3 -52q8 -4 25 -20q14 -14 19 -14h33 q-1 6 -1 21q4 4 15 17q2 24 5 48q4 29 19 36q0 1 -8 12q3 7 4 35q1 12 20.5 24.5t33.5 11.5q1 0 8.5 3t13.5 3q30 0 42.5 -12t12.5 -43zM307 653l-5 18l-6 -3l5 -15h6zM229 346v12h-8v-12h8zM229 115l-7 3l-5 -12l6 -2zM229 79v16h-8v-16h8zM237 63l-6 2l-6 -11l7 -3z M227 46q-4 0 -11 -1.5t-13 -1.5q-13 0 -13 15q0 -2 1.5 -10t1.5 -14h20q5 4 14 12zM189 45l-6 2l-6 -11l6 -2z" />
<glyph unicode="Z" horiz-adv-x="410" d="M389 62q0 -1 -20 -55q-2 0 -9.5 -2.5t-13.5 -2.5h-15q-7 0 -18 21q-2 -2 -4 -8.5t-4 -8.5q-8 4 -26 4q-5 0 -17 -6.5t-17 -6.5q-6 0 -8 4.5t-7 4.5q-6 0 -15.5 -4.5t-14.5 -4.5l-16 5q-6 0 -10.5 -4.5l-4.5 -4.5l-10 9q-9 -9 -13 -9q-6 0 -7 2.5t-2 2.5q-13 -1 -73 -1 q-7 3 -13 8q-12 9 -12 21q1 1 2 7q-5 -1 -5 9q0 5 12 42q15 47 19 62q21 77 39 129l88 254q15 47 15 73l15 28.5t7 29.5q-77 13 -94 13q-5 0 -26 -3t-26 -3q-40 0 -51 19q-7 11 -7 47q0 49 26 62q15 7 71 7q44 0 47 1q43 -10 82 -10q9 0 45 2q28 2 45 1q5 -1 19 -14t14 -26 q0 -26 -17 -75q-22 -61 -23 -66t-18 -34q1 -5 0 -19q-3 -2 -10 -8q4 -37 -17 -48q-1 -20 -7 -56q-13 -38 -66 -176l-13 -56q-4 -11 -19 -48q-12 -31 -12 -37q0 -9 23 -33q13 13 20 13q5 0 17 -6.5t17 -6.5t20.5 6.5t20.5 6.5q7 0 26 -21q26 17 36 17q8 0 21.5 -19.5 t13.5 -27.5zM311 675v8h-12v-8h12zM319 70q-8 -9 -22 -8q-23 2 -16 3q12 -12 17 -12q16 0 21 17zM272 44q-10 -1 -25 -6q7 -1 19 -6q4 4 6 12zM205 32v12h-7v-12h7zM171 45l-6 13l-6 -3l6 -10h6zM127 83l-15 10l-4 -5l16 -11z" />
<glyph unicode="a" horiz-adv-x="491" d="M138 152l-17 -5v7l15 5zM60 105l-12 -5v6l10 5zM71 94q-3 1 -4 -9t-7 -10q-13 0 -12 1q5 6 10.5 12t12.5 6zM90 35q-6 -15 -28 -25q-8 10 -28 28q2 4 8.5 9t8.5 8l-7 7q-3 0 -8 -2t-9 -2q-2 0 -6 2q10 4 25 11q3 -6 44 -36zM475 52q-3 -5 -4 -44l-1 -5q-17 -10 -32 -10 q-5 0 -6.5 4.5t-6.5 4.5q-4 0 -5 -2.5t-5 -2.5t-3 7q-1 2 -4 2q-4 0 -4 -6q0 -2 -5 -3q-24 0 -35 19q-2 3 -16 77q-11 60 -35 60q-5 0 -6.5 -4.5t-6.5 -4.5q-4 0 -8 6.5t-9 6.5t-5 -1l1 -1q0 -2 -5 -2q-4 0 -4 1t1.5 3t1.5 3l-3 2q-30 11 -39 25q-10 -13 -7 -29 q-7 -1 -12 -1q-10 0 -16 5q-3 -7 -10 -13q-2 6 -2 11q0 3 2 9t2 9q0 5 -7 11q-7 0 -19.5 1.5t-18.5 1.5q0 3 12 16l1 5q0 2 -3 5q-8 -8 -10 -8q0 6 8 14q-5 5 -10 5q-3 0 -6 -2q0 3 7 10q-5 3 -15 11q-4 -4 -3 -17q-7 5 -11 5q0 2 12 14q-4 7 -14 14q-13 9 -16 12q4 6 5 10 q4 0 11 -5l11 -7q2 4 7 11q0 5 -33 24h-1l7 10q-3 6 -3 15q0 26 17 33q-5 3 -15 11q-4 -4 -3 -13q-7 2 -12 7q11 4 30 17l-6 6q-4 -2 -5 -6q-4 7 -9 23q5 -4 14 -13q1 2 2 9q0 4 6 4t6.5 -2t1.5 -2q2 4 8 11l-7 6l-22 -13q-5 4 -10 13q11 0 15 -4l6 7l1 5q0 2 -3 5 q-5 -4 -10 -4q-2 11 -9 33q10 10 34 26v33q-4 4 -17 4q5 18 13 41q4 6 4 8q0 3 -3.5 6t-13.5 6q9 22 22 27q-13 13 -13 21q0 20 14 68q15 52 16 72q28 8 56 17q33 10 56 10q24 0 48 -102l121 -516q8 -37 15 -74q14 -57 28 -62zM109 487h-6l-6 10l7 2zM317 167h-8v15h8v-15z M265 171h-7l-5 10l6 3zM92 335h-8v12h8v-12zM156 262l-11 -11l-4 5l11 10zM105 242l-6 -12l-6 3l6 11zM46 182h-16v7h16v-7zM62 154l-11 -15l-5 4l10 15zM247 526l-4 4l-11 -10l4 -5zM130 604l-4 4l-11 -10l4 -5zM125 457q-9 9 -9 15q-7 0 -7 -16q1 1 16 1zM302 296 q0 38 -20 101q-25 76 -53 76q-35 0 -49 -81q-17 -96 -33 -112q8 -6 25 -21l-8 -9l19 -11l10 9q10 0 30.5 -4.5t31.5 -4.5q16 0 31.5 20t15.5 37zM129 341q-4 1 -11 6q-4 -7 -13 -19q4 3 24 13zM168 223q-9 9 -9 20h-17q9 -10 26 -20zM137 197q-4 8 -15.5 13.5l-22.5 10.5 q3 -3 13 -22l-7 -8h-11q1 3 1 5q0 5 -5 13.5t-6 12.5q0 2 0 -29q0 -9 -6 -19l-9 1q-6 0 -9 -3q9 -2 26 -9q-5 -2 -13 -8q4 -4 6 -11q7 7 12 7l4 -1q0 -6 -22 -26q11 1 22.5 3t18.5 9l10 -9q-2 6 -12 27q6 3 6 10q0 5 -3 15l-12 -5q-4 2 -8 7q1 0 9 7q5 4 10 4q11 0 10 -4 l-1 7q0 3 3 6q5 -5 11 -4z" />
<glyph unicode="b" horiz-adv-x="416" d="M384 594q0 -6 -4 -12q-7 -7 -8 -10q4 -7 4 -17t-4.5 -30t-4.5 -28q7 -4 17 -15q-2 0 -9 2t-9 2q-22 -54 -22 -70q0 -20 17.5 -51.5t18.5 -42.5q-5 -4 0 -119q-3 -19 -11 -62q-6 -29 -14.5 -53.5t-30.5 -49.5q-24 -28 -48 -35q-17 -6 -60 -6q-6 0 -47 4.5t-46 4.5 q-6 0 -7 -4.5t-7 -4.5h-44q-5 0 -30 14q0 12 3 35t3 33q0 99 3 147q0 10 -3 31q-5 28 -6 35q-1 4 2.5 16t3.5 15q-1 34 -2 102q6 154 0 217q0 9 -5 32.5t-5 28.5q0 6 4 8.5t4 3.5q1 5 1 13q0 6 -1.5 19t-1.5 19q0 25 18 43l161 -13q5 0 11 6q8 10 11 12q8 -10 27 -26 q14 -2 40 -12q43 -25 66 -79q1 -13 9 -38l-4 -47q0 -1 5 -6.5t5 -11.5zM287 589q0 27 -2 32q-6 20 -18 48q-8 13 -28.5 25.5t-33.5 12.5q-24 0 -37.5 -6.5t-27 -21.5t-13.5 -23q0 -4 3 -34.5t3 -45.5v-51q3 -34 19 -48t50 -14q6 0 24.5 7t25.5 7q14 7 22 39q5 21 9 42 q4 10 4 31zM308 192v34q1 6 -4.5 12l-5.5 6q-5 33 -17 93q-3 11 -39 23q-32 10 -46 10q-12 0 -32 -8q-23 -10 -27 -20q-3 -15 -12 -36q3 -8 3 -54q0 -25 -4 -33l-6 -5q0 -6 8.5 -11t9.5 -8l-12 -6q2 -6 -2 -23t-4 -20q0 -11 6 -6q6 -22 -1 -40q4 0 10 4l9 -9q10 2 23 8 q31 -31 33 -31q6 0 6 4.5t5 4.5q6 0 10 -3.5t5 -3.5q-7 7 1 7q5 0 11 -2t11 -2q7 0 10 4t5 6q27 46 35 73q3 14 1 31q3 7 10 1zM291 53q-11 0 -20 19q0 -19 9 -26q4 4 11 7zM173 79l-6 3l-6 -12l6 -2zM111 79l-7 3l-5 -12l6 -2zM123 28l-21 10l-2 -6l20 -10z" />
<glyph unicode="c" horiz-adv-x="398" d="M373 131q0 -6 -2 -12t-2 -7v-6q-9 -10 -39 -54q-22 -32 -40 -41q-39 -18 -102 -18q-5 0 -43 17.5t-46 22.5q-13 9 -25 35q-10 9 -23 26q-12 28 -13 68v83q0 2 1 13v17q-1 10 -5 17q-1 4 6 14l1 31q1 21 -1 34q-2 19 -12 29q8 2 12 -2q1 0 6.5 4.5t9.5 6.5q-1 0 -6 -4 q-1 -3 3 -11q1 0 5.5 5t8.5 7q0 14 -9 14q-10 0 -17 -3q5 4 -4 13q0 2 6.5 6t10.5 8q-4 4 -17 3q-2 17 2 40q-1 2 -5 8q-1 12 -1 24q1 14 13 25v24q-10 10 -13 8q8 12 8 19q0 5 -6.5 11.5t-6.5 14.5q0 32 14 82q8 27 31 51q40 42 77 44q9 -1 23 4q24 2 64 2q13 0 36.5 -18 t42.5 -23l34 -46q15 -21 15 -57q0 -19 -16.5 -30t-33.5 -11t-53 18q2 5 2 9q0 20 -32 41q-26 18 -38 18q-8 0 -13 -4l-8 8q-8 -8 -18 -24q-4 1 -13.5 -6.5t-13.5 -15.5q-9 -20 -9 -49q0 -3 7 -57q7 -57 8 -76q-2 -9 -1 -76q0 -9 -1 -39q-1 -28 0 -45q1 -24 5 -41 q-9 -26 -9 -63q0 -44 13 -99q30 -17 47 -17q18 0 27 5q26 15 26 39q0 4 -1 7q9 0 18.5 13t17.5 15q17 3 65 3q15 0 31 -32q1 -3 1 -20zM280 706v16h-8v-16h8zM105 440v8h-20v-8h20zM101 406q-3 0 -10 -7q-8 8 -15 8q0 -3 5 -11t5 -10q2 2 7.5 10t7.5 10zM71 378q-5 5 -19 5 q4 0 4 -10q5 5 15 5zM67 334l-11 6l-2 -7l11 -5zM77 263l-6 2l-6 -11l6 -3z" />
<glyph unicode="d" horiz-adv-x="425" d="M392 433q-1 3 -11 3q-18 0 -21 -17q1 6 1 -25q0 3 4 -6q3 -6 -1 -25q4 -12 12 -12v-238l-9 -2q-6 0 -5 -7q2 -10 2 -13q-18 -25 -61 -70q-26 -19 -33.5 -19t-65 -4.5t-62.5 -4.5t-11.5 4.5t-11.5 4.5q-6 0 -6 -3q3 -8 3 -6q-10 13 -16 13t-6 -2v0q0 -2 -6 -2t-4 5 q2 6 0 8l-8 -9h-38q0 5 -2.5 17.5t-2.5 17.5q0 4 7.5 39.5t8.5 52.5q-3 16 -2 49q8 30 8 24q0 7 -7 14q-2 6 -2 10q0 2 6 5t8 5v16q-16 16 -16 23q0 5 5 13q-6 20 -6 23q8 10 8 16q-2 11 -13 31v16q9 2 14 5q9 5 12 14q-8 3 -26 -4q9 9 35 19q-15 15 -44 35q7 19 36 30 q6 7 18 28q-1 2 1 4.5t2 8.5l-4 4q0 16 -16 43q-8 -9 -10 -9q-3 24 -22 27q-1 22 0 63q2 45 2 63q0 6 -6 23t-6 21q0 18 19 45l34 6q15 0 82 -22q2 2 5 8.5t5 9.5q0 -17 -3 -20q1 -1 1.5 -4t7.5 -3q16 0 42 18l9 -9q4 4 4 11q0 -6 6 -13t12 -7t6 2.5t5 2.5t10 -7t10 -7 q10 0 18 9q3 -8 15 -18l18 -14q0 -6 -9 -14q2 -3 3.5 -6t3.5 -6q12 6 18 18q0 -10 16 -46q-6 -5 -6 -12l15.5 -6t7.5 -9q0 -20 -17 -53q8 -20 9 -31q-10 -26 -8 -31q-6 -17 -4 -26q4 -10 9 -18q-7 -14 -7 -48q19 -10 31 -20zM308 736q-10 0 -10 10l-12 -11q20 0 22 1z M203 752v12h-8v-12h8zM196 745v8h-12v-8h12zM112 575q-5 11 -5 29q-2 -2 -16 -29h21zM63 622q-20 -10 -20 -22h15q5 5 5 22zM122 547l-2 6l-11 -5v-7zM72 585v8h-12v-8h12zM294 134q-1 0 -3.5 -2t-9.5 -2t-6 4q1 3 3 6q8 11 6 15q4 57 3 71q-15 185 -15 263q0 6 3 22t3 20 q0 89 -1 58q1 33 13 45q-7 0 -17 14q0 9 -2 22q-19 37 -36 37q-6 0 -12 -2.5t-10 -2.5q-13 0 -22 18l-46 -20q-5 -6 -13 -14q-10 -65 -10 -117q0 -25 10 -47q-1 -23 -2 -69q-1 -40 -1 -59q0 -16 1.5 -47t1.5 -46q0 -25 -7.5 -46l-7.5 -21q0 3 4 -4t2 -27q1 -2 6.5 -5.5 t5.5 -6.5l-7 -8q-5 0 -8 -5q2 -9 0 -18t-5 -9q12 -8 2 -28q9 -4 18 -12q-3 -3 -3 -16q7 7 22 17q5 -4 3 -6q-1 -1 -6.5 -4.5t-5.5 -6.5q4 0 8 -3q-14 -10 -40 -26q11 -11 20 -11q4 0 4 2l-1 2t-1 3q1 2 4 2h12q16 0 23 -9q-2 4 -2 7q0 8 12 8q-5 0 24 -5q3 8 8 8 q10 -14 29 -18l-13 23q4 2 9.5 10t10.5 7q8 -8 15 -8q-1 8 1.5 15t2.5 6q4 -4 10 -3q-5 3 -5 6t8 7q4 2 9 4q1 4 1 12zM336 164l-7 7l-4 -4l6 -7zM270 71l-11 16l-6 -4l10 -16zM207 58h-6l-5 -14l6 -3zM220 28l-16 11l-3 -6l15 -11zM90 97h-15q4 0 4 -11zM261 115l-6 -12 l-6 3l5 11zM205 94q0 -17 -3 -21q-13 8 -13 21h16z" />
<glyph unicode="e" horiz-adv-x="439" d="M213 16l-17 -1q0 13 7 13zM193 13q-6 0 -15 9q8 5 13 5q-2 -3 -2 -7q0 -7 4 -7zM426 49q-5 -3 -12 -11q-5 -27 -9 -35q-8 -19 -28 -19q-6 0 -18.5 6.5t-18.5 6.5q-5 0 -14 -9l-9 9q-10 -2 -22 -2q-13 0 -38 5.5t-37 5.5q-7 0 -5 -11q0 2 -9 11q-15 -13 -37 -13 q-3 0 -21 2q-13 1 -22 -1l1 2q0 6 -9 6q-5 0 -6 -4.5t-5 -4.5t-16.5 4.5t-22.5 4.5l-19 583q-1 46 -7 98q-6 60 -6 61q0 16 18 49q6 3 24 3q72 2 217 7q8 0 24 3t25 3q37 0 50 -19q10 -15 10 -55q0 -28 -10.5 -39.5t-37.5 -11.5q-30 0 -90 2.5t-90 2.5q-11 0 -24.5 -24.5 t-13.5 -35.5q0 -6 7 -9q3 -24 3 -84q0 -8 -5 -14q4 -13 4 -47q7 -8 11 -8t7.5 2.5t7.5 2.5q6 0 14 -7t13 -7q20 0 60 2.5t60 2.5q27 0 27 -47q0 -38 -4 -46q-7 -18 -37 -18q-12 0 -35.5 2t-35.5 2q-8 0 -36 -6.5t-32.5 -11.5t-12 -39t-7.5 -40l2 -5.5t2 -16.5q0 -17 -10 -56 v-2q0 -2 -1.5 -7.5t-1.5 -8.5q0 -6 7.5 -25.5t8.5 -27.5l-8 -5v-16l7 -3q1 1 1 4t-1 7t-1 6h16q4 -4 13 -40q5 3 5 9.5t2 8.5q1 0 3 -7q2 -10 3 -10l9 8v-5q0 -8 4 -12q5 1 15 6l-8 3v17q5 0 13 8.5t9 9.5q0 1 0 -21q0 -6 2 -10q4 4 8 16q30 9 36 24q3 -6 7 -12t11 -6 q5 0 12 4.5t9 5.5q23 8 63 8q15 0 24 -28t18 -31zM134 31l-6 7l-5 -4l7 -7z" />
<glyph unicode="f" horiz-adv-x="381" d="M363 758q0 -38 -19 -48q-11 -7 -55 -7q-9 0 -27 18h-1q-2 0 -16 -13q-6 5 -11 5q1 1 9.5 5.5t8.5 5.5t-3 2q-18 1 -50 5q4 5 9 18l-8 7q-7 -7 -7 -35q-3 5 -10 13q-1 -1 -6 -9.5t-12 -8.5q-5 0 -8 2.5t-4 2.5q-1 -8 -5 -22l-10 9q-3 0 -3.5 -4.5t-0.5 -7.5h-6 q-13 0 -13 -5q0 -2 4 -6q-1 1 -2 1q-4 0 -12 -8q0 4 0 -16q0 -2 2 -2q1 0 7 2q-8 -4 -22 -10q2 -2 2 -4v-1q0 -2 7 -2q3 0 7 1.5t6 1.5q-9 -8 -9 -14q0 -11 8.5 -31.5t8.5 -30.5t-8 -17q9 -7 9 -18q0 -5 -1.5 -13.5t-1.5 -12.5l22 -29q14 -18 30 -18q5 -1 5 1l-1 1q1 2 5 2 q6 0 6 -2l-1 -3l1 -4l8 9h7q10 0 29 -1.5t27 -1.5q5 0 12.5 3.5t12.5 3.5q7 0 12 -2q14 -18 14 -44l-4 -5q2 -5 2 -12q0 -4 -2 -14q-1 -10 0 -15q-27 -10 -29 -10q-5 0 -13 9q-2 -4 -8 -13h-2q-10 0 -23 9l-12 -9l-8 9q-8 -9 -24 -9q-13 1 -27 1h-2l-31 -33q0 -7 -5 -20 q1 -7 6 -23q-9 9 -27 9q0 -1 18 -10q0 -2 -13 -28l5 -2q3 1 7 4l1 -5q0 -7 -4 -10q4 -4 13 -4l-5 -25q-5 6 -14 13q-1 -1 -3 -2q0 -12 5.5 -15.5t12.5 -6.5l-9 -10q12 -16 7 -61q2 -17 12 -49q-3 -14 -3 -27q0 -7 5.5 -19t5.5 -18q0 -15 -24 -24q-18 -7 -36 -7q-5 0 -20 7.5 t-22 7.5q4 0 9 5q-14 15 -13 38v21q2 0 7 -2t7 -1q1 -7 3 -15t9 -8q16 0 22 6q1 0 1 9q0 2 -5 2q-6 0 -11 -3.5t-7 -3.5q0 9 9 23q-6 4 -18 11l-11 -9q-6 5 -11 6q9 25 9 45q0 59 -18 76q7 4 14 14q-2 5 -7 8q6 10 7 27q1 13 0 33q-1 25 -1 29q0 26 9 31q-3 3 -12 2 q0 45 1.5 136t1.5 136q0 56 -1 85q-1 9 -6.5 26.5t-5.5 26.5q0 42 56 42q20 0 41 -6.5t25 -6.5q18 0 54.5 2t54.5 2q10 0 30.5 6.5t31.5 6.5q49 0 49 -51zM271 754l-6 3l-6 -12l6 -2zM261 759l-16 8l-2 -7l15 -8zM250 739q0 12 -5 17q-4 -4 -11 -5zM233 730q0 12 -5 17 q-7 0 -7 -12q5 0 12 -5zM116 577l-7 2l-5 -11l6 -3zM253 426l-6 2l-6 -11l6 -3zM252 406l-2 6l-11 -5v-7zM88 539l-12 6l-2 -6l11 -6zM110 523l-11 11q-26 -3 -32 -17l-8 9q-1 -1 -1 -3q0 -1 19 -19q6 13 19 13q9 0 7 -11q0 11 7 17zM164 422l-7 7l-4 -4l6 -7zM75 450l-3 6 l-10 -5v-7zM136 396q-11 6 -20 23q0 -4 -11 -7q6 0 18 -13q-9 -8 -9 -18l1 -6q5 -4 16 -8zM115 365l-6 7l-5 -5l7 -6zM108 346q-7 10 -23 24q-4 -9 -15 -24q3 -2 7 -2q8 0 15 7q-5 0 -5 5l2 6q9 -17 8 -22q2 0 5 4t6 2zM70 379l-2 6l-11 -5v-7zM71 333l-6 2l-6 -11l7 -3z M96 279q-22 22 -22 28q-2 2 -4 2q-3 0 -9 -6v-21q5 0 17 -1.5t18 -1.5zM115 241l-3 7l-15 -5v-7zM83 263q-4 0 -9.5 5.5t-5.5 8.5q-1 -13 -5 -17q-7 4 -10 4q-1 0 -14 -7q5 -1 15 -9q7 -5 16 -5h4q-1 1 -7 4t-6 5q2 2 5 2q2 0 6 -1.5t6 -1.5q0 5 5 12zM98 198l-6 18l-6 -3 l5 -15h7zM96 121v7h-25v-7h25z" />
<glyph unicode="g" horiz-adv-x="383" d="M233 45l-5 -4l-6 6l4 5zM355 675q0 -3 -3 -12t-1 -15q-13 -3 -20 -3q-5 0 -8.5 3t-4.5 3q-6 0 -7 -4.5t-7 -4.5q-7 0 -20.5 5.5t-20.5 5.5q8 8 8 16q0 13 -15 15q-8 23 -11 25.5t-30 9.5q-5 5 -5 17q0 6 -11 8q-3 -2 -4 -7q2 -5 4 -15q-4 4 -14 4q-5 0 -15.5 -6.5 t-14.5 -8.5q-8 -2 -18.5 -22.5t-19.5 -22.5q4 -6 4 -15q0 -8 -4.5 -21t-5.5 -18q-15 4 -24 22q-5 0 -17 -12q3 4 3 8q0 5 -3 12l-13 -13l-13 13q-3 -6 -11 -12v47q11 0 17 7q-3 3 -8 4q9 15 7 32q1 2 6.5 6t5.5 9l9 -9q5 7 5 16q0 5 -2 10q4 2 34 32l-1 -5q0 -5 4 -9 q24 36 46 36q12 0 20 -9q3 5 9 13l26 -9q4 4 4 13l10 -8l5 4l9 -9q30 -6 65 -24q10 -16 10 -18q8 -3 19 -8q-2 -5 -2 -8q24 -46 24 -68zM121 584q-2 -2 -4 -9t-4 -7q-1 6 -5 11q8 4 13 5zM82 588l-4 -4l-7 6l5 5zM121 382q0 -41 -15 -71q-10 10 -10 12t3 4l-7 6 q-15 -5 -21 -17q-13 10 -19 26q-2 -3 -23 -13q0 6 -2.5 18.5t-2.5 18.5q0 15 3 45t3 44q5 2 14 8q-4 5 -4 11q0 10 13 18q5 -16 27 -35q10 4 10 17q0 6 -11 19t-11 19q0 10 15 24q11 -7 33 -14q-5 -36 -5 -107q0 -2 5 -14.5t5 -18.5zM355 419q0 -5 -4 -9l-4 -4q0 -1 1 -2 q5 2 5 6q0 -29 -6 -66q-1 -1 -4 -5v-2q0 -3 6 -7q-4 -14 -4 -27q0 -8 2 -12q-4 -6 -8 -6q0 6 -4 17q-8 -4 -20 -11q1 0 6 -10q3 -5 10 -5q6 0 7.5 1.5t2.5 1.5v-20q-2 0 -15 12q-12 -10 -12 -17q-8 0 -22 4l-12 -11q2 -1 6 -1t11.5 1.5t11.5 1.5q5 0 5 -1q-2 -3 -2 -4 q0 -3 1 -4q5 5 14 13q0 -9 13 -21h1q3 0 3 -3q0 -7 -6 -13q7 -7 12 -7v-33q0 -49 -14 -83q-12 -16 -32 -50q-9 -2 -26 -16q-22 -17 -25 -19q-17 -3 -47 -10q-3 18 -25 31h-5q-9 0 -17 8q-2 -5 -5 -16q-11 -1 -23 -15q0 19 -16 27q-2 -4 -7 -6t-5 -7q-2 0 -9.5 4.5t-9.5 1.5 l6 9q-8 24 -17 24q-6 0 -9 -2t-4 -2q-13 19 -36 60q4 2 13.5 8.5t15.5 6.5q4 0 12 -4.5t14 -4.5q20 0 26 13q5 -3 14 -17.5t9.5 -18t9.5 -5.5q2 -2 2 -6q0 -6 -3 -10l-9 9q-3 -3 -3 -5v-5q13 -4 38 -17l15 18v-3q0 -4 -4 -8q12 -5 33 -20l7 7q-5 2 -13 8v20q8 0 13 9 q2 -3 2 -9q0 -9 -7 -15q3 -1 6 -1q4 0 13 3q7 2 14 0q8 8 8 18q0 7 7 25.5t8 22.5q0 -8 5 -13q6 0 6 8h26q0 -1 -1.5 -3.5t-1.5 -4.5t4 -5l4 24q-5 3 -12 3q-9 0 -17 -4l-9 9q-4 -3 -4 -7v3.5v3.5q0 4 -2 7h7q11 0 25 -3q2 2 3.5 9t3.5 7q-1 1 -3 1q-5 0 -14 -3.5t-14 -3.5 l22 10l-7 7q-5 -4 -10 -4q0 11 6 17q4 -4 7 -4q2 0 5 2v5q0 3 -3 6q-4 -4 -12 -4h-3v21l9 -1q5 0 8 3q-1 2 -2 6q0 1 -6 1q-9 0 -11.5 4.5t-1.5 11.5q1 12 1 13q0 3 -1.5 3.5t-5 5t-3.5 7.5q0 1 1 2q7 5 7 17q0 9 -6 27.5t-6 27.5q0 4 8 11q-11 11 -16 11q-9 0 -8 -8 q-1 9 -24 14t-23 34q0 33 15 62q61 0 135 -10q0 -6 7 -11v-6q1 -7 -7 -27zM77 287q-6 -7 -6 -11q-5 5 -24 5q0 6 8 15q-7 6 -11 6q-7 0 -7 -1l2 -5q0 12 -6 18h5q6 0 10 -3q5 2 5 7q0 -3 17 -12q1 -7 7 -19zM103 159l-26 10l2 7l24 -10v-7zM83 144h-8v16h8v-16zM306 688 q-6 6 -6 14q0 -4 -11 -4q10 -10 17 -10zM235 738v7h-12v-7h12zM222 751v8h-16v-8h16zM187 771v16q-10 0 -15 6q-9 -10 -15 -10v-21q10 2 30 9zM145 769l-7 2l-5 -12l6 -2zM107 770q-21 -11 -21 -22q0 -6 3 -8t3 -3q0 3 15 33zM130 728q-3 2 -6 2q-4 0 -10.5 -2.5t-9.5 -2.5 q-1 -12 1 -34q17 15 17 22q0 1 -1.5 3.5t-1.5 3.5q0 2 1 3h1q4 0 9 5zM72 667v8h-16v-8h16zM311 409q-5 10 -16 21q-5 -3 -10 -12q1 0 3 1.5t8 1.5t9.5 -6t5.5 -6zM284 427v16q-3 0 -10 -2.5t-11 -2.5q0 -7 10 -16q4 0 11 5zM315 375q-10 10 -25 10q0 -5 5.5 -9t6.5 -5 q-4 -4 -3 -10v-1zM313 366q0 -2 -15 -17q4 -5 7 -11q4 9 8 28zM291 357l-7 4l-10 -16l6 -4zM282 259v16h-8v-16h8zM118 62l-7 7l-4 -4l6 -7z" />
<glyph unicode="h" horiz-adv-x="402" d="M377 312q0 -14 -15 -58q1 -3 1 -6l-1 -7l4 -5q7 -38 7 -131q0 -4 1 -19v-23q0 -74 -35 -74q-4 0 -10.5 2.5t-9.5 2.5q-5 -1 -4 -2q1 -3 1 -5t-4 -2q-5 0 -13.5 4.5t-13.5 4.5l-10 2h-7q0 23 -11 30q4 3 11 11q2 26 16 53h9q-6 22 -21 22q16 0 16 17q0 6 -8 17t-10 16 q15 0 27 8q-10 9 -12 6q-2 13 -2 9q0 5 5 12v47q-12 8 -13 37l-2 44q-3 13 -24.5 25.5t-36.5 12.5q-11 0 -32.5 -5t-30.5 -5q-7 -8 -19 -24q4 -11 4 -16v-2q-6 -2 -8 -8q2 -35 2 -48q0 -16 -4.5 -49t-4.5 -49q0 -17 2 -37q-6 -2 -16 -8l14 -14q-1 -1 -3 -6t-9 -5q-4 0 -9 4 q-6 -6 -6 -10l6 -7l3 8h26q-10 -13 -10 -24q0 -6 5 -18.5t5 -17.5q0 -33 -24 -33h-38q-6 0 -35 15v108q2 6 7 18v5q0 3 -1 10.5t-1 10.5q0 1 3.5 8t3.5 12q0 10 -12 16l23 -3q0 -1 8 7q-7 7 -14 7q-5 0 -8 -2t-4 -2q1 6 5 19q-4 3 -4 12q0 10 4 20v111q0 6 -9 9q6 12 6 24 q0 22 -4 66.5t-4 67.5q0 70 8 255q8 8 23 13q20 5 25 8l10 -9q5 2 12 4q6 0 15 -7t10 -12q3 -16 4 -36q0 -14 -1 -37q-1 -27 -1 -37q0 -6 1 -18.5t1 -18.5q0 -9 -3 -27t-3 -27q0 -3 7.5 -12t7.5 -15t-9 -21t-9 -21q0 -16 15.5 -34.5t31.5 -18.5q5 0 9 4t9 4q4 0 10.5 -4 t11.5 -4q55 0 55 58q0 7 -1 22v23q0 17 4.5 51.5t4.5 52.5q0 11 -3.5 34t-3.5 34q0 27 11 47q5 5 17 14q6 1 19 3.5t20 2.5q6 0 12.5 -4.5t8.5 -4.5l1 -112q3 -7 10 -20q8 -38 8 -59q0 -5 -7 -12.5t-7 -20.5q0 -6 1.5 -18t1.5 -18q0 -13 -7 -19v-56q0 -6 3.5 -20t3.5 -22 t2.5 -25.5t2.5 -26.5q0 -4 -3.5 -11.5t-3.5 -12.5q0 -3 6.5 -11t6.5 -14zM284 99l-5 -4l-6 6l5 5zM356 564v16h-8v-16h8zM345 585h-17q0 -13 12 -13q4 5 5 13zM354 537q0 9 -6 17q-10 -10 -10 -26q9 9 16 9zM334 554q4 3 4 6q0 4 -13 8q-5 -6 -5 -13q4 -7 11 -13q1 2 0 7 q-1 4 -1 6q0 1 1 1zM358 468v8h-12v-8h12zM331 486v8h-16v-8h16zM341 418q-8 10 -22 19l9 -9q-5 -5 -4 -10h17zM327 406v8h-12v-8h12zM331 214v8h-11v-8h11zM91 342q0 1 -4 8q-2 5 0 7q-6 -6 -17 -15h21zM331 118q0 5 -29 9v-21q5 -5 10 -14q0 10 6 31q8 0 13 -5zM84 188 l-7 7l-4 -5l6 -6zM67 199v12h-8v-12h8zM78 169q-14 1 -15 16q-11 -22 -11 -25l1 -1q8 5 25 10zM93 128v16h-7v-16h7zM78 77v6l-15 6l-3 -7z" />
<glyph unicode="i" horiz-adv-x="213" d="M58 723h-7l-5 11l6 2zM168 372q-7 -11 -22 -31q15 -23 15 -34l-13.5 -33t-13.5 -57q0 -25 13.5 -57t13.5 -33q0 -9 -14 -28t-16 -28h-5q-9 -1 -18 4q-3 -2 -3 -5t4 -7q1 3 -10 3q-9 0 -21 -12q1 -9 14 -22q-13 0 -23 -5q0 -8 16 -19q9 5 19 5q18 0 42 -21l-60 -15h-20 q-14 20 -14 45q0 11 4 32t4 32q0 14 -5 25q-4 2 -4 6t5 15.5t6 16.5q4 39 4 125q0 10 2 44q1 27 0 44q11 3 11 14q0 19 -11 39q3 6 3 15t-3 25t-3 25q0 16 9 26q-5 6 -18 17l10 23q-4 17 -4 18v1q13 7 13 28q-1 2 -3 4q-8 -8 -11 -8q3 13 3 22q0 13 -6 20.5t-6 12.5 q0 6 7 16t7 19q0 7 -2 19q6 16 6 15q0 9 -6 28.5t-12 22.5q10 28 16 33q9 10 33 10q13 0 20 -13q3 3 3 8q18 0 30 -8l13 8q0 -3 -12 -15q8 -9 8 -22q0 -8 -5 -19t-5 -17q0 -8 6 -18l-36 -9q8 -4 31 -3q0 -16 13 -43l-6 2q-5 -7 -16 -19v-52q4 -3 9 -4q0 -5 -2.5 -16.5 t-2.5 -17.5q0 -10 12 -11q-11 -41 -11 -86q0 -1 1.5 -6.5t1.5 -6.5q3 -11 3 -19q0 -7 -3 -12q3 -13 15 -36zM146 789l-2 6l-15 -5v-6zM138 676l-6 2l-6 -11l6 -3zM152 647v12h-8v-12h8zM151 150l-7 7l-4 -5l6 -7z" />
<glyph unicode="j" horiz-adv-x="410" d="M373 739l-22 -484q0 -7 -8 -25q4 -9 6 -27q-6 -21 -10 -84q-2 -42 -26 -69q1 -5 0 -9q-9 -12 -27 -26q-22 -16 -35 -16h-12.5h-10.5q-7 -6 -4 -8q4 -5 4 -10q-4 3 -18 0q-16 -4 -19 -4q-5 0 -9.5 6.5t-10.5 6.5t-12.5 -2t-12.5 -2q-36 0 -74 14q-50 19 -50 51 q0 16 25 47.5t45 31.5q12 0 40.5 -31.5t47.5 -31.5q5 0 4 4.5t5 4.5q5 0 4 -2.5t5 -2.5q5 0 4 4.5t5 4.5q15 0 15 8q0 2 -2 4q11 0 14 -3v362q0 5 4 44q5 45 6 60q-1 38 0 117q0 12 -1 34.5t-1 31.5q0 42 20 71q92 -8 95 -10q16 -7 16 -60zM279 102l-2 7l-11 -6v-6zM265 67 q-7 21 -22 21q0 -2 2.5 -10t2.5 -11h17zM246 60v8h-16v-8h16zM163 20l-6 2l-6 -12l6 -2z" />
<glyph unicode="k" d="M411 782q-9 -21 -112 -231q2 -7 -1 -14q-29 -46 -29 -86q0 -5 7 -17t8 -16q-2 9 -2 -28q0 -15 14 -15q-3 -6 -2 -16q2 -16 2 -17q0 -7 13 -7q0 -3 -9 -11q2 -13 4.5 -27t9.5 -14q13 0 13 -5q0 -4 -9 -11.5t-9 -14.5q0 -12 13 -6l-9 -11q0 -4 18 -12l-13 -14q5 -6 29 -61 q2 -4 8 -58q1 -12 14 -38t15 -39q-12 0 -4 -8q-42 -2 -59 7q-12 -11 -12 -7q-1 1 -1.5 4t-7.5 3q-5 0 -9.5 -4.5t-10.5 -4.5q-10 0 -5 20q-19 20 -19 47q0 18 9 41q-7 8 -11 8t-8 7.5t-8 11.5q5 9 18 23q-7 2 -21 9q0 10 -7.5 18.5l-14.5 16.5q-6 12 -19 33l-11 -9l-14 14 q-2 -3 -8.5 -7t-6.5 -5q1 -2 6 -4q-10 -5 -30 -40v-44q0 2 9 -40l-11 -14q-3 -27 4 -80q-2 -1 -16.5 -10t-21.5 -9h-27.5h-35.5q-10 23 -10 27q0 29 14 144q1 7 22 23l-4 37q-3 -4 -3 -14q-11 57 -11 73q0 54 13 56.5t13 30.5q0 15 -20 27q-3 17 -1 46q0 1 -2.5 3t-2.5 8 q0 12 5 60q2 17 12 22q-13 7 -13 35q1 47 1 45q-5 38 -5 95q0 62 8 79q10 23 47 23q69 0 69 -42q0 -19 -6 -45q-16 -68 -16 -66q0 -7 11.5 -26.5t16 -19.5t10 -4.5t10.5 -4.5q12 0 29 18q15 15 19 25q1 6 3 17q16 44 53 128q31 11 52 11q18 0 66 -19zM79 548l-2 7l-11 -6v-6 zM122 232v8h-16v-8h16zM80 210l-7 7l-4 -4l6 -7zM105 197q-21 10 -25 10q-10 -20 -15 -25h17q0 9 8 16q8 -8 15 -1zM124 51l-7 7l-4 -5l6 -6z" />
<glyph unicode="l" horiz-adv-x="377" d="M358 45q0 -18 -10.5 -33t-22.5 -15q-10 4 -14 4q-8 0 -12 -9q-7 5 -20.5 9.5t-19.5 8.5q-5 -3 -11 -7q-1 -1 -1 -14q-4 0 -18 8.5t-19 8.5t-14 -4.5t-15 -4.5q-5 0 -27.5 6.5t-27.5 6.5q-6 0 -2.5 -4.5t-1.5 -4.5t-18 4.5t-18 4.5q-4 0 -8.5 -6.5t-11.5 -6.5 q-5 0 -17.5 4.5t-16.5 4.5q0 23 2 69.5t2 65.5q4 -1 8 3q-4 3 -8 3v112q0 3 4.5 42.5t4.5 58.5q-2 9 -2 71q0 40 4 122q4 95 4 108q0 18 -1 52q0 15 4 57q2 20 -4 33q41 1 45 -3q9 9 22 9q5 0 22.5 -4.5t27.5 -4.5q14 -29 14 -33l-49 -648q2 -1 2.5 -6.5t6.5 -5.5t5 2t4 2 q12 0 25 -26q2 1 11 8q6 5 13 5q5 0 32.5 -4.5t33.5 -4.5q5 0 25 2.5t26 2.5h16q12 -1 16 -1q10 -29 10 -48zM220 44v7h-21v-7h21zM81 130l-6 13l-6 -3l6 -10h6zM89 103l-17 5v-6l14 -5z" />
<glyph unicode="m" horiz-adv-x="588" d="M546 458q-5 -32 -5 -75q0 5 -5 9q-1 -4 -6 -11q5 -2 13 -8q0 -3 -14 -15h-25q3 5 3 9q0 3 -6.5 10.5t-7.5 16.5q0 3 1 8v8q0 6 -2 11q4 2 12 9q0 -1 -18 17q13 6 27 14q0 2 -3 5q-10 -4 -24 -8q18 4 18 29q0 20 -9 30q4 0 11 -7q8 7 8 13q0 3 -3 7.5t-3 5.5q9 7 9 10 q-2 2 -5 2q-2 0 -6 -1t-6 -1q-4 5 -9 16q3 0 8.5 -2t8.5 -2t2 7q1 2 5 2q13 0 23 -6q0 -1 -12 -14q3 -4 12 -3q-4 -11 -4 -29q0 -34 12 -57zM469 328q-4 -6 -10 -6v11q0 8 -6 13q7 -4 16 -18zM547 636v-2q0 -7 -8.5 -18.5t-8.5 -19.5q0 -9 8 -19q-12 1 -11 1q-12 0 -24 -8h1 q1 0 4 3q-1 1 -13 10q-9 6 -15 6q-5 0 -9 -5l-9 9q-1 -5 -4 -15q3 -4 5 -11q-5 0 -10 4q-5 -5 -8.5 -15.5t-15.5 -17.5q2 -11 9 -30q-3 -5 -22 -14q1 -3 1 -8q0 -1 -2 -17q-1 -11 1 -16h-4q0 -8 9.5 -25.5t16.5 -24.5l-26 -14v-4q-1 -3 3 -6q3 2 6 8h17l-1 -5q0 -4 4 -7 q8 3 22 12v-16q-11 0 -16 -5q-12 -11 -13 -12q5 -4 13 -11q0 -10 -7 -17q-10 14 -25 18q0 1 -7 -7q8 -8 21 -13h-5q-4 0 -21 -3q-2 -7 -28 -21l-9 5q-1 -1 -1 -4q0 -2 1 -6.5t1 -6.5q0 -13 -10 -19t-20 -11q1 -6 18 -11q-5 -7 -11 -20q-12 -1 -24 -9q2 -3 5 -6l-7 5 q-2 -2 -4 -6q0 -7 4 -18q-1 1 -3 1q1 0 -8 -9q10 -5 22 -28q-19 -6 -19.5 -36.5t-14.5 -33.5q-2 5 -2 13q0 13 6 20v3v3q0 4 -7 4q-6 0 -7.5 -2t-2.5 -2l-2 4q2 3 5 6q-6 2 -17 9q1 2 12 13q7 7 7 15q0 5 -1 10q-6 0 -6 -13q0 4 -10 8l-7 3q2 3 2 7v9q-1 5 -1 8 q-5 0 -8 -4.5t-5 -4.5q0 3 8 11q0 7 -8 8l-4 -2q-1 22 -1 17q0 25 22 30l-3 18q-8 -17 -22 -17q-5 5 -14 5q0 9 1 28q-1 2 -8 4t-6 12q-6 0 -17 1.5t-16 1.5q-14 0 -30 -22t-16 -37l-4 12q-3 0 -11 8q-3 -2 -4 -6v-4.5v-6.5q-1 -5 -1 -7q0 11 -9 15q-4 -1 -5 -9l-2 -12h-3 q-15 0 -30 -5q-9 8 -22 28q-5 23 -5 204q0 61 -6 94q0 3 5 11.5t5 14.5q0 25 -8.5 75.5t-8.5 74.5q0 8 2 22t2 21q13 5 33 19q0 -5 6 -7t43 -2h22l34 -124q17 -42 46 -127q4 -12 28 -53q17 -29 19 -32q12 -14 33 -14q29 0 53 73l1 2q0 4 -5 10q5 4 25 54q8 15 23 46 q10 20 12 41q3 4 12.5 5.5t11.5 4.5q-9 3 -26 11q9 13 5 32q6 1 11 5q5 -6 20 -13v2q0 5 -4.5 15.5l-4.5 10.5v29q2 -1 5 -1q8 0 17 4q-1 5 -5 6q-3 6 -3 9v2q5 2 40 24q3 -5 9 -13l9 8q11 -5 30 -16q7 -1 7 -12q0 -13 -18 -31q4 -3 10 -13v-3q0 -6 3 -17t3 -16 q0 -25 -12 -43v-12q7 -6 22 -12zM565 78q0 -70 -26 -70h-33q-32 0 -43 15t-11 48q0 11 1 26q3 2 12 10q-1 6 -13 6q2 9 2 15q0 14 -7 15q0 15 17 32q-3 4 -8 4v15l17 18q0 9 -17 15v47q14 0 19 -4q3 1 3 5q-5 5 -17 4q0 9 -4 26l-12 -9q-4 5 -13 11q1 0 4.5 -1t6.5 -1 q1 0 7 6t23 6q0 -7 -9 -15q5 -9 20 -19q12 10 12 18q0 6 -5 10q10 8 30 22l-17 14h7q3 0 8 -1q0 -3 7 -11q1 7 7 18q-1 -3 -3 -10q2 -3 6 -3q6 0 8 1.5t3 1.5q0 -10 -7 -19q2 -11 12 -29q0 -7 -6.5 -14t-12.5 -7t-6.5 -4.5t-5.5 -4.5q-9 0 -9 -3v-2l8 -8q11 0 11 13 q20 -9 20 -38q0 -18 -5 -29q6 -14 10 -37q5 -32 7 -38q-4 -4 -4 -19v-20zM154 29q0 -17 -5 -30q-10 0 -30 -4.5t-30 -4.5q-19 0 -38 14q-6 55 -6 63q0 19 5 58t5 58.5t12 18.5q-3 3 -8 3q0 2 18 21q6 -5 11 -5q-7 -11 -17 -32q3 -4 14 -11q0 3 3 7t3 6l-1 3l-5 5 q16 -1 23 -12q2 7 12 15.5t12 12.5l-8 8t-4 7q0 4 6 5t6 4q0 1 -1 4t-1 5q1 -5 11 -33q9 -24 9 -30q0 -10 -18 -26q13 -7 13 -14q0 -5 -8 -13q6 -2 17 -9q-7 -5 -12 -16q-9 -17 -10 -18q22 -26 22 -60zM481 696v8l-25 4v-7zM462 646v16h-8v-16h8zM527 500l-7 7l-4 -5l6 -6z M418 600l-6 2l-6 -11l6 -3zM435 574l-6 2l-6 -11l7 -3zM417 527l-3 6l-10 -5v-6zM411 414q0 11 -6 17q-8 -16 -8 -24q0 7 14 7zM108 681v12h-8v-12h8zM396 393v11h-8v-11h8zM424 360v7h-11v-7h11zM520 239q-5 -5 -16 -9v-21q5 0 11 -5q7 13 7 26q0 5 -2 9zM501 218l-6 13 l-6 -3l5 -10h7zM359 308q-5 0 -12 -4q0 -4 4.5 -12t2.5 -14q5 16 5 30zM154 471q-3 7 -6 21q-5 -10 -10 -26q5 5 16 5zM490 137v8h-25v-8h25zM495 115q-10 5 -26 10q0 -2 15 -17q5 4 11 7zM329 274l-11 6l-2 -6l11 -6zM341 229v7h-20v-7h20zM194 377l-11 11q-5 -8 -15 -21 q16 0 26 10zM281 223q-4 10 -17 25q1 -8 8 -15q-6 -4 -12 -11zM145 353q-5 10 -16 26v-21q11 0 16 -5zM121 367v20h-8v-20h8z" />
<glyph unicode="n" horiz-adv-x="448" d="M409 781q0 -8 -2.5 -23.5t-2.5 -23.5l-10 -1q-4 0 -11.5 2t-10.5 2q-14 0 -17 -5v-17q0 -6 -3 -11.5t-3 -6.5q1 -3 3 -1q-22 7 -28 18q2 2 5 7l-2 3q-9 -6 -11.5 -9t-3.5 -13q-13 26 -13 46q0 33 14 43q11 8 45 8q29 0 51 -18zM395 724q0 -22 -11 -22t-11 -2q1 -3 3 -5 q-4 4 -15 3l5 22q4 -2 8 -2q10 0 21 6zM409 400q-9 6 -18 6q-6 0 -13 -2q18 -9 16 -14v-216q0 -18 7.5 -66t7.5 -69q0 -29 -11.5 -36.5t-41.5 -7.5q-16 0 -36.5 9.5t-26.5 22.5q-3 6 -15 67q-10 20 -22 62q-20 131 -88 131q-5 0 -15 -12q-6 -9 -12 -17q2 -4 2 -10 q0 -16 -10 -25l-20 -18q1 -1 4 -1q4 0 13 3.5t14 3.5v-186q0 -6 -10 -25q-10 -2 -30 -2q-41 0 -48 1q-27 7 -27 34l6 774l5 -4l4 3q3 -1 7 -1q8 0 23.5 3t22.5 3q-8 0 36 -6q30 -30 30 -58v-9q-1 -7 -1 -10q0 -16 5 -32q1 -3 6.5 -11t5.5 -14q0 -10 -7 -14.5l-15 -9.5 q2 -2 6 -2t13 2q9 -7 25 -51q15 -40 20 -40q6 0 8 2t3 2q0 -3 -9 -11q8 -8 21 -24q0 1 3 7q1 2 7 2q5 0 5 -1v-2q1 -1 4 -1q8 0 5 8q3 0 16 -13l20 30q8 46 8 60q0 7 -4 21.5t-4 22.5v2q6 3 13 12q-2 4 -2 8q0 9 10 16l-1 -2q0 -24 30 -24q2 0 7 1t7 1q3 0 8 -2l8 22 q21 -20 21 -29q0 -5 -3 -16t-3 -16q-10 3 -13 3q-4 0 -8 -2q2 -1 2.5 -6t6.5 -5q4 0 8 2t5 2q-1 -2 -1 -6q0 -3 1 -10.5t1 -11.5q0 -15 -10 -23v-157q5 -7 18 -18zM245 190q-7 -4 -12 -4q0 1 -1 5v6q0 5 2 10q11 -12 11 -17zM383 572q-5 2 -12 2t-15 -2l9 -5q-5 -5 -5 -7 q0 -1 3 -4q2 3 4 3q2 -1 3 -4l-12 -6v-1q0 -2 1 -7v-6q0 -3 -5 -10q-9 9 -9 11q0 -5 -5 -11.5t-5 -7.5q30 3 36 21t12 34zM336 526v16h-8v-16h8zM140 521l-12 6l-2 -7l11 -5zM378 155v15l-14 15q-5 0 -9.5 4t-6.5 4q0 -3 -5 -4q-3 0 -11 1q-6 0 -8 -1q-1 5 -1 29l-1 3h-1 q-3 0 -5 2l7 6q14 -12 13 -35q11 22 11 27q5 0 5 -4q0 -2 -1.5 -6t-1.5 -6q8 3 15 11q-3 -1 -4 -1q-7 0 -5 18q-2 0 -6.5 -3.5t-7.5 -3.5q-2 0 -3 1q4 8 20 24q3 -6 11 -12q4 7 8 21q-11 -5 -15 -5l-6 3q9 4 9 10q0 13 -1 9q-4 -4 -10 -4q-11 0 -11 11q0 4 1.5 12.5 t1.5 12.5q8 -8 12 -8v-12q0 3 3.5 10.5t3.5 12.5l-18 5v19l7 8q5 -6 15 -12q-5 6 -10 19q5 65 5 59v5q-7 -5 -8 -5q-2 1 -4 3q4 6 8.5 19.5t8.5 20.5q-5 4 -10 15q-4 -5 -18 -5q-15 0 -19 5q1 -4 1 -8q0 -17 -14.5 -30.5l-27.5 -26.5q8 -2 14.5 -10t11.5 -16q-3 -2 -12 -6 q2 -1 2 -3q0 -5 -10 -15q-13 -13 -14 -15v-15q4 0 8 -3q-8 -5 -12 -15t-6 -12q22 -19 22 -31q0 -5 -17 -22q12 -6 12 -31q0 -15 -8 -23q11 0 16 -16t22 -16q4 0 13 9q1 -1 1 -9q0 -4 6 -4q25 0 21 0q0 13 6 13q3 -5 10 -13q5 4 11 5zM388 122l-7 7l-4 -5l6 -6zM298 121v8 h-21v-8h21zM348 450l-18 -6v7l15 5zM357 424h-6l-5 15l6 3zM333 422h-12v8h12v-8zM322 296h-7v16h7v-16zM324 272h-11v7h11v-7zM308 269l-3 -6l-14 5v7zM317 189l-13 -5v6l10 5z" />
<glyph unicode="o" d="M387 392q0 -34 -6.5 -101t-6.5 -101q0 -8 1 -25t1 -25q0 -43 -17 -61q-30 -31 -34 -38q1 4 7.5 14.5t6.5 19.5v6q-9 -7 -17 -22q-1 0 -10 9q-5 -4 -16 -11q18 -9 18 -20q-11 -2 -22.5 -5t-16.5 -14q0 4 -3 13t-3 14q0 8 10 17q9 6 17 12q-1 0 -20 30q-2 -2 -4 -7 q5 -13 5 -20q-11 1 -31 7q9 1 19.5 14t18.5 13q4 0 9 -3l4 15q-4 2 -9 2q-8 0 -13 -7v13q0 21 8 31v488q-4 4 -13 4q0 11 8 20q-6 11 -21 28q-12 8 -24 17q-17 12 -23 12q-36 0 -62 -36q-23 -32 -23 -70q0 -102 12 -124q-13 -6 -13 -28q0 -8 2 -22.5t2 -21.5q0 -14 1 -43 v-43q0 -35 -2 -60q-1 -6 -5 -17.5t-4 -19.5q0 -21 3 -61t3 -60q0 -8 -8 -19q2 -4 2 -9q0 -19 -12 -27q3 -6 11 -16q3 5 5 19q2 11 11 19q4 2 11 7l6 -5v-17h-3q-9 0 -14 -11q2 -4 7 -12q2 7 9 18q2 -2 9 -21q5 -15 10.5 -15t15 -2.5t13.5 -2.5q3 11 10 32h5q23 -1 28 5 q9 -7 20 -20v-5q1 -2 1 -4q0 -8 -8 -8q4 0 -8 4l-3 -2q9 -19 18 -27q-24 -15 -48 -15q-69 0 -86 27l-9 -9q-24 11 -24 25q0 6 3.5 13.5t3.5 10.5q0 6 -3 7q1 -1 2 -1q3 0 3 6q0 13 -14 17q4 7 5 12q4 -2 14 -4q3 3 3 4q0 21 -4 23q-8 2 -15 5l-1 -5q0 -8 6 -18l-11 9 q-15 -21 -32 -27q-4 6 -4 15q0 10 5 15q-4 6 -9 18q7 7 7 18q0 23 -14 26q0 6 1 10q7 3 15 12l-5 6l25 23q-2 3 -7 3q-7 0 -15 -5v1q-1 6 4 10q-2 3 -10.5 12t-8.5 15q0 18 16 34q7 -4 19 -18l3 2q-1 1 -1 7.5t-26 24.5v2q0 1 1 4t1 4q0 7 -8 6h1q2 6 8 16q-5 8 -18 24 q2 0 6.5 -2t7.5 -2t3 2q0 1 -2 3l-3 3q1 1 4 1q12 0 16 19l-11 -14h-16v9q-1 10 9 13v1q0 3 4 7q-5 2 -12 8q-2 7 0 19q-4 17 -15 50q6 9 23 23q-6 12 -21 14h9q4 12 4 27q0 10 -2.5 29.5t-2.5 28.5q0 21 9 32l-3 5l9 18v9q-1 21 8 55q11 4 27 18v4q-2 31 44 48q35 14 72 13 l12 -13q8 7 8 13q26 -4 77 -15l37 -28q22 -19 29 -35q20 -50 20 -128q0 -9 2 -25.5t2 -24.5q0 -9 -1 -27t-1 -27q0 -18 1 -54.5t1 -55.5zM234 75l-5 -4l-7 7l5 4zM200 76q0 -19 -11 -31v4q0 6 -4 10q-3 -5 -11 -13q1 1 8 18q5 11 18 12zM79 48l-4 -4l-11 11l4 5zM360 706 q-12 6 -16 20q-11 -22 -11 -25v-1q14 -8 18 -19q2 10 9 25zM361 645v17h-7v-17h7zM220 784l-7 7l-4 -5l6 -7zM350 614l-5 21q-6 -7 -17 -21h22zM355 541q-5 11 -16 22q-7 -7 -14 -18q9 9 17 9q5 0 5 -5q0 -2 -1.5 -6.5t-1.5 -7.5q0 5 11 6zM360 514l-17 16q5 -11 5 -24 q1 8 12 8zM352 497l-6 2l-6 -11l6 -3zM360 472l-2 6l-11 -6v-6zM311 489l-7 7l-4 -5l6 -7zM321 483l-7 3l-6 -12l7 -3zM101 178l-11 12q-5 -4 -6 -13q1 1 17 1zM89 150l-6 13l-6 -2l5 -11h7zM101 137l-9 12h-6h-15q-2 -2 -2 -4t1 -6t2 -5q-1 6 11 6q3 0 9 -1.5t9 -1.5z M73 152v8h-12v-8h12zM179 27l-3 6l-11 -6v-6zM160 33q-3 7 -17 21q6 -11 6 -23q0 -5 -2 -8z" />
<glyph unicode="p" horiz-adv-x="438" d="M405 548q-4 -1 -8 -5v-7q1 -58 -26 -91q-65 -82 -120 -82q-12 0 -36.5 4.5t-37.5 4.5q-11 0 -22.5 -23.5t-11.5 -37.5q0 -5 3 -13t3 -13q0 -26 -1.5 -78.5t-1.5 -78.5q0 -68 9 -125q-53 -10 -87 -10q-33 0 -33 48q0 17 5 47.5t5 45.5q0 -8 0 42t1.5 152t1.5 152v125 q0 14 -8 13v131q0 20 15.5 44t35.5 24q5 0 14 -8q14 0 43.5 -2.5t44.5 -2.5q5 0 13.5 2t13.5 2q6 0 17.5 -6.5t17.5 -6.5q5 0 6 2.5t6 2.5q24 0 65 -31.5t49 -55.5q11 -36 11 -143q0 -10 13 -22zM293 628q0 10 -7 30t-8 29q-12 8 -23 19q-1 -14 -7 -14v3q0 14 -17 18l-27 4 q7 8 7 18q0 5 -1 11q-9 -1 -9 -4q0 3 8 -11q-10 -6 -45 -18q7 -7 7 -12l-1 -4q-13 0 -18 -2q-1 -3 -13 -21q-11 -14 -11 -19q0 -6 6 -14.5t6 -11.5q0 -2 -1 -3q-14 1 -15 -13q10 -3 10 -15q1 -17 2 -19q-2 -4 -6 -13q2 -26 5 -53q7 -34 26 -42q37 -14 55 -14q3 5 35 30 q28 22 30 47q1 13 7 47q5 30 5 47z" />
<glyph unicode="q" horiz-adv-x="457" d="M183 39q-6 -5 -6 -16l-16 10q5 7 5 11q6 -2 17 -5zM443 53q0 -16 -8 -32q-10 -20 -24 -20q-8 0 -39 11.5t-39 16.5q-1 1 -5 6t-10 5t-36 -21.5t-36 -21.5q-4 0 -4 2q2 2 2 4t-5 3q-10 0 -31 -6.5t-31 -6.5q-6 0 -23 13t-19 13q-4 0 -5 -2.5t-5 -2.5q-17 0 -27 31l-3 -9 q-42 34 -51 102q-1 15 -1 120q0 15 7 32q-4 6 -4 16q0 9 3 18q-4 4 -13 3v111l7 9q3 81 3 106q0 39 -3 67q2 7 2 17q0 77 47 122t124 45q126 0 162 -130q10 -36 9 -61l-26 -436q-1 -19 10 -47q5 -14 29 -23q32 -12 37 -16l3.5 -18t2.5 -20zM110 551l-6 7l-4 -5l6 -6z M336 295l-6 7l-5 -5l6 -6zM322 216q-14 5 -39 18v12l13 10q-6 0 -12 9q0 3 -3 41q-2 25 0 41q0 1 -3.5 1.5t-3.5 6.5t2.5 8.5t3.5 4.5q-1 19 2 58q-17 0 -17 10q3 2 6 2q4 0 11 -7q-4 26 -4 55q0 20 2 38q0 5 3.5 17t3.5 18q0 8 -5 24t-5 25l1 5q4 -1 13 -3l-27 57 q-20 37 -46 37q-46 0 -68 -18q-10 -45 -19 -66v-56q0 -8 3.5 -22.5t3.5 -22.5q0 -22 -5 -65t-5 -64q0 -73 -1 -78l9 3q-12 -13 -12 -22q0 -8 15 -17l1 -5q-14 -4 -15 -14q1 9 1 -22q0 -12 -7 -21q-3 13 -12 22l-11 -10q2 -19 18 -36q-2 -1 -5 -1q-4 0 -10.5 3.5t-10.5 3.5 q0 -3 1.5 -8t1.5 -8q0 -2 -1 -5q-9 9 -9 11q0 -7 -11 -18q5 -6 15 -19q3 2 8 5l3 -3l-7 -7q-5 1 -9 5l-5 -21q7 -3 17 -16l-8 -10q5 2 16 9.5t14 7.5h1q14 -11 38 -37q-4 -7 -13 -19q4 0 12 -5l-1 5q0 4 4 8q4 -9 14 -13l20 -8v-1q-1 -2 10 -13q-1 2 -2 7q1 2 6 2 q-3 0 5 -11q4 -5 14 -5q-4 -4 -3 -9v-1q2 2 4 2t5.5 -1t5.5 -1q13 14 14 21l-6 -1q-3 0 -7 3q23 16 33 16q5 0 4 -3v-3q13 -7 19 -7l4 21q-6 0 -15 9q0 -5 -4 -9q-3 3 -3 5l1 6q6 5 13 14q-17 9 -17 16l13 10q-10 1 -10 5t5 10q3 -4 12 -9q4 7 12 13q4 -5 4 -17l7 25 q-14 0 -14 9q-5 -10 -14 -17l-7 7q2 26 12 76h11q6 -7 15 -22q0 13 6 19zM293 161l-7 6l-4 -4l6 -6zM335 115l-17 5v-6l15 -6zM310 104l-7 7l-4 -4l6 -7zM100 317q-3 0 -9.5 -5t-9.5 -5q2 0 2 -3t-1 -7q1 -2 1 -7q0 -4 -3 -7h-5q-6 1 -9 -3q18 0 24 -14v5q-1 4 -1 6 q0 5 5.5 19t5.5 21zM114 258l-20 10l-2 -7l19 -10zM271 67l-15 10l-5 -6l16 -10zM79 210l-11 5l-2 -6l11 -5zM105 167l-17 5v-6l15 -6zM137 111l-6 12l-6 -2l5 -10h7zM341 177q-2 -6 -4 -17q-3 4 -6 14h2h1q7 0 7 3zM336 128h-6l-5 10l6 3zM322 77q-6 -6 -6 -13l1 -5 q-2 0 -25 23l15 3q8 0 15 -8z" />
<glyph unicode="r" horiz-adv-x="440" d="M415 54q0 -25 -17.5 -38.5t-36.5 -13.5q-6 0 -18 8q-4 2 -10 0q-8 -3 -13 -3q-12 0 -23 17q-8 13 -9 21q2 1 4 3t2 8q0 12 -14 60l10 14l-7 6q-1 -1 -4 -6.5t-6 -5.5q8 22 8 44q0 1 -12.5 37t-16.5 54q-9 50 -16 68q-16 42 -45 42q-5 0 -17 -4t-19 -4q-1 -1 2 -11 q-8 -8 -11 -22q5 -20 5 -30q0 -8 -4 -15t-4 -15q0 -50 10 -122q1 -6 0 -18q-2 -16 -2 -22q0 -26 18 -40q0 -5 -8 -15q-4 -22 1 -29q-2 -10 -18.5 -21.5t-30.5 -11.5q-28 0 -51 15q-5 3 -11 30q-3 5 -9 14q3 6 7 17q-2 22 -6 141q-2 3 -6 6q8 17 8 34q0 43 -2 132.5t-2 135.5 q0 54 -3 103q-1 31 -4 95q-7 11 -7 15q0 65 43 65q5 0 11 -2t11 -2q4 0 10 6.5t11 6.5t35.5 -6.5t35.5 -6.5t14.5 6.5t16.5 6.5q6 0 9.5 -6l3.5 -6q15 0 39 -3q13 -6 39 -13q15 -19 36 -35q7 -18 38 -70q-4 4 -7 0q-5 -31 -4 -41q1 -3 6 -9q2 -59 -5 -118q-3 -27 -43 -99 q-4 -1 -11 -9q1 -15 36 -124q-1 -14 4 -36q7 -31 8 -41zM299 518q-16 16 -16 40q0 14 5 38q-7 12 -6 16q11 6 6 19l-16 36q-13 26 -27 26q-6 0 -5 -2.5t-4 -2.5t-6.5 6.5t-17.5 6.5q-24 0 -59 -14q-17 -8 -26 -41q-5 -21 -5 -78q0 -35 14 -77l18 -25q30 -11 54 -11 q21 0 46 20q6 5 45 43zM317 137v11h-7v-11h7zM300 134l-6 2l-6 -11l7 -2z" />
<glyph unicode="s" horiz-adv-x="416" d="M380 618q-15 -14 -24 -17q-5 -2 -24 -2q-5 0 -21.5 2t-23 2t-8 3.5t-3.5 7.5q2 27 -15 58q-20 37 -50 37q-34 0 -54 -32q-16 -27 -13 -54q0 -4 -3 -15.5t-3 -17.5q0 -31 12 -49q12 -21 22 -31q2 -6 -7 -15q4 -3 17 -3q-3 -2 -13.5 -13.5t-16.5 -11.5t-10 2q-2 1 -4 -1 q0 -7 3 -10q2 0 54 26q0 -10 2 -13q4 5 4 9q27 -19 70 -58q55 -67 81 -108q4 -7 0 -17q4 -4 14 -17q-2 -16 2 -44l4 -33q0 -3 -4 -12.5t-4 -13.5q0 -6 6 -8q-13 -35 -18 -89q-8 -4 -19 -19q-14 -18 -20 -24q1 -2 6 -9q-12 0 -16 3q0 -1 -3 -9.5t-8.5 -8.5t-20.5 -1h-20 q-1 0 -7 -6t-12.5 -6t-37 -2t-36.5 -2q-27 0 -57 14q-17 8 -41 31q-45 42 -45 107q0 31 9.5 43t41.5 12q19 0 23 -2q13 -5 30 -17q5 -21 20 -57q20 -30 30 -30q5 0 13.5 -4.5t13.5 -4.5t10.5 4.5t11.5 4.5t9.5 -6.5t4.5 -6.5q7 5 7 10t-8 5q2 2 6 -2l22 35q13 23 13 39 q0 15 -10 25q8 8 11 14q-3 14 -4 47q-4 10 -17 30l-87 93l7 25q0 -8 4 -13q3 0 7 1q5 5 6.5 16t4.5 16l-4 3q-8 2 -21 9q0 2 7 6.5t11 8.5q0 -1 -11 19q-2 -2 -5 -4q-4 -5 -4 -7q0 -4 11 -4q-17 -8 -28 -2l-12 -12q4 -3 13 -3q-9 -10 -4 -15q-9 -2 -25 0q-85 40 -85 206 q0 27 3 42q5 9 12 31l16 13q-4 2 -13 9q1 0 5 5t10 5q12 0 12 3q-2 23 14 39q13 14 44.5 26t55.5 12q23 0 34 -2q-3 -7 7 -7q6 0 5 4.5t4 4.5t47 -25.5t50 -34.5q7 -13 13 -26q13 -24 24 -25v-86zM90 715l-12 11q0 -10 -10 -20q2 0 11 4.5t11 4.5z" />
<glyph unicode="t" horiz-adv-x="391" d="M370 736q0 -56 -34 -56q-5 0 -23 4t-22 4q-16 0 -27 -9q-3 -2 -26 -28q-1 -3 1 -9.5t2 -8.5q-9 -2 -23 12q-7 -12 3 -18q1 -6 1 -15q-11 -4 -11 -7l7 -7q8 8 14 8q0 -3 -21 -24q-1 -2 3 -6q12 0 12 11q0 -2 5.5 -8.5t6.5 -8.5q1 -8 -2 -27t-3 -29l11 -17q1 -10 1 -43 v-139q0 -6 -4 -17.5t-4 -16.5t4.5 -16t4.5 -15t-4 -13q4 -7 4 -30q1 -30 2 -35q1 -3 -2.5 -15t-3.5 -19q0 -4 4 -13t5 -12q3 -25 3 -44q0 -71 -37 -71q-5 0 -30 -2t-30 -2q-18 0 -28 21q-9 17 -9 37l31 559q0 49 -12 54q-32 15 -34 15q-5 0 -30 -4.5t-30 -4.5q-32 0 -32 65 q0 20 8 41q10 28 28 28q6 0 13.5 -2.5t12.5 -2.5t15.5 -3.5t14.5 -3.5q46 0 56 1q2 -5 9 -15q9 5 25 11q12 -4 33 -4q24 0 60 5t35 5q30 0 40 -18q7 -13 7 -42zM231 745v21q-9 -10 -33 -10zM219 735q-1 0 -17 -15q3 0 7 -6.5t5 -7.5q0 4 2.5 14.5t2.5 14.5zM202 708v8h-25 v-8h25zM184 752q-5 -4 -13 -9.5t-10 -6.5l-10 8q11 -20 15 -30q1 5 18 38zM191 689v16h-8v-16h8zM204 611v16h-8v-16h8zM203 248l-3 6l-19 -9v-7z" />
<glyph unicode="u" horiz-adv-x="456" d="M258 43l-5 -11l-7 2l6 12zM406 354q-17 -7 -17 -37q0 -10 5.5 -29t5.5 -24q0 -2 -4 -11t-4 -12q2 -8 2 -20q0 -16 -4.5 -46.5t-4.5 -45.5q0 -3 1 -7.5t1 -6.5v-2q-8 -23 -27 -62q-13 -21 -40 -39q-30 -20 -52 -20q-5 0 -6 2.5t-5 2.5q-6 0 -17.5 -9t-17.5 -9h-40 q-6 0 -13 11t-11 11q-5 0 -5 -1v-1q0 -2 -4 -2q-14 0 -40 27q-33 35 -36 37q-2 13 -15 47q-8 25 -8 54q0 7 -13 7v393q0 7 3 7.5t4 2.5q-1 9 -1 22q0 69 4 194q10 19 49 19q36 0 53 -14q1 -15 15 -40q0 -6 -17 -15v-15v-18q0 -13 2 -27h-2q-5 0 -5 -8q0 -13 2.5 -38.5 t3.5 -37.5q3 -4 7 -14q-8 -14 -8 -37q0 -13 7 -35t7 -33q0 -3 -8 -173q-1 -44 -5 -132l-3 -5.5t-3 -11.5t3 -6.5t3 -2.5q-1 -5 -1 -11q0 -26 17 -36q0 -2 -13 -14q1 -6 7 -16q12 5 36 18q0 -2 -4 -10q-2 -5 0 -11q-9 2 -13 2t-8 -1q8 -8 22 -12t24 -17q13 13 12 22 q4 -2 9 -2q7 0 16 5l-8 2v16l12 5l-3 -12l2 -5q9 7 28 18q-4 7 -8 9l-12 -9q-5 7 -5 10q38 30 38 87q0 1 -7 78q-5 52 -12 157v5q0 13 1.5 36t1.5 34q0 1 -3 3t-3 8q0 2 4.5 3.5t4.5 6.5q0 9 -5 26t-5 26q0 50 19 81q-7 7 -13 8v106q0 5 8 19.5t12 15.5q33 8 55 8 q19 0 33 -19q0 -4 5 -160q0 -29 8 -118l1 -2q0 -4 -3.5 -11t-3.5 -11v-2l12 -18v-108zM331 541v8h-12v-8h12zM134 129l-11 6l-3 -6l12 -6z" />
<glyph unicode="v" horiz-adv-x="411" d="M391 782q0 -7 -2 -7q-5 -2 -6 -3l-2 -52q-4 -34 -21 -49q0 -6 13 -6q-1 -5 -19 -67q1 -2 3 -9q-5 -24 -11 -70q-6 -103 -33 -229q2 -9 2 -27q-6 -4 -16 -12l26 -26q-6 -6 -22 -6v-25q-1 -19 -1 -26q0 -2 -5 -9.5t-6 -13.5q-1 -14 0 -40q3 -35 3 -45q0 -33 -10 -55 q-13 -11 -29 -11q-5 0 -7.5 4.5t-7.5 4.5q-6 0 -20 -4.5t-20 -4.5q-5 0 -17 11q-16 15 -20 17q7 12 3 31q-1 2 -6 9q1 37 -27 127q-6 21 -26 119q-13 65 -55 329q-3 18 -19 77q-15 53 -15 59q0 22 31 28q6 1 39 1q24 0 42 -15q10 -38 25 -115q-3 -5 -3 -14q0 -11 6 -30 l8 -23q4 -25 9 -51q10 -29 43 -29q17 0 25.5 15t14.5 54q8 32 19 96q-1 29 -1 58q1 44 12 52q15 10 66 10q11 0 24 -7.5t13 -20.5zM322 199l-5 -12l-6 3l5 11zM356 630l-2 6l-10 -5v-6zM225 73l-3 6l-10 -5v-7zM217 17l-5 5l-11 -11l5 -5z" />
<glyph unicode="w" horiz-adv-x="593" d="M569 764q0 -15 -4 -47.5t-4 -49.5q-5 -22 -20 -65q4 -11 4 -12v-2q-6 -7 -20 -18v-33q6 -4 16 -14q-1 -4 -1 -9t1.5 -14.5t1.5 -13.5q0 -8 -7 -92q-3 -50 -12 -148q-2 -11 -21 -22q13 -13 13 -37q0 -10 -4 -28q-5 -22 -6 -27q-2 -11 -4 -62q-1 -39 -10 -61 q-24 -15 -37 -15q-5 0 -14.5 2t-14.5 2t-8.5 -4.5t-8.5 -4.5q-14 0 -33 19v55q8 7 16 15q0 -1 0 23q0 5 13 32q-1 8 10 29q-13 6 -21 21q-6 0 -6 -9q-10 13 -16 13q-7 0 -19 -4.5t-19 -4.5q-5 0 -11 6.5t-11 6.5q-7 0 -24 -15t-19 -22q-3 -10 -3 -39q0 -1 -13 -14 q0 -7 13 -7q-8 -26 -18 -100q-18 0 -19 1q-8 -4 -33 -6.5t-34 -1.5q-16 3 -22 40q-7 47 -18 61q2 8 2 19q0 31 -16.5 86.5t-16.5 68.5q0 21 10 38q6 4 16 13q1 10 -6 10q-4 0 -11 -2t-9 -2l-88 441q8 28 43 28q37 0 47 -14q15 -66 15 -89q0 -1 -17 -26q1 -6 2.5 -13t8.5 -7 q3 0 7.5 2t6.5 2q0 -1 2.5 -4t2.5 -9q0 -12 -17 -28q7 -7 17 -7q0 -3 -13 -15q1 -6 7 -15q4 3 8 11q0 -21 11 -39q12 -21 31 -21q15 0 25 17q3 9 12 27q21 22 45 32t50 19q-1 3 -7 8t-6 11q0 14 26 29q-1 2 -1.5 4.5t-7.5 2.5q-5 0 -8 -2.5t-4 -2.5l-2 4q3 5 6 8 q1 14 -16 14q-5 1 -5 -1q1 0 1 -1q-1 -2 -5 -2q-6 0 -13.5 6t-8.5 12q-6 -9 -17 -27q-6 7 -6 19q0 3 4 13.5t5 14.5q0 16 2 47q5 0 7 5q-1 5 -5 10q13 0 28 14q4 -9 44 -9q5 0 6.5 4.5t6.5 4.5q9 0 28 -18q0 -52 -22 -51q0 -10 12 -10q5 0 10 4q-2 -4 -26 -28q7 -7 19 -7 q4 6 12 13q-6 -12 -18 -23q10 -7 19 -14t9 -19v-2l-5 -31q6 -2 15 -8q2 -18 21 -46q21 -32 36 -32q6 0 7.5 4t2.5 4v-23q8 -7 11 -7q2 1 2 4q0 4 -7 18l11 -9q6 0 6 13q4 -5 11 -13l11 11q-3 4 -8 12q0 2 6 5.5t6 9.5q0 10 -9 17t-9 11q0 5 3 15t3 15h6q7 0 15 3q-1 6 -7 15 q-8 -8 -15 -8v32q0 8 7 19q-1 9 -1 20q0 14 2 42t2 42t18 26l4 -1q7 0 19.5 2t18.5 2q10 0 16 -17q6 -13 6 -25zM517 613l-3 6l-10 -6v-6zM527 585l-10 16l-7 -4l11 -16zM521 541l-22 5l11 -12q4 4 11 7zM265 743v7h-16v-7h16zM505 494q-4 -7 -15 -20q5 0 12 -6q5 11 5 20 q0 3 -2 6zM309 618q0 3 1 9t1 9t-2 7q-5 -2 -16 -4q0 -14 16 -21zM452 476l-11 11l-5 -5l11 -11zM482 366l-6 6l-5 -4l7 -6zM499 273h-7q-4 -1 -6 -1q-5 0 -8 3q0 -11 6 -18q0 2 15 16zM460 266l-4 6l-15 -10l4 -6zM474 251l-6 2l-6 -11l6 -3zM470 176l-7 3l-5 -12l6 -2z M165 460q-1 4 -6 12q-7 -9 -13 -9q-4 0 -12 4q0 16 -6 23q-2 -15 -11 -19q8 -8 19 -25q14 14 29 14zM477 112l-2 6l-11 -5v-6zM448 128l-7 2l-5 -11l6 -3zM478 76l-7 7l-4 -5l6 -6zM439 115l-6 2l-6 -11l6 -3zM438 80l-6 7l-5 -4l7 -7zM156 342q0 4 -6 12q-1 -1 -4 -8.5 t-5 -7.5h6q6 0 9 4zM409 62q-3 0 -5 5.5t-4 5.5t-3.5 -7.5t-2.5 -8.5q4 2 15 5zM132 282l-7 2l-5 -11l6 -3zM162 201v20h-7v-20h7zM166 197l-4 4l-15 -15l4 -4zM209 127q-5 5 -5 15h-21q15 -15 26 -15zM169 140q-10 19 -5 29q-11 -12 -11 -29h16z" />
<glyph unicode="x" horiz-adv-x="466" d="M438 770q-26 -34 -50 -91l-34.5 -91.5t-38.5 -115.5t-21 -78q0 4 37 -124q1 -1 10 -21q6 -12 18 -17q0 -11 -8 -19q4 -4 11 -12q11 -35 41 -116q26 -68 26 -72q0 -10 -13 -17t-20 -7q-5 0 -8.5 4.5t-8.5 4.5q-6 0 -3.5 -4.5t-3.5 -4.5q-5 0 -19 2t-19 2t-15.5 9t-15.5 9 q0 2 4 7.5t4 11.5q0 3 -11.5 46.5t-15.5 65.5q-8 2 -10 9q-4 11 -5 13q-8 8 -25 8q-15 0 -32 -12q-20 -15 -28 -39q0 -7 -2 -22q-10 -26 -27 -83q-2 -2 -20 -15q-11 -8 -17 -8q-38 0 -58 5q0 2 -2.5 9t-2.5 12q0 14 23 55q-1 2 -3 9l22 35q-5 13 9 26q-2 11 -2 29 q10 37 41 132q27 81 27 86q0 20 -27 91q-12 16 -28 48q-2 22 -12 65q-32 70 -76 185q7 8 23 17q39 6 38 6q13 0 39 -11q30 -13 33 -26q11 -57 10 -70v-30q19 -25 55 -68q15 7 17 20q14 -2 36 34l8 8q-3 2 -3 6v44q9 7 25 53q12 35 43 35q48 0 65 -4h6q7 -9 14 -24zM261 318 l-7 2l-5 -11l6 -3zM303 206l-2 6l-11 -5v-6zM181 197l-2 7l-15 -6v-6zM160 151l-4 4l-11 -10l4 -5z" />
<glyph unicode="y" horiz-adv-x="412" d="M394 756q0 -3 -25 -88q-27 -92 -34 -127q-1 -1 -6 -5q-9 -59 -38 -193q-8 -15 -19 -44q-1 -20 -3 -57q-7 -83 -7 -70q0 -26 6 -78.5t6 -79.5q0 -6 -8 -15t-15 -9q-5 0 -30.5 2t-30.5 2q-17 0 -22 54l-4 76q5 13 5.5 25.5t1.5 18.5q0 32 -4 91q-5 9 -17 18q6 21 -1 44 q-5 2 -13 8q-2 26 -5.5 52t-20.5 31q0 5 -2.5 22.5t-2.5 29.5q-5 -4 -9 -4q-3 39 -44 173q-40 131 -40 134q0 7 6.5 14.5t13.5 7.5q9 0 17 -9q3 3 3 13q23 0 64 -11q20 -11 20 -40q0 -7 -3 -13q3 -4 12 -17q-2 -7 0 -16l10 -10q4 -27 -3 -52q8 -4 25 -20q14 -14 19 -14h33 q-1 6 -1 21q4 4 15 17q2 24 5 48q4 29 19 36q0 1 -8 12q3 7 4 35q1 12 20.5 24.5t33.5 11.5q1 0 8.5 3t13.5 3q30 0 42.5 -12t12.5 -43zM307 653l-5 18l-6 -3l5 -15h6zM229 346v12h-8v-12h8zM229 115l-7 3l-5 -12l6 -2zM229 79v16h-8v-16h8zM237 63l-6 2l-6 -11l7 -3z M227 46q-4 0 -11 -1.5t-13 -1.5q-13 0 -13 15q0 -2 1.5 -10t1.5 -14h20q5 4 14 12zM189 45l-6 2l-6 -11l6 -2z" />
<glyph unicode="z" horiz-adv-x="410" d="M389 62q0 -1 -20 -55q-2 0 -9.5 -2.5t-13.5 -2.5h-15q-7 0 -18 21q-2 -2 -4 -8.5t-4 -8.5q-8 4 -26 4q-5 0 -17 -6.5t-17 -6.5q-6 0 -8 4.5t-7 4.5q-6 0 -15.5 -4.5t-14.5 -4.5l-16 5q-6 0 -10.5 -4.5l-4.5 -4.5l-10 9q-9 -9 -13 -9q-6 0 -7 2.5t-2 2.5q-13 -1 -73 -1 q-7 3 -13 8q-12 9 -12 21q1 1 2 7q-5 -1 -5 9q0 5 12 42q15 47 19 62q21 77 39 129l88 254q15 47 15 73l15 28.5t7 29.5q-77 13 -94 13q-5 0 -26 -3t-26 -3q-40 0 -51 19q-7 11 -7 47q0 49 26 62q15 7 71 7q44 0 47 1q43 -10 82 -10q9 0 45 2q28 2 45 1q5 -1 19 -14t14 -26 q0 -26 -17 -75q-22 -61 -23 -66t-18 -34q1 -5 0 -19q-3 -2 -10 -8q4 -37 -17 -48q-1 -20 -7 -56q-13 -38 -66 -176l-13 -56q-4 -11 -19 -48q-12 -31 -12 -37q0 -9 23 -33q13 13 20 13q5 0 17 -6.5t17 -6.5t20.5 6.5t20.5 6.5q7 0 26 -21q26 17 36 17q8 0 21.5 -19.5 t13.5 -27.5zM311 675v8h-12v-8h12zM319 70q-8 -9 -22 -8q-23 2 -16 3q12 -12 17 -12q16 0 21 17zM272 44q-10 -1 -25 -6q7 -1 19 -6q4 4 6 12zM205 32v12h-7v-12h7zM171 45l-6 13l-6 -3l6 -10h6zM127 83l-15 10l-4 -5l16 -11z" />
<glyph unicode="~" horiz-adv-x="833" />
<glyph unicode="&#xaa;" horiz-adv-x="491" d="M138 152l-17 -5v7l15 5zM60 105l-12 -5v6l10 5zM71 94q-3 1 -4 -9t-7 -10q-13 0 -12 1q5 6 10.5 12t12.5 6zM90 35q-6 -15 -28 -25q-8 10 -28 28q2 4 8.5 9t8.5 8l-7 7q-3 0 -8 -2t-9 -2q-2 0 -6 2q10 4 25 11q3 -6 44 -36zM475 52q-3 -5 -4 -44l-1 -5q-17 -10 -32 -10 q-5 0 -6.5 4.5t-6.5 4.5q-4 0 -5 -2.5t-5 -2.5t-3 7q-1 2 -4 2q-4 0 -4 -6q0 -2 -5 -3q-24 0 -35 19q-2 3 -16 77q-11 60 -35 60q-5 0 -6.5 -4.5t-6.5 -4.5q-4 0 -8 6.5t-9 6.5t-5 -1l1 -1q0 -2 -5 -2q-4 0 -4 1t1.5 3t1.5 3l-3 2q-30 11 -39 25q-10 -13 -7 -29 q-7 -1 -12 -1q-10 0 -16 5q-3 -7 -10 -13q-2 6 -2 11q0 3 2 9t2 9q0 5 -7 11q-7 0 -19.5 1.5t-18.5 1.5q0 3 12 16l1 5q0 2 -3 5q-8 -8 -10 -8q0 6 8 14q-5 5 -10 5q-3 0 -6 -2q0 3 7 10q-5 3 -15 11q-4 -4 -3 -17q-7 5 -11 5q0 2 12 14q-4 7 -14 14q-13 9 -16 12q4 6 5 10 q4 0 11 -5l11 -7q2 4 7 11q0 5 -33 24h-1l7 10q-3 6 -3 15q0 26 17 33q-5 3 -15 11q-4 -4 -3 -13q-7 2 -12 7q11 4 30 17l-6 6q-4 -2 -5 -6q-4 7 -9 23q5 -4 14 -13q1 2 2 9q0 4 6 4t6.5 -2t1.5 -2q2 4 8 11l-7 6l-22 -13q-5 4 -10 13q11 0 15 -4l6 7l1 5q0 2 -3 5 q-5 -4 -10 -4q-2 11 -9 33q10 10 34 26v33q-4 4 -17 4q5 18 13 41q4 6 4 8q0 3 -3.5 6t-13.5 6q9 22 22 27q-13 13 -13 21q0 20 14 68q15 52 16 72q28 8 56 17q33 10 56 10q24 0 48 -102l121 -516q8 -37 15 -74q14 -57 28 -62zM109 487h-6l-6 10l7 2zM317 167h-8v15h8v-15z M265 171h-7l-5 10l6 3zM92 335h-8v12h8v-12zM156 262l-11 -11l-4 5l11 10zM105 242l-6 -12l-6 3l6 11zM46 182h-16v7h16v-7zM62 154l-11 -15l-5 4l10 15zM247 526l-4 4l-11 -10l4 -5zM130 604l-4 4l-11 -10l4 -5zM125 457q-9 9 -9 15q-7 0 -7 -16q1 1 16 1zM302 296 q0 38 -20 101q-25 76 -53 76q-35 0 -49 -81q-17 -96 -33 -112q8 -6 25 -21l-8 -9l19 -11l10 9q10 0 30.5 -4.5t31.5 -4.5q16 0 31.5 20t15.5 37zM129 341q-4 1 -11 6q-4 -7 -13 -19q4 3 24 13zM168 223q-9 9 -9 20h-17q9 -10 26 -20zM137 197q-4 8 -15.5 13.5l-22.5 10.5 q3 -3 13 -22l-7 -8h-11q1 3 1 5q0 5 -5 13.5t-6 12.5q0 2 0 -29q0 -9 -6 -19l-9 1q-6 0 -9 -3q9 -2 26 -9q-5 -2 -13 -8q4 -4 6 -11q7 7 12 7l4 -1q0 -6 -22 -26q11 1 22.5 3t18.5 9l10 -9q-2 6 -12 27q6 3 6 10q0 5 -3 15l-12 -5q-4 2 -8 7q1 0 9 7q5 4 10 4q11 0 10 -4 l-1 7q0 3 3 6q5 -5 11 -4z" />
<glyph unicode="&#xb2;" horiz-adv-x="497" d="M440 35q0 -12 -20 -27t-31 -15q-30 0 -89.5 6.5t-88.5 6.5q-11 0 -31.5 -4.5t-31.5 -4.5q-5 0 -15 4.5t-16 4.5q-4 0 -6.5 -4.5t-8.5 -4.5q-14 0 -23 15q-8 12 -8 27q0 7 6 13t6 10t-3.5 12.5t-3.5 12.5l9 17q11 30 35 89l182 454q-3 11 -21 48q-31 23 -44 23 q-12 0 -31.5 -12t-26.5 -22t-16 -68q-11 0 -32 -5t-32 -5q-37 0 -37 43q0 29 20.5 71t43.5 62q16 14 56 24q36 10 62 10q5 0 13 -4t12 -4q153 -27 153 -150q0 -25 -12 -56l-22 -53l-9 -42q-1 -1 -24 -52q-112 -249 -135 -249q-7 0 -9 5q-2 -2 -4 -16q3 -10 3 -18 q0 -7 -5 -20t-5 -20q0 -12 19.5 -25t33.5 -13q34 0 47 9l9 -9q17 23 75 23q56 0 56 -87zM102 184l-13 -6v6l11 6zM190 182v8h-12v-8h12zM281 58l-7 7l-4 -5l6 -6zM255 54l-10 5v-22q11 10 11 15zM218 47l-4 5l-11 -11l4 -5zM168 66q0 13 -13 25t-25 11h-2q13 -7 32 -31 q-2 -2 -10 -2.5t-8 -6.5q0 -11 5 -11h16q0 1 2.5 5t2.5 10z" />
<glyph unicode="&#xb3;" horiz-adv-x="469" d="M409 269q0 -18 -1.5 -55t-1.5 -56q0 -17 3 -20q-7 -21 -13 -41q-5 -13 -22 -40q-5 1 -9 -1q0 3 0 -11q0 -2 -1 -2q-2 0 -5 2t-5 2q-7 0 -5 -12q-3 -1 -15.5 -12t-19.5 -11q-4 0 -4 1v1q0 2 -4 2q-8 0 -30 -11t-27 -11q-1 0 -3.5 6.5t-8.5 6.5q-20 0 -55 -17 q-7 11 -38.5 29t-36.5 34q-6 3 -16 13t-19.5 39t-9.5 43q0 53 33 53q10 0 29.5 -5t27.5 -6q8 -5 13 -13q8 -49 5 -61q21 -18 27 -39q40 14 38 14q5 0 13.5 -4.5t13.5 -4.5h6l-2 4q-3 -23 -3 -15q0 -5 7 -11q6 5 6 8t-1.5 7t-1.5 6q27 1 30 14q7 0 15 -9q3 7 3 15q0 12 -6 24 l4 -4q2 1 2 5q0 6 -6 16t-6 15q4 -4 7 -4q2 0 5 3q1 9 -22 19q0 2 4.5 4.5t4.5 8.5q0 69 -12 137q-9 7 -34.5 18.5t-35.5 11.5q-4 0 -5 -2.5t-5 -2.5q-49 0 -49 55q0 68 46 68q5 0 5.5 -2t5.5 -2q27 0 51 17t24 43v131q0 15 -15.5 33t-30.5 18q-7 0 -17 -3 q-14 -3 -16.5 -3.5t-4.5 -6t-8 -5.5t-10 4.5t-5 4.5q-8 -6 -8 -11.5t-12 -13.5l8 -8l-15 -50q-33 -18 -51 -18q-29 0 -40.5 9.5t-11.5 38.5q0 49 34 94t82 58q21 6 86 6q28 0 65 -31q34 -29 47 -58q6 -12 13 -79q7 -60 7 -84q0 -27 -8 -88q-19 -20 -19 -42q0 -6 13 -42 q15 -40 16 -48q11 -45 11 -66zM318 100h-6l-6 11l7 2zM362 514l-5 4l-11 -10l5 -5zM371 175v16h-8v-16h8zM372 141q-5 0 -5 11q0 -6 -11 -16q5 3 16 5zM353 142l-6 2l-6 -11l7 -3zM360 101q-5 7 -16 20q0 -1 -2.5 -5t-2.5 -10q0 -8 11 -19q1 14 10 14zM338 116v7h-16v-7h16z M351 56q0 5 -6 13q0 -5 -5 -9q-4 4 -9 4q0 -9 4 -17q5 5 16 9zM257 77h-8l-5 -21h8zM221 52l-5 13l-6 -3l5 -10h6zM166 54v8h-16v-8h16z" />
<glyph unicode="&#xb9;" horiz-adv-x="361" d="M308 75q0 -5 -5 -16t-6 -15q6 -15 4 -18q-1 -5 -4 -14q-9 -14 -18 -14q-6 0 -6 2t-5 2t-13.5 -6.5t-13.5 -6.5t-17.5 2t-17.5 2q-8 0 -16 8.5t-8 16.5t3 212q-3 49 -7 314q-3 1 -13.5 8.5t-16.5 7.5q-11 0 -68 -57q-25 15 -25 62q0 69 6 83q4 11 67 78q47 51 80 76 q30 6 33 6q20 0 33 -11q14 -19 14 -51q0 -9 -1.5 -28t-1.5 -28q0 -20 6 -34q2 -64 -1 -195q3 -3 13 -3q0 -2 -9 -10q4 -3 9 -3q0 -31 -13 -55q4 -4 0 -194q8 -12 8 -36q0 -9 -2 -33q-1 -20 -1 -29q1 -2 7 -10t6 -13zM254 572v8h-21v-8h21z" />
<glyph unicode="&#xba;" d="M387 392q0 -34 -6.5 -101t-6.5 -101q0 -8 1 -25t1 -25q0 -43 -17 -61q-30 -31 -34 -38q1 4 7.5 14.5t6.5 19.5v6q-9 -7 -17 -22q-1 0 -10 9q-5 -4 -16 -11q18 -9 18 -20q-11 -2 -22.5 -5t-16.5 -14q0 4 -3 13t-3 14q0 8 10 17q9 6 17 12q-1 0 -20 30q-2 -2 -4 -7 q5 -13 5 -20q-11 1 -31 7q9 1 19.5 14t18.5 13q4 0 9 -3l4 15q-4 2 -9 2q-8 0 -13 -7v13q0 21 8 31v488q-4 4 -13 4q0 11 8 20q-6 11 -21 28q-12 8 -24 17q-17 12 -23 12q-36 0 -62 -36q-23 -32 -23 -70q0 -102 12 -124q-13 -6 -13 -28q0 -8 2 -22.5t2 -21.5q0 -14 1 -43 v-43q0 -35 -2 -60q-1 -6 -5 -17.5t-4 -19.5q0 -21 3 -61t3 -60q0 -8 -8 -19q2 -4 2 -9q0 -19 -12 -27q3 -6 11 -16q3 5 5 19q2 11 11 19q4 2 11 7l6 -5v-17h-3q-9 0 -14 -11q2 -4 7 -12q2 7 9 18q2 -2 9 -21q5 -15 10.5 -15t15 -2.5t13.5 -2.5q3 11 10 32h5q23 -1 28 5 q9 -7 20 -20v-5q1 -2 1 -4q0 -8 -8 -8q4 0 -8 4l-3 -2q9 -19 18 -27q-24 -15 -48 -15q-69 0 -86 27l-9 -9q-24 11 -24 25q0 6 3.5 13.5t3.5 10.5q0 6 -3 7q1 -1 2 -1q3 0 3 6q0 13 -14 17q4 7 5 12q4 -2 14 -4q3 3 3 4q0 21 -4 23q-8 2 -15 5l-1 -5q0 -8 6 -18l-11 9 q-15 -21 -32 -27q-4 6 -4 15q0 10 5 15q-4 6 -9 18q7 7 7 18q0 23 -14 26q0 6 1 10q7 3 15 12l-5 6l25 23q-2 3 -7 3q-7 0 -15 -5v1q-1 6 4 10q-2 3 -10.5 12t-8.5 15q0 18 16 34q7 -4 19 -18l3 2q-1 1 -1 7.5t-26 24.5v2q0 1 1 4t1 4q0 7 -8 6h1q2 6 8 16q-5 8 -18 24 q2 0 6.5 -2t7.5 -2t3 2q0 1 -2 3l-3 3q1 1 4 1q12 0 16 19l-11 -14h-16v9q-1 10 9 13v1q0 3 4 7q-5 2 -12 8q-2 7 0 19q-4 17 -15 50q6 9 23 23q-6 12 -21 14h9q4 12 4 27q0 10 -2.5 29.5t-2.5 28.5q0 21 9 32l-3 5l9 18v9q-1 21 8 55q11 4 27 18v4q-2 31 44 48q35 14 72 13 l12 -13q8 7 8 13q26 -4 77 -15l37 -28q22 -19 29 -35q20 -50 20 -128q0 -9 2 -25.5t2 -24.5q0 -9 -1 -27t-1 -27q0 -18 1 -54.5t1 -55.5zM234 75l-5 -4l-7 7l5 4zM200 76q0 -19 -11 -31v4q0 6 -4 10q-3 -5 -11 -13q1 1 8 18q5 11 18 12zM79 48l-4 -4l-11 11l4 5zM360 706 q-12 6 -16 20q-11 -22 -11 -25v-1q14 -8 18 -19q2 10 9 25zM361 645v17h-7v-17h7zM220 784l-7 7l-4 -5l6 -7zM350 614l-5 21q-6 -7 -17 -21h22zM355 541q-5 11 -16 22q-7 -7 -14 -18q9 9 17 9q5 0 5 -5q0 -2 -1.5 -6.5t-1.5 -7.5q0 5 11 6zM360 514l-17 16q5 -11 5 -24 q1 8 12 8zM352 497l-6 2l-6 -11l6 -3zM360 472l-2 6l-11 -6v-6zM311 489l-7 7l-4 -5l6 -7zM321 483l-7 3l-6 -12l7 -3zM101 178l-11 12q-5 -4 -6 -13q1 1 17 1zM89 150l-6 13l-6 -2l5 -11h7zM101 137l-9 12h-6h-15q-2 -2 -2 -4t1 -6t2 -5q-1 6 11 6q3 0 9 -1.5t9 -1.5z M73 152v8h-12v-8h12zM179 27l-3 6l-11 -6v-6zM160 33q-3 7 -17 21q6 -11 6 -23q0 -5 -2 -8z" />
<glyph unicode="&#xc3;" horiz-adv-x="491" d="M138 152l-17 -5v7l15 5zM60 105l-12 -5v6l10 5zM71 94q-3 1 -4 -9t-7 -10q-13 0 -12 1q5 6 10.5 12t12.5 6zM90 35q-6 -15 -28 -25q-8 10 -28 28q2 4 8.5 9t8.5 8l-7 7q-3 0 -8 -2t-9 -2q-2 0 -6 2q10 4 25 11q3 -6 44 -36zM475 52q-3 -5 -4 -44l-1 -5q-17 -10 -32 -10 q-5 0 -6.5 4.5t-6.5 4.5q-4 0 -5 -2.5t-5 -2.5t-3 7q-1 2 -4 2q-4 0 -4 -6q0 -2 -5 -3q-24 0 -35 19q-2 3 -16 77q-11 60 -35 60q-5 0 -6.5 -4.5t-6.5 -4.5q-4 0 -8 6.5t-9 6.5t-5 -1l1 -1q0 -2 -5 -2q-4 0 -4 1t1.5 3t1.5 3l-3 2q-30 11 -39 25q-10 -13 -7 -29 q-7 -1 -12 -1q-10 0 -16 5q-3 -7 -10 -13q-2 6 -2 11q0 3 2 9t2 9q0 5 -7 11q-7 0 -19.5 1.5t-18.5 1.5q0 3 12 16l1 5q0 2 -3 5q-8 -8 -10 -8q0 6 8 14q-5 5 -10 5q-3 0 -6 -2q0 3 7 10q-5 3 -15 11q-4 -4 -3 -17q-7 5 -11 5q0 2 12 14q-4 7 -14 14q-13 9 -16 12q4 6 5 10 q4 0 11 -5l11 -7q2 4 7 11q0 5 -33 24h-1l7 10q-3 6 -3 15q0 26 17 33q-5 3 -15 11q-4 -4 -3 -13q-7 2 -12 7q11 4 30 17l-6 6q-4 -2 -5 -6q-4 7 -9 23q5 -4 14 -13q1 2 2 9q0 4 6 4t6.5 -2t1.5 -2q2 4 8 11l-7 6l-22 -13q-5 4 -10 13q11 0 15 -4l6 7l1 5q0 2 -3 5 q-5 -4 -10 -4q-2 11 -9 33q10 10 34 26v33q-4 4 -17 4q5 18 13 41q4 6 4 8q0 3 -3.5 6t-13.5 6q9 22 22 27q-13 13 -13 21q0 20 14 68q15 52 16 72q28 8 56 17q33 10 56 10q24 0 48 -102l121 -516q8 -37 15 -74q14 -57 28 -62zM109 487h-6l-6 10l7 2zM317 167h-8v15h8v-15z M265 171h-7l-5 10l6 3zM92 335h-8v12h8v-12zM156 262l-11 -11l-4 5l11 10zM105 242l-6 -12l-6 3l6 11zM46 182h-16v7h16v-7zM62 154l-11 -15l-5 4l10 15zM247 526l-4 4l-11 -10l4 -5zM130 604l-4 4l-11 -10l4 -5zM125 457q-9 9 -9 15q-7 0 -7 -16q1 1 16 1zM302 296 q0 38 -20 101q-25 76 -53 76q-35 0 -49 -81q-17 -96 -33 -112q8 -6 25 -21l-8 -9l19 -11l10 9q10 0 30.5 -4.5t31.5 -4.5q16 0 31.5 20t15.5 37zM129 341q-4 1 -11 6q-4 -7 -13 -19q4 3 24 13zM168 223q-9 9 -9 20h-17q9 -10 26 -20zM137 197q-4 8 -15.5 13.5l-22.5 10.5 q3 -3 13 -22l-7 -8h-11q1 3 1 5q0 5 -5 13.5t-6 12.5q0 2 0 -29q0 -9 -6 -19l-9 1q-6 0 -9 -3q9 -2 26 -9q-5 -2 -13 -8q4 -4 6 -11q7 7 12 7l4 -1q0 -6 -22 -26q11 1 22.5 3t18.5 9l10 -9q-2 6 -12 27q6 3 6 10q0 5 -3 15l-12 -5q-4 2 -8 7q1 0 9 7q5 4 10 4q11 0 10 -4 l-1 7q0 3 3 6q5 -5 11 -4z" />
<glyph unicode="&#xd1;" horiz-adv-x="448" d="M409 781q0 -8 -2.5 -23.5t-2.5 -23.5l-10 -1q-4 0 -11.5 2t-10.5 2q-14 0 -17 -5v-17q0 -6 -3 -11.5t-3 -6.5q1 -3 3 -1q-22 7 -28 18q2 2 5 7l-2 3q-9 -6 -11.5 -9t-3.5 -13q-13 26 -13 46q0 33 14 43q11 8 45 8q29 0 51 -18zM395 724q0 -22 -11 -22t-11 -2q1 -3 3 -5 q-4 4 -15 3l5 22q4 -2 8 -2q10 0 21 6zM409 400q-9 6 -18 6q-6 0 -13 -2q18 -9 16 -14v-216q0 -18 7.5 -66t7.5 -69q0 -29 -11.5 -36.5t-41.5 -7.5q-16 0 -36.5 9.5t-26.5 22.5q-3 6 -15 67q-10 20 -22 62q-20 131 -88 131q-5 0 -15 -12q-6 -9 -12 -17q2 -4 2 -10 q0 -16 -10 -25l-20 -18q1 -1 4 -1q4 0 13 3.5t14 3.5v-186q0 -6 -10 -25q-10 -2 -30 -2q-41 0 -48 1q-27 7 -27 34l6 774l5 -4l4 3q3 -1 7 -1q8 0 23.5 3t22.5 3q-8 0 36 -6q30 -30 30 -58v-9q-1 -7 -1 -10q0 -16 5 -32q1 -3 6.5 -11t5.5 -14q0 -10 -7 -14.5l-15 -9.5 q2 -2 6 -2t13 2q9 -7 25 -51q15 -40 20 -40q6 0 8 2t3 2q0 -3 -9 -11q8 -8 21 -24q0 1 3 7q1 2 7 2q5 0 5 -1v-2q1 -1 4 -1q8 0 5 8q3 0 16 -13l20 30q8 46 8 60q0 7 -4 21.5t-4 22.5v2q6 3 13 12q-2 4 -2 8q0 9 10 16l-1 -2q0 -24 30 -24q2 0 7 1t7 1q3 0 8 -2l8 22 q21 -20 21 -29q0 -5 -3 -16t-3 -16q-10 3 -13 3q-4 0 -8 -2q2 -1 2.5 -6t6.5 -5q4 0 8 2t5 2q-1 -2 -1 -6q0 -3 1 -10.5t1 -11.5q0 -15 -10 -23v-157q5 -7 18 -18zM245 190q-7 -4 -12 -4q0 1 -1 5v6q0 5 2 10q11 -12 11 -17zM383 572q-5 2 -12 2t-15 -2l9 -5q-5 -5 -5 -7 q0 -1 3 -4q2 3 4 3q2 -1 3 -4l-12 -6v-1q0 -2 1 -7v-6q0 -3 -5 -10q-9 9 -9 11q0 -5 -5 -11.5t-5 -7.5q30 3 36 21t12 34zM336 526v16h-8v-16h8zM140 521l-12 6l-2 -7l11 -5zM378 155v15l-14 15q-5 0 -9.5 4t-6.5 4q0 -3 -5 -4q-3 0 -11 1q-6 0 -8 -1q-1 5 -1 29l-1 3h-1 q-3 0 -5 2l7 6q14 -12 13 -35q11 22 11 27q5 0 5 -4q0 -2 -1.5 -6t-1.5 -6q8 3 15 11q-3 -1 -4 -1q-7 0 -5 18q-2 0 -6.5 -3.5t-7.5 -3.5q-2 0 -3 1q4 8 20 24q3 -6 11 -12q4 7 8 21q-11 -5 -15 -5l-6 3q9 4 9 10q0 13 -1 9q-4 -4 -10 -4q-11 0 -11 11q0 4 1.5 12.5 t1.5 12.5q8 -8 12 -8v-12q0 3 3.5 10.5t3.5 12.5l-18 5v19l7 8q5 -6 15 -12q-5 6 -10 19q5 65 5 59v5q-7 -5 -8 -5q-2 1 -4 3q4 6 8.5 19.5t8.5 20.5q-5 4 -10 15q-4 -5 -18 -5q-15 0 -19 5q1 -4 1 -8q0 -17 -14.5 -30.5l-27.5 -26.5q8 -2 14.5 -10t11.5 -16q-3 -2 -12 -6 q2 -1 2 -3q0 -5 -10 -15q-13 -13 -14 -15v-15q4 0 8 -3q-8 -5 -12 -15t-6 -12q22 -19 22 -31q0 -5 -17 -22q12 -6 12 -31q0 -15 -8 -23q11 0 16 -16t22 -16q4 0 13 9q1 -1 1 -9q0 -4 6 -4q25 0 21 0q0 13 6 13q3 -5 10 -13q5 4 11 5zM388 122l-7 7l-4 -5l6 -6zM298 121v8 h-21v-8h21zM348 450l-18 -6v7l15 5zM357 424h-6l-5 15l6 3zM333 422h-12v8h12v-8zM322 296h-7v16h7v-16zM324 272h-11v7h11v-7zM308 269l-3 -6l-14 5v7zM317 189l-13 -5v6l10 5z" />
<glyph unicode="&#xd5;" d="M387 392q0 -34 -6.5 -101t-6.5 -101q0 -8 1 -25t1 -25q0 -43 -17 -61q-30 -31 -34 -38q1 4 7.5 14.5t6.5 19.5v6q-9 -7 -17 -22q-1 0 -10 9q-5 -4 -16 -11q18 -9 18 -20q-11 -2 -22.5 -5t-16.5 -14q0 4 -3 13t-3 14q0 8 10 17q9 6 17 12q-1 0 -20 30q-2 -2 -4 -7 q5 -13 5 -20q-11 1 -31 7q9 1 19.5 14t18.5 13q4 0 9 -3l4 15q-4 2 -9 2q-8 0 -13 -7v13q0 21 8 31v488q-4 4 -13 4q0 11 8 20q-6 11 -21 28q-12 8 -24 17q-17 12 -23 12q-36 0 -62 -36q-23 -32 -23 -70q0 -102 12 -124q-13 -6 -13 -28q0 -8 2 -22.5t2 -21.5q0 -14 1 -43 v-43q0 -35 -2 -60q-1 -6 -5 -17.5t-4 -19.5q0 -21 3 -61t3 -60q0 -8 -8 -19q2 -4 2 -9q0 -19 -12 -27q3 -6 11 -16q3 5 5 19q2 11 11 19q4 2 11 7l6 -5v-17h-3q-9 0 -14 -11q2 -4 7 -12q2 7 9 18q2 -2 9 -21q5 -15 10.5 -15t15 -2.5t13.5 -2.5q3 11 10 32h5q23 -1 28 5 q9 -7 20 -20v-5q1 -2 1 -4q0 -8 -8 -8q4 0 -8 4l-3 -2q9 -19 18 -27q-24 -15 -48 -15q-69 0 -86 27l-9 -9q-24 11 -24 25q0 6 3.5 13.5t3.5 10.5q0 6 -3 7q1 -1 2 -1q3 0 3 6q0 13 -14 17q4 7 5 12q4 -2 14 -4q3 3 3 4q0 21 -4 23q-8 2 -15 5l-1 -5q0 -8 6 -18l-11 9 q-15 -21 -32 -27q-4 6 -4 15q0 10 5 15q-4 6 -9 18q7 7 7 18q0 23 -14 26q0 6 1 10q7 3 15 12l-5 6l25 23q-2 3 -7 3q-7 0 -15 -5v1q-1 6 4 10q-2 3 -10.5 12t-8.5 15q0 18 16 34q7 -4 19 -18l3 2q-1 1 -1 7.5t-26 24.5v2q0 1 1 4t1 4q0 7 -8 6h1q2 6 8 16q-5 8 -18 24 q2 0 6.5 -2t7.5 -2t3 2q0 1 -2 3l-3 3q1 1 4 1q12 0 16 19l-11 -14h-16v9q-1 10 9 13v1q0 3 4 7q-5 2 -12 8q-2 7 0 19q-4 17 -15 50q6 9 23 23q-6 12 -21 14h9q4 12 4 27q0 10 -2.5 29.5t-2.5 28.5q0 21 9 32l-3 5l9 18v9q-1 21 8 55q11 4 27 18v4q-2 31 44 48q35 14 72 13 l12 -13q8 7 8 13q26 -4 77 -15l37 -28q22 -19 29 -35q20 -50 20 -128q0 -9 2 -25.5t2 -24.5q0 -9 -1 -27t-1 -27q0 -18 1 -54.5t1 -55.5zM234 75l-5 -4l-7 7l5 4zM200 76q0 -19 -11 -31v4q0 6 -4 10q-3 -5 -11 -13q1 1 8 18q5 11 18 12zM79 48l-4 -4l-11 11l4 5zM360 706 q-12 6 -16 20q-11 -22 -11 -25v-1q14 -8 18 -19q2 10 9 25zM361 645v17h-7v-17h7zM220 784l-7 7l-4 -5l6 -7zM350 614l-5 21q-6 -7 -17 -21h22zM355 541q-5 11 -16 22q-7 -7 -14 -18q9 9 17 9q5 0 5 -5q0 -2 -1.5 -6.5t-1.5 -7.5q0 5 11 6zM360 514l-17 16q5 -11 5 -24 q1 8 12 8zM352 497l-6 2l-6 -11l6 -3zM360 472l-2 6l-11 -6v-6zM311 489l-7 7l-4 -5l6 -7zM321 483l-7 3l-6 -12l7 -3zM101 178l-11 12q-5 -4 -6 -13q1 1 17 1zM89 150l-6 13l-6 -2l5 -11h7zM101 137l-9 12h-6h-15q-2 -2 -2 -4t1 -6t2 -5q-1 6 11 6q3 0 9 -1.5t9 -1.5z M73 152v8h-12v-8h12zM179 27l-3 6l-11 -6v-6zM160 33q-3 7 -17 21q6 -11 6 -23q0 -5 -2 -8z" />
<glyph unicode="&#xe3;" horiz-adv-x="491" d="M138 152l-17 -5v7l15 5zM60 105l-12 -5v6l10 5zM71 94q-3 1 -4 -9t-7 -10q-13 0 -12 1q5 6 10.5 12t12.5 6zM90 35q-6 -15 -28 -25q-8 10 -28 28q2 4 8.5 9t8.5 8l-7 7q-3 0 -8 -2t-9 -2q-2 0 -6 2q10 4 25 11q3 -6 44 -36zM475 52q-3 -5 -4 -44l-1 -5q-17 -10 -32 -10 q-5 0 -6.5 4.5t-6.5 4.5q-4 0 -5 -2.5t-5 -2.5t-3 7q-1 2 -4 2q-4 0 -4 -6q0 -2 -5 -3q-24 0 -35 19q-2 3 -16 77q-11 60 -35 60q-5 0 -6.5 -4.5t-6.5 -4.5q-4 0 -8 6.5t-9 6.5t-5 -1l1 -1q0 -2 -5 -2q-4 0 -4 1t1.5 3t1.5 3l-3 2q-30 11 -39 25q-10 -13 -7 -29 q-7 -1 -12 -1q-10 0 -16 5q-3 -7 -10 -13q-2 6 -2 11q0 3 2 9t2 9q0 5 -7 11q-7 0 -19.5 1.5t-18.5 1.5q0 3 12 16l1 5q0 2 -3 5q-8 -8 -10 -8q0 6 8 14q-5 5 -10 5q-3 0 -6 -2q0 3 7 10q-5 3 -15 11q-4 -4 -3 -17q-7 5 -11 5q0 2 12 14q-4 7 -14 14q-13 9 -16 12q4 6 5 10 q4 0 11 -5l11 -7q2 4 7 11q0 5 -33 24h-1l7 10q-3 6 -3 15q0 26 17 33q-5 3 -15 11q-4 -4 -3 -13q-7 2 -12 7q11 4 30 17l-6 6q-4 -2 -5 -6q-4 7 -9 23q5 -4 14 -13q1 2 2 9q0 4 6 4t6.5 -2t1.5 -2q2 4 8 11l-7 6l-22 -13q-5 4 -10 13q11 0 15 -4l6 7l1 5q0 2 -3 5 q-5 -4 -10 -4q-2 11 -9 33q10 10 34 26v33q-4 4 -17 4q5 18 13 41q4 6 4 8q0 3 -3.5 6t-13.5 6q9 22 22 27q-13 13 -13 21q0 20 14 68q15 52 16 72q28 8 56 17q33 10 56 10q24 0 48 -102l121 -516q8 -37 15 -74q14 -57 28 -62zM109 487h-6l-6 10l7 2zM317 167h-8v15h8v-15z M265 171h-7l-5 10l6 3zM92 335h-8v12h8v-12zM156 262l-11 -11l-4 5l11 10zM105 242l-6 -12l-6 3l6 11zM46 182h-16v7h16v-7zM62 154l-11 -15l-5 4l10 15zM247 526l-4 4l-11 -10l4 -5zM130 604l-4 4l-11 -10l4 -5zM125 457q-9 9 -9 15q-7 0 -7 -16q1 1 16 1zM302 296 q0 38 -20 101q-25 76 -53 76q-35 0 -49 -81q-17 -96 -33 -112q8 -6 25 -21l-8 -9l19 -11l10 9q10 0 30.5 -4.5t31.5 -4.5q16 0 31.5 20t15.5 37zM129 341q-4 1 -11 6q-4 -7 -13 -19q4 3 24 13zM168 223q-9 9 -9 20h-17q9 -10 26 -20zM137 197q-4 8 -15.5 13.5l-22.5 10.5 q3 -3 13 -22l-7 -8h-11q1 3 1 5q0 5 -5 13.5t-6 12.5q0 2 0 -29q0 -9 -6 -19l-9 1q-6 0 -9 -3q9 -2 26 -9q-5 -2 -13 -8q4 -4 6 -11q7 7 12 7l4 -1q0 -6 -22 -26q11 1 22.5 3t18.5 9l10 -9q-2 6 -12 27q6 3 6 10q0 5 -3 15l-12 -5q-4 2 -8 7q1 0 9 7q5 4 10 4q11 0 10 -4 l-1 7q0 3 3 6q5 -5 11 -4z" />
<glyph unicode="&#xf1;" horiz-adv-x="448" d="M409 781q0 -8 -2.5 -23.5t-2.5 -23.5l-10 -1q-4 0 -11.5 2t-10.5 2q-14 0 -17 -5v-17q0 -6 -3 -11.5t-3 -6.5q1 -3 3 -1q-22 7 -28 18q2 2 5 7l-2 3q-9 -6 -11.5 -9t-3.5 -13q-13 26 -13 46q0 33 14 43q11 8 45 8q29 0 51 -18zM395 724q0 -22 -11 -22t-11 -2q1 -3 3 -5 q-4 4 -15 3l5 22q4 -2 8 -2q10 0 21 6zM409 400q-9 6 -18 6q-6 0 -13 -2q18 -9 16 -14v-216q0 -18 7.5 -66t7.5 -69q0 -29 -11.5 -36.5t-41.5 -7.5q-16 0 -36.5 9.5t-26.5 22.5q-3 6 -15 67q-10 20 -22 62q-20 131 -88 131q-5 0 -15 -12q-6 -9 -12 -17q2 -4 2 -10 q0 -16 -10 -25l-20 -18q1 -1 4 -1q4 0 13 3.5t14 3.5v-186q0 -6 -10 -25q-10 -2 -30 -2q-41 0 -48 1q-27 7 -27 34l6 774l5 -4l4 3q3 -1 7 -1q8 0 23.5 3t22.5 3q-8 0 36 -6q30 -30 30 -58v-9q-1 -7 -1 -10q0 -16 5 -32q1 -3 6.5 -11t5.5 -14q0 -10 -7 -14.5l-15 -9.5 q2 -2 6 -2t13 2q9 -7 25 -51q15 -40 20 -40q6 0 8 2t3 2q0 -3 -9 -11q8 -8 21 -24q0 1 3 7q1 2 7 2q5 0 5 -1v-2q1 -1 4 -1q8 0 5 8q3 0 16 -13l20 30q8 46 8 60q0 7 -4 21.5t-4 22.5v2q6 3 13 12q-2 4 -2 8q0 9 10 16l-1 -2q0 -24 30 -24q2 0 7 1t7 1q3 0 8 -2l8 22 q21 -20 21 -29q0 -5 -3 -16t-3 -16q-10 3 -13 3q-4 0 -8 -2q2 -1 2.5 -6t6.5 -5q4 0 8 2t5 2q-1 -2 -1 -6q0 -3 1 -10.5t1 -11.5q0 -15 -10 -23v-157q5 -7 18 -18zM245 190q-7 -4 -12 -4q0 1 -1 5v6q0 5 2 10q11 -12 11 -17zM383 572q-5 2 -12 2t-15 -2l9 -5q-5 -5 -5 -7 q0 -1 3 -4q2 3 4 3q2 -1 3 -4l-12 -6v-1q0 -2 1 -7v-6q0 -3 -5 -10q-9 9 -9 11q0 -5 -5 -11.5t-5 -7.5q30 3 36 21t12 34zM336 526v16h-8v-16h8zM140 521l-12 6l-2 -7l11 -5zM378 155v15l-14 15q-5 0 -9.5 4t-6.5 4q0 -3 -5 -4q-3 0 -11 1q-6 0 -8 -1q-1 5 -1 29l-1 3h-1 q-3 0 -5 2l7 6q14 -12 13 -35q11 22 11 27q5 0 5 -4q0 -2 -1.5 -6t-1.5 -6q8 3 15 11q-3 -1 -4 -1q-7 0 -5 18q-2 0 -6.5 -3.5t-7.5 -3.5q-2 0 -3 1q4 8 20 24q3 -6 11 -12q4 7 8 21q-11 -5 -15 -5l-6 3q9 4 9 10q0 13 -1 9q-4 -4 -10 -4q-11 0 -11 11q0 4 1.5 12.5 t1.5 12.5q8 -8 12 -8v-12q0 3 3.5 10.5t3.5 12.5l-18 5v19l7 8q5 -6 15 -12q-5 6 -10 19q5 65 5 59v5q-7 -5 -8 -5q-2 1 -4 3q4 6 8.5 19.5t8.5 20.5q-5 4 -10 15q-4 -5 -18 -5q-15 0 -19 5q1 -4 1 -8q0 -17 -14.5 -30.5l-27.5 -26.5q8 -2 14.5 -10t11.5 -16q-3 -2 -12 -6 q2 -1 2 -3q0 -5 -10 -15q-13 -13 -14 -15v-15q4 0 8 -3q-8 -5 -12 -15t-6 -12q22 -19 22 -31q0 -5 -17 -22q12 -6 12 -31q0 -15 -8 -23q11 0 16 -16t22 -16q4 0 13 9q1 -1 1 -9q0 -4 6 -4q25 0 21 0q0 13 6 13q3 -5 10 -13q5 4 11 5zM388 122l-7 7l-4 -5l6 -6zM298 121v8 h-21v-8h21zM348 450l-18 -6v7l15 5zM357 424h-6l-5 15l6 3zM333 422h-12v8h12v-8zM322 296h-7v16h7v-16zM324 272h-11v7h11v-7zM308 269l-3 -6l-14 5v7zM317 189l-13 -5v6l10 5z" />
<glyph unicode="&#xf5;" d="M387 392q0 -34 -6.5 -101t-6.5 -101q0 -8 1 -25t1 -25q0 -43 -17 -61q-30 -31 -34 -38q1 4 7.5 14.5t6.5 19.5v6q-9 -7 -17 -22q-1 0 -10 9q-5 -4 -16 -11q18 -9 18 -20q-11 -2 -22.5 -5t-16.5 -14q0 4 -3 13t-3 14q0 8 10 17q9 6 17 12q-1 0 -20 30q-2 -2 -4 -7 q5 -13 5 -20q-11 1 -31 7q9 1 19.5 14t18.5 13q4 0 9 -3l4 15q-4 2 -9 2q-8 0 -13 -7v13q0 21 8 31v488q-4 4 -13 4q0 11 8 20q-6 11 -21 28q-12 8 -24 17q-17 12 -23 12q-36 0 -62 -36q-23 -32 -23 -70q0 -102 12 -124q-13 -6 -13 -28q0 -8 2 -22.5t2 -21.5q0 -14 1 -43 v-43q0 -35 -2 -60q-1 -6 -5 -17.5t-4 -19.5q0 -21 3 -61t3 -60q0 -8 -8 -19q2 -4 2 -9q0 -19 -12 -27q3 -6 11 -16q3 5 5 19q2 11 11 19q4 2 11 7l6 -5v-17h-3q-9 0 -14 -11q2 -4 7 -12q2 7 9 18q2 -2 9 -21q5 -15 10.5 -15t15 -2.5t13.5 -2.5q3 11 10 32h5q23 -1 28 5 q9 -7 20 -20v-5q1 -2 1 -4q0 -8 -8 -8q4 0 -8 4l-3 -2q9 -19 18 -27q-24 -15 -48 -15q-69 0 -86 27l-9 -9q-24 11 -24 25q0 6 3.5 13.5t3.5 10.5q0 6 -3 7q1 -1 2 -1q3 0 3 6q0 13 -14 17q4 7 5 12q4 -2 14 -4q3 3 3 4q0 21 -4 23q-8 2 -15 5l-1 -5q0 -8 6 -18l-11 9 q-15 -21 -32 -27q-4 6 -4 15q0 10 5 15q-4 6 -9 18q7 7 7 18q0 23 -14 26q0 6 1 10q7 3 15 12l-5 6l25 23q-2 3 -7 3q-7 0 -15 -5v1q-1 6 4 10q-2 3 -10.5 12t-8.5 15q0 18 16 34q7 -4 19 -18l3 2q-1 1 -1 7.5t-26 24.5v2q0 1 1 4t1 4q0 7 -8 6h1q2 6 8 16q-5 8 -18 24 q2 0 6.5 -2t7.5 -2t3 2q0 1 -2 3l-3 3q1 1 4 1q12 0 16 19l-11 -14h-16v9q-1 10 9 13v1q0 3 4 7q-5 2 -12 8q-2 7 0 19q-4 17 -15 50q6 9 23 23q-6 12 -21 14h9q4 12 4 27q0 10 -2.5 29.5t-2.5 28.5q0 21 9 32l-3 5l9 18v9q-1 21 8 55q11 4 27 18v4q-2 31 44 48q35 14 72 13 l12 -13q8 7 8 13q26 -4 77 -15l37 -28q22 -19 29 -35q20 -50 20 -128q0 -9 2 -25.5t2 -24.5q0 -9 -1 -27t-1 -27q0 -18 1 -54.5t1 -55.5zM234 75l-5 -4l-7 7l5 4zM200 76q0 -19 -11 -31v4q0 6 -4 10q-3 -5 -11 -13q1 1 8 18q5 11 18 12zM79 48l-4 -4l-11 11l4 5zM360 706 q-12 6 -16 20q-11 -22 -11 -25v-1q14 -8 18 -19q2 10 9 25zM361 645v17h-7v-17h7zM220 784l-7 7l-4 -5l6 -7zM350 614l-5 21q-6 -7 -17 -21h22zM355 541q-5 11 -16 22q-7 -7 -14 -18q9 9 17 9q5 0 5 -5q0 -2 -1.5 -6.5t-1.5 -7.5q0 5 11 6zM360 514l-17 16q5 -11 5 -24 q1 8 12 8zM352 497l-6 2l-6 -11l6 -3zM360 472l-2 6l-11 -6v-6zM311 489l-7 7l-4 -5l6 -7zM321 483l-7 3l-6 -12l7 -3zM101 178l-11 12q-5 -4 -6 -13q1 1 17 1zM89 150l-6 13l-6 -2l5 -11h7zM101 137l-9 12h-6h-15q-2 -2 -2 -4t1 -6t2 -5q-1 6 11 6q3 0 9 -1.5t9 -1.5z M73 152v8h-12v-8h12zM179 27l-3 6l-11 -6v-6zM160 33q-3 7 -17 21q6 -11 6 -23q0 -5 -2 -8z" />
<glyph unicode="&#x152;" horiz-adv-x="863" d="M637 16l-17 -1q0 13 7 13zM617 13q-6 0 -15 9q8 5 13 5q-2 -3 -2 -7q0 -7 4 -7zM850 49q-5 -3 -12 -11q-5 -27 -9 -35q-8 -19 -28 -19q-6 0 -18.5 6.5t-18.5 6.5q-5 0 -14 -9l-9 9q-10 -2 -22 -2q-13 0 -38 5.5t-37 5.5q-7 0 -5 -11q0 2 -9 11q-15 -13 -37 -13 q-3 0 -21 2q-13 1 -22 -1l1 2q0 6 -9 6q-5 0 -6 -4.5t-5 -4.5t-16.5 4.5t-22.5 4.5l-19 583q-1 46 -7 98q-6 60 -6 61q0 16 18 49q6 3 24 3q72 2 217 7q8 0 24 3t25 3q37 0 50 -19q10 -15 10 -55q0 -28 -10.5 -39.5t-37.5 -11.5q-30 0 -90 2.5t-90 2.5q-11 0 -24.5 -24.5 t-13.5 -35.5q0 -6 7 -9q3 -24 3 -84q0 -8 -5 -14q4 -13 4 -47q7 -8 11 -8t7.5 2.5t7.5 2.5q6 0 14 -7t13 -7q20 0 60 2.5t60 2.5q27 0 27 -47q0 -38 -4 -46q-7 -18 -37 -18q-12 0 -35.5 2t-35.5 2q-8 0 -36 -6.5t-32.5 -11.5t-12 -39t-7.5 -40l2 -5.5t2 -16.5q0 -17 -10 -56 v-2q0 -2 -1.5 -7.5t-1.5 -8.5q0 -6 7.5 -25.5t8.5 -27.5l-8 -5v-16l7 -3q1 1 1 4t-1 7t-1 6h16q4 -4 13 -40q5 3 5 9.5t2 8.5q1 0 3 -7q2 -10 3 -10l9 8v-5q0 -8 4 -12q5 1 15 6l-8 3v17q5 0 13 8.5t9 9.5q0 1 0 -21q0 -6 2 -10q4 4 8 16q30 9 36 24q3 -6 7 -12t11 -6 q5 0 12 4.5t9 5.5q23 8 63 8q15 0 24 -28t18 -31zM558 31l-6 7l-5 -4l7 -7zM387 392q0 -34 -6.5 -101t-6.5 -101q0 -8 1 -25t1 -25q0 -43 -17 -61q-30 -31 -34 -38q1 4 7.5 14.5t6.5 19.5v6q-9 -7 -17 -22q-1 0 -10 9q-5 -4 -16 -11q18 -9 18 -20q-11 -2 -22.5 -5t-16.5 -14 q0 4 -3 13t-3 14q0 8 10 17q9 6 17 12q-1 0 -20 30q-2 -2 -4 -7q5 -13 5 -20q-11 1 -31 7q9 1 19.5 14t18.5 13q4 0 9 -3l4 15q-4 2 -9 2q-8 0 -13 -7v13q0 21 8 31v488q-4 4 -13 4q0 11 8 20q-6 11 -21 28q-12 8 -24 17q-17 12 -23 12q-36 0 -62 -36q-23 -32 -23 -70 q0 -102 12 -124q-13 -6 -13 -28q0 -8 2 -22.5t2 -21.5q0 -14 1 -43v-43q0 -35 -2 -60q-1 -6 -5 -17.5t-4 -19.5q0 -21 3 -61t3 -60q0 -8 -8 -19q2 -4 2 -9q0 -19 -12 -27q3 -6 11 -16q3 5 5 19q2 11 11 19q4 2 11 7l6 -5v-17h-3q-9 0 -14 -11q2 -4 7 -12q2 7 9 18 q2 -2 9 -21q5 -15 10.5 -15t15 -2.5t13.5 -2.5q3 11 10 32h5q23 -1 28 5q9 -7 20 -20v-5q1 -2 1 -4q0 -8 -8 -8q4 0 -8 4l-3 -2q9 -19 18 -27q-24 -15 -48 -15q-69 0 -86 27l-9 -9q-24 11 -24 25q0 6 3.5 13.5t3.5 10.5q0 6 -3 7q1 -1 2 -1q3 0 3 6q0 13 -14 17q4 7 5 12 q4 -2 14 -4q3 3 3 4q0 21 -4 23q-8 2 -15 5l-1 -5q0 -8 6 -18l-11 9q-15 -21 -32 -27q-4 6 -4 15q0 10 5 15q-4 6 -9 18q7 7 7 18q0 23 -14 26q0 6 1 10q7 3 15 12l-5 6l25 23q-2 3 -7 3q-7 0 -15 -5v1q-1 6 4 10q-2 3 -10.5 12t-8.5 15q0 18 16 34q7 -4 19 -18l3 2 q-1 1 -1 7.5t-26 24.5v2q0 1 1 4t1 4q0 7 -8 6h1q2 6 8 16q-5 8 -18 24q2 0 6.5 -2t7.5 -2t3 2q0 1 -2 3l-3 3q1 1 4 1q12 0 16 19l-11 -14h-16v9q-1 10 9 13v1q0 3 4 7q-5 2 -12 8q-2 7 0 19q-4 17 -15 50q6 9 23 23q-6 12 -21 14h9q4 12 4 27q0 10 -2.5 29.5t-2.5 28.5 q0 21 9 32l-3 5l9 18v9q-1 21 8 55q11 4 27 18v4q-2 31 44 48q35 14 72 13l12 -13q8 7 8 13q26 -4 77 -15l37 -28q22 -19 29 -35q20 -50 20 -128q0 -9 2 -25.5t2 -24.5q0 -9 -1 -27t-1 -27q0 -18 1 -54.5t1 -55.5zM234 75l-5 -4l-7 7l5 4zM200 76q0 -19 -11 -31v4q0 6 -4 10 q-3 -5 -11 -13q1 1 8 18q5 11 18 12zM79 48l-4 -4l-11 11l4 5zM360 706q-12 6 -16 20q-11 -22 -11 -25v-1q14 -8 18 -19q2 10 9 25zM361 645v17h-7v-17h7zM220 784l-7 7l-4 -5l6 -7zM350 614l-5 21q-6 -7 -17 -21h22zM355 541q-5 11 -16 22q-7 -7 -14 -18q9 9 17 9q5 0 5 -5 q0 -2 -1.5 -6.5t-1.5 -7.5q0 5 11 6zM360 514l-17 16q5 -11 5 -24q1 8 12 8zM352 497l-6 2l-6 -11l6 -3zM360 472l-2 6l-11 -6v-6zM311 489l-7 7l-4 -5l6 -7zM321 483l-7 3l-6 -12l7 -3zM101 178l-11 12q-5 -4 -6 -13q1 1 17 1zM89 150l-6 13l-6 -2l5 -11h7zM101 137l-9 12 h-6h-15q-2 -2 -2 -4t1 -6t2 -5q-1 6 11 6q3 0 9 -1.5t9 -1.5zM73 152v8h-12v-8h12zM179 27l-3 6l-11 -6v-6zM160 33q-3 7 -17 21q6 -11 6 -23q0 -5 -2 -8z" />
<glyph unicode="&#x153;" horiz-adv-x="863" d="M637 16l-17 -1q0 13 7 13zM617 13q-6 0 -15 9q8 5 13 5q-2 -3 -2 -7q0 -7 4 -7zM850 49q-5 -3 -12 -11q-5 -27 -9 -35q-8 -19 -28 -19q-6 0 -18.5 6.5t-18.5 6.5q-5 0 -14 -9l-9 9q-10 -2 -22 -2q-13 0 -38 5.5t-37 5.5q-7 0 -5 -11q0 2 -9 11q-15 -13 -37 -13 q-3 0 -21 2q-13 1 -22 -1l1 2q0 6 -9 6q-5 0 -6 -4.5t-5 -4.5t-16.5 4.5t-22.5 4.5l-19 583q-1 46 -7 98q-6 60 -6 61q0 16 18 49q6 3 24 3q72 2 217 7q8 0 24 3t25 3q37 0 50 -19q10 -15 10 -55q0 -28 -10.5 -39.5t-37.5 -11.5q-30 0 -90 2.5t-90 2.5q-11 0 -24.5 -24.5 t-13.5 -35.5q0 -6 7 -9q3 -24 3 -84q0 -8 -5 -14q4 -13 4 -47q7 -8 11 -8t7.5 2.5t7.5 2.5q6 0 14 -7t13 -7q20 0 60 2.5t60 2.5q27 0 27 -47q0 -38 -4 -46q-7 -18 -37 -18q-12 0 -35.5 2t-35.5 2q-8 0 -36 -6.5t-32.5 -11.5t-12 -39t-7.5 -40l2 -5.5t2 -16.5q0 -17 -10 -56 v-2q0 -2 -1.5 -7.5t-1.5 -8.5q0 -6 7.5 -25.5t8.5 -27.5l-8 -5v-16l7 -3q1 1 1 4t-1 7t-1 6h16q4 -4 13 -40q5 3 5 9.5t2 8.5q1 0 3 -7q2 -10 3 -10l9 8v-5q0 -8 4 -12q5 1 15 6l-8 3v17q5 0 13 8.5t9 9.5q0 1 0 -21q0 -6 2 -10q4 4 8 16q30 9 36 24q3 -6 7 -12t11 -6 q5 0 12 4.5t9 5.5q23 8 63 8q15 0 24 -28t18 -31zM558 31l-6 7l-5 -4l7 -7zM387 392q0 -34 -6.5 -101t-6.5 -101q0 -8 1 -25t1 -25q0 -43 -17 -61q-30 -31 -34 -38q1 4 7.5 14.5t6.5 19.5v6q-9 -7 -17 -22q-1 0 -10 9q-5 -4 -16 -11q18 -9 18 -20q-11 -2 -22.5 -5t-16.5 -14 q0 4 -3 13t-3 14q0 8 10 17q9 6 17 12q-1 0 -20 30q-2 -2 -4 -7q5 -13 5 -20q-11 1 -31 7q9 1 19.5 14t18.5 13q4 0 9 -3l4 15q-4 2 -9 2q-8 0 -13 -7v13q0 21 8 31v488q-4 4 -13 4q0 11 8 20q-6 11 -21 28q-12 8 -24 17q-17 12 -23 12q-36 0 -62 -36q-23 -32 -23 -70 q0 -102 12 -124q-13 -6 -13 -28q0 -8 2 -22.5t2 -21.5q0 -14 1 -43v-43q0 -35 -2 -60q-1 -6 -5 -17.5t-4 -19.5q0 -21 3 -61t3 -60q0 -8 -8 -19q2 -4 2 -9q0 -19 -12 -27q3 -6 11 -16q3 5 5 19q2 11 11 19q4 2 11 7l6 -5v-17h-3q-9 0 -14 -11q2 -4 7 -12q2 7 9 18 q2 -2 9 -21q5 -15 10.5 -15t15 -2.5t13.5 -2.5q3 11 10 32h5q23 -1 28 5q9 -7 20 -20v-5q1 -2 1 -4q0 -8 -8 -8q4 0 -8 4l-3 -2q9 -19 18 -27q-24 -15 -48 -15q-69 0 -86 27l-9 -9q-24 11 -24 25q0 6 3.5 13.5t3.5 10.5q0 6 -3 7q1 -1 2 -1q3 0 3 6q0 13 -14 17q4 7 5 12 q4 -2 14 -4q3 3 3 4q0 21 -4 23q-8 2 -15 5l-1 -5q0 -8 6 -18l-11 9q-15 -21 -32 -27q-4 6 -4 15q0 10 5 15q-4 6 -9 18q7 7 7 18q0 23 -14 26q0 6 1 10q7 3 15 12l-5 6l25 23q-2 3 -7 3q-7 0 -15 -5v1q-1 6 4 10q-2 3 -10.5 12t-8.5 15q0 18 16 34q7 -4 19 -18l3 2 q-1 1 -1 7.5t-26 24.5v2q0 1 1 4t1 4q0 7 -8 6h1q2 6 8 16q-5 8 -18 24q2 0 6.5 -2t7.5 -2t3 2q0 1 -2 3l-3 3q1 1 4 1q12 0 16 19l-11 -14h-16v9q-1 10 9 13v1q0 3 4 7q-5 2 -12 8q-2 7 0 19q-4 17 -15 50q6 9 23 23q-6 12 -21 14h9q4 12 4 27q0 10 -2.5 29.5t-2.5 28.5 q0 21 9 32l-3 5l9 18v9q-1 21 8 55q11 4 27 18v4q-2 31 44 48q35 14 72 13l12 -13q8 7 8 13q26 -4 77 -15l37 -28q22 -19 29 -35q20 -50 20 -128q0 -9 2 -25.5t2 -24.5q0 -9 -1 -27t-1 -27q0 -18 1 -54.5t1 -55.5zM234 75l-5 -4l-7 7l5 4zM200 76q0 -19 -11 -31v4q0 6 -4 10 q-3 -5 -11 -13q1 1 8 18q5 11 18 12zM79 48l-4 -4l-11 11l4 5zM360 706q-12 6 -16 20q-11 -22 -11 -25v-1q14 -8 18 -19q2 10 9 25zM361 645v17h-7v-17h7zM220 784l-7 7l-4 -5l6 -7zM350 614l-5 21q-6 -7 -17 -21h22zM355 541q-5 11 -16 22q-7 -7 -14 -18q9 9 17 9q5 0 5 -5 q0 -2 -1.5 -6.5t-1.5 -7.5q0 5 11 6zM360 514l-17 16q5 -11 5 -24q1 8 12 8zM352 497l-6 2l-6 -11l6 -3zM360 472l-2 6l-11 -6v-6zM311 489l-7 7l-4 -5l6 -7zM321 483l-7 3l-6 -12l7 -3zM101 178l-11 12q-5 -4 -6 -13q1 1 17 1zM89 150l-6 13l-6 -2l5 -11h7zM101 137l-9 12 h-6h-15q-2 -2 -2 -4t1 -6t2 -5q-1 6 11 6q3 0 9 -1.5t9 -1.5zM73 152v8h-12v-8h12zM179 27l-3 6l-11 -6v-6zM160 33q-3 7 -17 21q6 -11 6 -23q0 -5 -2 -8z" />
<glyph unicode="&#x2000;" horiz-adv-x="408" />
<glyph unicode="&#x2001;" horiz-adv-x="817" />
<glyph unicode="&#x2002;" horiz-adv-x="408" />
<glyph unicode="&#x2003;" horiz-adv-x="817" />
<glyph unicode="&#x2004;" horiz-adv-x="272" />
<glyph unicode="&#x2005;" horiz-adv-x="204" />
<glyph unicode="&#x2006;" horiz-adv-x="136" />
<glyph unicode="&#x2007;" horiz-adv-x="136" />
<glyph unicode="&#x2008;" horiz-adv-x="102" />
<glyph unicode="&#x2009;" horiz-adv-x="163" />
<glyph unicode="&#x200a;" horiz-adv-x="45" />
<glyph unicode="&#x2013;" horiz-adv-x="500" d="M100 250v100h300v-100h-300z" />
<glyph unicode="&#x2014;" horiz-adv-x="1000" d="M100 250v100h800v-100h-800z" />
<glyph unicode="&#x2026;" horiz-adv-x="1083" d="M860 9q-15 0 -30.5 19t-15.5 31q0 18 28 40.5t48 22.5q19 0 31 -16.5t12 -39.5q0 -27 -24 -43q-20 -14 -49 -14zM499 9q-15 0 -30.5 19t-15.5 31q0 18 28 40.5t48 22.5q19 0 31 -16.5t12 -39.5q0 -27 -24 -43q-20 -14 -49 -14zM138 9q-15 0 -30.5 19t-15.5 31 q0 18 28 40.5t48 22.5q19 0 31 -16.5t12 -39.5q0 -27 -24 -43q-20 -14 -49 -14z" />
<glyph unicode="&#x202f;" horiz-adv-x="163" />
<glyph unicode="&#x205f;" horiz-adv-x="204" />
<glyph unicode="&#x2122;" horiz-adv-x="979" d="M937 458q-5 -32 -5 -75q0 5 -5 9q-1 -4 -6 -11q5 -2 13 -8q0 -3 -14 -15h-25q3 5 3 9q0 3 -6.5 10.5t-7.5 16.5q0 3 1 8v8q0 6 -2 11q4 2 12 9q0 -1 -18 17q13 6 27 14q0 2 -3 5q-10 -4 -24 -8q18 4 18 29q0 20 -9 30q4 0 11 -7q8 7 8 13q0 3 -3 7.5t-3 5.5q9 7 9 10 q-2 2 -5 2q-2 0 -6 -1t-6 -1q-4 5 -9 16q3 0 8.5 -2t8.5 -2t2 7q1 2 5 2q13 0 23 -6q0 -1 -12 -14q3 -4 12 -3q-4 -11 -4 -29q0 -34 12 -57zM860 328q-4 -6 -10 -6v11q0 8 -6 13q7 -4 16 -18zM938 636v-2q0 -7 -8.5 -18.5t-8.5 -19.5q0 -9 8 -19q-12 1 -11 1q-12 0 -24 -8h1 q1 0 4 3q-1 1 -13 10q-9 6 -15 6q-5 0 -9 -5l-9 9q-1 -5 -4 -15q3 -4 5 -11q-5 0 -10 4q-5 -5 -8.5 -15.5t-15.5 -17.5q2 -11 9 -30q-3 -5 -22 -14q1 -3 1 -8q0 -1 -2 -17q-1 -11 1 -16h-4q0 -8 9.5 -25.5t16.5 -24.5l-26 -14v-4q-1 -3 3 -6q3 2 6 8h17l-1 -5q0 -4 4 -7 q8 3 22 12v-16q-11 0 -16 -5q-12 -11 -13 -12q5 -4 13 -11q0 -10 -7 -17q-10 14 -25 18q0 1 -7 -7q8 -8 21 -13h-5q-4 0 -21 -3q-2 -7 -28 -21l-9 5q-1 -1 -1 -4q0 -2 1 -6.5t1 -6.5q0 -13 -10 -19t-20 -11q1 -6 18 -11q-5 -7 -11 -20q-12 -1 -24 -9q2 -3 5 -6l-7 5 q-2 -2 -4 -6q0 -7 4 -18q-1 1 -3 1q1 0 -8 -9q10 -5 22 -28q-19 -6 -19.5 -36.5t-14.5 -33.5q-2 5 -2 13q0 13 6 20v3v3q0 4 -7 4q-6 0 -7.5 -2t-2.5 -2l-2 4q2 3 5 6q-6 2 -17 9q1 2 12 13q7 7 7 15q0 5 -1 10q-6 0 -6 -13q0 4 -10 8l-7 3q2 3 2 7v9q-1 5 -1 8 q-5 0 -8 -4.5t-5 -4.5q0 3 8 11q0 7 -8 8l-4 -2q-1 22 -1 17q0 25 22 30l-3 18q-8 -17 -22 -17q-5 5 -14 5q0 9 1 28q-1 2 -8 4t-6 12q-6 0 -17 1.5t-16 1.5q-14 0 -30 -22t-16 -37l-4 12q-3 0 -11 8q-3 -2 -4 -6v-4.5v-6.5q-1 -5 -1 -7q0 11 -9 15q-4 -1 -5 -9l-2 -12h-3 q-15 0 -30 -5q-9 8 -22 28q-5 23 -5 204q0 61 -6 94q0 3 5 11.5t5 14.5q0 25 -8.5 75.5t-8.5 74.5q0 8 2 22t2 21q13 5 33 19q0 -5 6 -7t43 -2h22l34 -124q17 -42 46 -127q4 -12 28 -53q17 -29 19 -32q12 -14 33 -14q29 0 53 73l1 2q0 4 -5 10q5 4 25 54q8 15 23 46 q10 20 12 41q3 4 12.5 5.5t11.5 4.5q-9 3 -26 11q9 13 5 32q6 1 11 5q5 -6 20 -13v2q0 5 -4.5 15.5l-4.5 10.5v29q2 -1 5 -1q8 0 17 4q-1 5 -5 6q-3 6 -3 9v2q5 2 40 24q3 -5 9 -13l9 8q11 -5 30 -16q7 -1 7 -12q0 -13 -18 -31q4 -3 10 -13v-3q0 -6 3 -17t3 -16 q0 -25 -12 -43v-12q7 -6 22 -12zM956 78q0 -70 -26 -70h-33q-32 0 -43 15t-11 48q0 11 1 26q3 2 12 10q-1 6 -13 6q2 9 2 15q0 14 -7 15q0 15 17 32q-3 4 -8 4v15l17 18q0 9 -17 15v47q14 0 19 -4q3 1 3 5q-5 5 -17 4q0 9 -4 26l-12 -9q-4 5 -13 11q1 0 4.5 -1t6.5 -1 q1 0 7 6t23 6q0 -7 -9 -15q5 -9 20 -19q12 10 12 18q0 6 -5 10q10 8 30 22l-17 14h7q3 0 8 -1q0 -3 7 -11q1 7 7 18q-1 -3 -3 -10q2 -3 6 -3q6 0 8 1.5t3 1.5q0 -10 -7 -19q2 -11 12 -29q0 -7 -6.5 -14t-12.5 -7t-6.5 -4.5t-5.5 -4.5q-9 0 -9 -3v-2l8 -8q11 0 11 13 q20 -9 20 -38q0 -18 -5 -29q6 -14 10 -37q5 -32 7 -38q-4 -4 -4 -19v-20zM545 29q0 -17 -5 -30q-10 0 -30 -4.5t-30 -4.5q-19 0 -38 14q-6 55 -6 63q0 19 5 58t5 58.5t12 18.5q-3 3 -8 3q0 2 18 21q6 -5 11 -5q-7 -11 -17 -32q3 -4 14 -11q0 3 3 7t3 6l-1 3l-5 5 q16 -1 23 -12q2 7 12 15.5t12 12.5l-8 8t-4 7q0 4 6 5t6 4q0 1 -1 4t-1 5q1 -5 11 -33q9 -24 9 -30q0 -10 -18 -26q13 -7 13 -14q0 -5 -8 -13q6 -2 17 -9q-7 -5 -12 -16q-9 -17 -10 -18q22 -26 22 -60zM872 696v8l-25 4v-7zM853 646v16h-8v-16h8zM918 500l-7 7l-4 -5l6 -6z M809 600l-6 2l-6 -11l6 -3zM826 574l-6 2l-6 -11l7 -3zM808 527l-3 6l-10 -5v-6zM802 414q0 11 -6 17q-8 -16 -8 -24q0 7 14 7zM499 681v12h-8v-12h8zM787 393v11h-8v-11h8zM815 360v7h-11v-7h11zM911 239q-5 -5 -16 -9v-21q5 0 11 -5q7 13 7 26q0 5 -2 9zM892 218l-6 13 l-6 -3l5 -10h7zM750 308q-5 0 -12 -4q0 -4 4.5 -12t2.5 -14q5 16 5 30zM545 471q-3 7 -6 21q-5 -10 -10 -26q5 5 16 5zM881 137v8h-25v-8h25zM886 115q-10 5 -26 10q0 -2 15 -17q5 4 11 7zM720 274l-11 6l-2 -6l11 -6zM732 229v7h-20v-7h20zM585 377l-11 11q-5 -8 -15 -21 q16 0 26 10zM672 223q-4 10 -17 25q1 -8 8 -15q-6 -4 -12 -11zM536 353q-5 10 -16 26v-21q11 0 16 -5zM512 367v20h-8v-20h8zM370 736q0 -56 -34 -56q-5 0 -23 4t-22 4q-16 0 -27 -9q-3 -2 -26 -28q-1 -3 1 -9.5t2 -8.5q-9 -2 -23 12q-7 -12 3 -18q1 -6 1 -15q-11 -4 -11 -7 l7 -7q8 8 14 8q0 -3 -21 -24q-1 -2 3 -6q12 0 12 11q0 -2 5.5 -8.5t6.5 -8.5q1 -8 -2 -27t-3 -29l11 -17q1 -10 1 -43v-139q0 -6 -4 -17.5t-4 -16.5t4.5 -16t4.5 -15t-4 -13q4 -7 4 -30q1 -30 2 -35q1 -3 -2.5 -15t-3.5 -19q0 -4 4 -13t5 -12q3 -25 3 -44q0 -71 -37 -71 q-5 0 -30 -2t-30 -2q-18 0 -28 21q-9 17 -9 37l31 559q0 49 -12 54q-32 15 -34 15q-5 0 -30 -4.5t-30 -4.5q-32 0 -32 65q0 20 8 41q10 28 28 28q6 0 13.5 -2.5t12.5 -2.5t15.5 -3.5t14.5 -3.5q46 0 56 1q2 -5 9 -15q9 5 25 11q12 -4 33 -4q24 0 60 5t35 5q30 0 40 -18 q7 -13 7 -42zM231 745v21q-9 -10 -33 -10zM219 735q-1 0 -17 -15q3 0 7 -6.5t5 -7.5q0 4 2.5 14.5t2.5 14.5zM202 708v8h-25v-8h25zM184 752q-5 -4 -13 -9.5t-10 -6.5l-10 8q11 -20 15 -30q1 5 18 38zM191 689v16h-8v-16h8zM204 611v16h-8v-16h8zM203 248l-3 6l-19 -9v-7z " />
<glyph unicode="&#xe000;" horiz-adv-x="805" d="M0 805h805v-805h-805v805z" />
<glyph unicode="&#xfb01;" horiz-adv-x="594" d="M439 723h-7l-5 11l6 2zM549 372q-7 -11 -22 -31q15 -23 15 -34l-13.5 -33t-13.5 -57q0 -25 13.5 -57t13.5 -33q0 -9 -14 -28t-16 -28h-5q-9 -1 -18 4q-3 -2 -3 -5t4 -7q1 3 -10 3q-9 0 -21 -12q1 -9 14 -22q-13 0 -23 -5q0 -8 16 -19q9 5 19 5q18 0 42 -21l-60 -15h-20 q-14 20 -14 45q0 11 4 32t4 32q0 14 -5 25q-4 2 -4 6t5 15.5t6 16.5q4 39 4 125q0 10 2 44q1 27 0 44q11 3 11 14q0 19 -11 39q3 6 3 15t-3 25t-3 25q0 16 9 26q-5 6 -18 17l10 23q-4 17 -4 18v1q13 7 13 28q-1 2 -3 4q-8 -8 -11 -8q3 13 3 22q0 13 -6 20.5t-6 12.5 q0 6 7 16t7 19q0 7 -2 19q6 16 6 15q0 9 -6 28.5t-12 22.5q10 28 16 33q9 10 33 10q13 0 20 -13q3 3 3 8q18 0 30 -8l13 8q0 -3 -12 -15q8 -9 8 -22q0 -8 -5 -19t-5 -17q0 -8 6 -18l-36 -9q8 -4 31 -3q0 -16 13 -43l-6 2q-5 -7 -16 -19v-52q4 -3 9 -4q0 -5 -2.5 -16.5 t-2.5 -17.5q0 -10 12 -11q-11 -41 -11 -86q0 -1 1.5 -6.5t1.5 -6.5q3 -11 3 -19q0 -7 -3 -12q3 -13 15 -36zM527 789l-2 6l-15 -5v-6zM519 676l-6 2l-6 -11l6 -3zM533 647v12h-8v-12h8zM532 150l-7 7l-4 -5l6 -7zM363 758q0 -38 -19 -48q-11 -7 -55 -7q-9 0 -27 18h-1 q-2 0 -16 -13q-6 5 -11 5q1 1 9.5 5.5t8.5 5.5t-3 2q-18 1 -50 5q4 5 9 18l-8 7q-7 -7 -7 -35q-3 5 -10 13q-1 -1 -6 -9.5t-12 -8.5q-5 0 -8 2.5t-4 2.5q-1 -8 -5 -22l-10 9q-3 0 -3.5 -4.5t-0.5 -7.5h-6q-13 0 -13 -5q0 -2 4 -6q-1 1 -2 1q-4 0 -12 -8q0 4 0 -16q0 -2 2 -2 q1 0 7 2q-8 -4 -22 -10q2 -2 2 -4v-1q0 -2 7 -2q3 0 7 1.5t6 1.5q-9 -8 -9 -14q0 -11 8.5 -31.5t8.5 -30.5t-8 -17q9 -7 9 -18q0 -5 -1.5 -13.5t-1.5 -12.5l22 -29q14 -18 30 -18q5 -1 5 1l-1 1q1 2 5 2q6 0 6 -2l-1 -3l1 -4l8 9h7q10 0 29 -1.5t27 -1.5q5 0 12.5 3.5 t12.5 3.5q7 0 12 -2q14 -18 14 -44l-4 -5q2 -5 2 -12q0 -4 -2 -14q-1 -10 0 -15q-27 -10 -29 -10q-5 0 -13 9q-2 -4 -8 -13h-2q-10 0 -23 9l-12 -9l-8 9q-8 -9 -24 -9q-13 1 -27 1h-2l-31 -33q0 -7 -5 -20q1 -7 6 -23q-9 9 -27 9q0 -1 18 -10q0 -2 -13 -28l5 -2q3 1 7 4 l1 -5q0 -7 -4 -10q4 -4 13 -4l-5 -25q-5 6 -14 13q-1 -1 -3 -2q0 -12 5.5 -15.5t12.5 -6.5l-9 -10q12 -16 7 -61q2 -17 12 -49q-3 -14 -3 -27q0 -7 5.5 -19t5.5 -18q0 -15 -24 -24q-18 -7 -36 -7q-5 0 -20 7.5t-22 7.5q4 0 9 5q-14 15 -13 38v21q2 0 7 -2t7 -1q1 -7 3 -15 t9 -8q16 0 22 6q1 0 1 9q0 2 -5 2q-6 0 -11 -3.5t-7 -3.5q0 9 9 23q-6 4 -18 11l-11 -9q-6 5 -11 6q9 25 9 45q0 59 -18 76q7 4 14 14q-2 5 -7 8q6 10 7 27q1 13 0 33q-1 25 -1 29q0 26 9 31q-3 3 -12 2q0 45 1.5 136t1.5 136q0 56 -1 85q-1 9 -6.5 26.5t-5.5 26.5 q0 42 56 42q20 0 41 -6.5t25 -6.5q18 0 54.5 2t54.5 2q10 0 30.5 6.5t31.5 6.5q49 0 49 -51zM271 754l-6 3l-6 -12l6 -2zM261 759l-16 8l-2 -7l15 -8zM250 739q0 12 -5 17q-4 -4 -11 -5zM233 730q0 12 -5 17q-7 0 -7 -12q5 0 12 -5zM116 577l-7 2l-5 -11l6 -3zM253 426l-6 2 l-6 -11l6 -3zM252 406l-2 6l-11 -5v-7zM88 539l-12 6l-2 -6l11 -6zM110 523l-11 11q-26 -3 -32 -17l-8 9q-1 -1 -1 -3q0 -1 19 -19q6 13 19 13q9 0 7 -11q0 11 7 17zM164 422l-7 7l-4 -4l6 -7zM75 450l-3 6l-10 -5v-7zM136 396q-11 6 -20 23q0 -4 -11 -7q6 0 18 -13 q-9 -8 -9 -18l1 -6q5 -4 16 -8zM115 365l-6 7l-5 -5l7 -6zM108 346q-7 10 -23 24q-4 -9 -15 -24q3 -2 7 -2q8 0 15 7q-5 0 -5 5l2 6q9 -17 8 -22q2 0 5 4t6 2zM70 379l-2 6l-11 -5v-7zM71 333l-6 2l-6 -11l7 -3zM96 279q-22 22 -22 28q-2 2 -4 2q-3 0 -9 -6v-21q5 0 17 -1.5 t18 -1.5zM115 241l-3 7l-15 -5v-7zM83 263q-4 0 -9.5 5.5t-5.5 8.5q-1 -13 -5 -17q-7 4 -10 4q-1 0 -14 -7q5 -1 15 -9q7 -5 16 -5h4q-1 1 -7 4t-6 5q2 2 5 2q2 0 6 -1.5t6 -1.5q0 5 5 12zM98 198l-6 18l-6 -3l5 -15h7zM96 121v7h-25v-7h25z" />
<glyph unicode="&#xfb02;" horiz-adv-x="758" d="M739 45q0 -18 -10.5 -33t-22.5 -15q-10 4 -14 4q-8 0 -12 -9q-7 5 -20.5 9.5t-19.5 8.5q-5 -3 -11 -7q-1 -1 -1 -14q-4 0 -18 8.5t-19 8.5t-14 -4.5t-15 -4.5q-5 0 -27.5 6.5t-27.5 6.5q-6 0 -2.5 -4.5t-1.5 -4.5t-18 4.5t-18 4.5q-4 0 -8.5 -6.5t-11.5 -6.5 q-5 0 -17.5 4.5t-16.5 4.5q0 23 2 69.5t2 65.5q4 -1 8 3q-4 3 -8 3v112q0 3 4.5 42.5t4.5 58.5q-2 9 -2 71q0 40 4 122q4 95 4 108q0 18 -1 52q0 15 4 57q2 20 -4 33q41 1 45 -3q9 9 22 9q5 0 22.5 -4.5t27.5 -4.5q14 -29 14 -33l-49 -648q2 -1 2.5 -6.5t6.5 -5.5t5 2t4 2 q12 0 25 -26q2 1 11 8q6 5 13 5q5 0 32.5 -4.5t33.5 -4.5q5 0 25 2.5t26 2.5h16q12 -1 16 -1q10 -29 10 -48zM601 44v7h-21v-7h21zM462 130l-6 13l-6 -3l6 -10h6zM470 103l-17 5v-6l14 -5zM363 758q0 -38 -19 -48q-11 -7 -55 -7q-9 0 -27 18h-1q-2 0 -16 -13q-6 5 -11 5 q1 1 9.5 5.5t8.5 5.5t-3 2q-18 1 -50 5q4 5 9 18l-8 7q-7 -7 -7 -35q-3 5 -10 13q-1 -1 -6 -9.5t-12 -8.5q-5 0 -8 2.5t-4 2.5q-1 -8 -5 -22l-10 9q-3 0 -3.5 -4.5t-0.5 -7.5h-6q-13 0 -13 -5q0 -2 4 -6q-1 1 -2 1q-4 0 -12 -8q0 4 0 -16q0 -2 2 -2q1 0 7 2q-8 -4 -22 -10 q2 -2 2 -4v-1q0 -2 7 -2q3 0 7 1.5t6 1.5q-9 -8 -9 -14q0 -11 8.5 -31.5t8.5 -30.5t-8 -17q9 -7 9 -18q0 -5 -1.5 -13.5t-1.5 -12.5l22 -29q14 -18 30 -18q5 -1 5 1l-1 1q1 2 5 2q6 0 6 -2l-1 -3l1 -4l8 9h7q10 0 29 -1.5t27 -1.5q5 0 12.5 3.5t12.5 3.5q7 0 12 -2 q14 -18 14 -44l-4 -5q2 -5 2 -12q0 -4 -2 -14q-1 -10 0 -15q-27 -10 -29 -10q-5 0 -13 9q-2 -4 -8 -13h-2q-10 0 -23 9l-12 -9l-8 9q-8 -9 -24 -9q-13 1 -27 1h-2l-31 -33q0 -7 -5 -20q1 -7 6 -23q-9 9 -27 9q0 -1 18 -10q0 -2 -13 -28l5 -2q3 1 7 4l1 -5q0 -7 -4 -10 q4 -4 13 -4l-5 -25q-5 6 -14 13q-1 -1 -3 -2q0 -12 5.5 -15.5t12.5 -6.5l-9 -10q12 -16 7 -61q2 -17 12 -49q-3 -14 -3 -27q0 -7 5.5 -19t5.5 -18q0 -15 -24 -24q-18 -7 -36 -7q-5 0 -20 7.5t-22 7.5q4 0 9 5q-14 15 -13 38v21q2 0 7 -2t7 -1q1 -7 3 -15t9 -8q16 0 22 6 q1 0 1 9q0 2 -5 2q-6 0 -11 -3.5t-7 -3.5q0 9 9 23q-6 4 -18 11l-11 -9q-6 5 -11 6q9 25 9 45q0 59 -18 76q7 4 14 14q-2 5 -7 8q6 10 7 27q1 13 0 33q-1 25 -1 29q0 26 9 31q-3 3 -12 2q0 45 1.5 136t1.5 136q0 56 -1 85q-1 9 -6.5 26.5t-5.5 26.5q0 42 56 42q20 0 41 -6.5 t25 -6.5q18 0 54.5 2t54.5 2q10 0 30.5 6.5t31.5 6.5q49 0 49 -51zM271 754l-6 3l-6 -12l6 -2zM261 759l-16 8l-2 -7l15 -8zM250 739q0 12 -5 17q-4 -4 -11 -5zM233 730q0 12 -5 17q-7 0 -7 -12q5 0 12 -5zM116 577l-7 2l-5 -11l6 -3zM253 426l-6 2l-6 -11l6 -3zM252 406 l-2 6l-11 -5v-7zM88 539l-12 6l-2 -6l11 -6zM110 523l-11 11q-26 -3 -32 -17l-8 9q-1 -1 -1 -3q0 -1 19 -19q6 13 19 13q9 0 7 -11q0 11 7 17zM164 422l-7 7l-4 -4l6 -7zM75 450l-3 6l-10 -5v-7zM136 396q-11 6 -20 23q0 -4 -11 -7q6 0 18 -13q-9 -8 -9 -18l1 -6q5 -4 16 -8 zM115 365l-6 7l-5 -5l7 -6zM108 346q-7 10 -23 24q-4 -9 -15 -24q3 -2 7 -2q8 0 15 7q-5 0 -5 5l2 6q9 -17 8 -22q2 0 5 4t6 2zM70 379l-2 6l-11 -5v-7zM71 333l-6 2l-6 -11l7 -3zM96 279q-22 22 -22 28q-2 2 -4 2q-3 0 -9 -6v-21q5 0 17 -1.5t18 -1.5zM115 241l-3 7l-15 -5 v-7zM83 263q-4 0 -9.5 5.5t-5.5 8.5q-1 -13 -5 -17q-7 4 -10 4q-1 0 -14 -7q5 -1 15 -9q7 -5 16 -5h4q-1 1 -7 4t-6 5q2 2 5 2q2 0 6 -1.5t6 -1.5q0 5 5 12zM98 198l-6 18l-6 -3l5 -15h7zM96 121v7h-25v-7h25z" />
<glyph unicode="&#xfb03;" horiz-adv-x="975" d="M820 723h-7l-5 11l6 2zM930 372q-7 -11 -22 -31q15 -23 15 -34l-13.5 -33t-13.5 -57q0 -25 13.5 -57t13.5 -33q0 -9 -14 -28t-16 -28h-5q-9 -1 -18 4q-3 -2 -3 -5t4 -7q1 3 -10 3q-9 0 -21 -12q1 -9 14 -22q-13 0 -23 -5q0 -8 16 -19q9 5 19 5q18 0 42 -21l-60 -15h-20 q-14 20 -14 45q0 11 4 32t4 32q0 14 -5 25q-4 2 -4 6t5 15.5t6 16.5q4 39 4 125q0 10 2 44q1 27 0 44q11 3 11 14q0 19 -11 39q3 6 3 15t-3 25t-3 25q0 16 9 26q-5 6 -18 17l10 23q-4 17 -4 18v1q13 7 13 28q-1 2 -3 4q-8 -8 -11 -8q3 13 3 22q0 13 -6 20.5t-6 12.5 q0 6 7 16t7 19q0 7 -2 19q6 16 6 15q0 9 -6 28.5t-12 22.5q10 28 16 33q9 10 33 10q13 0 20 -13q3 3 3 8q18 0 30 -8l13 8q0 -3 -12 -15q8 -9 8 -22q0 -8 -5 -19t-5 -17q0 -8 6 -18l-36 -9q8 -4 31 -3q0 -16 13 -43l-6 2q-5 -7 -16 -19v-52q4 -3 9 -4q0 -5 -2.5 -16.5 t-2.5 -17.5q0 -10 12 -11q-11 -41 -11 -86q0 -1 1.5 -6.5t1.5 -6.5q3 -11 3 -19q0 -7 -3 -12q3 -13 15 -36zM908 789l-2 6l-15 -5v-6zM900 676l-6 2l-6 -11l6 -3zM914 647v12h-8v-12h8zM913 150l-7 7l-4 -5l6 -7zM744 758q0 -38 -19 -48q-11 -7 -55 -7q-9 0 -27 18h-1 q-2 0 -16 -13q-6 5 -11 5q1 1 9.5 5.5t8.5 5.5t-3 2q-18 1 -50 5q4 5 9 18l-8 7q-7 -7 -7 -35q-3 5 -10 13q-1 -1 -6 -9.5t-12 -8.5q-5 0 -8 2.5t-4 2.5q-1 -8 -5 -22l-10 9q-3 0 -3.5 -4.5t-0.5 -7.5h-6q-13 0 -13 -5q0 -2 4 -6q-1 1 -2 1q-4 0 -12 -8q0 4 0 -16q0 -2 2 -2 q1 0 7 2q-8 -4 -22 -10q2 -2 2 -4v-1q0 -2 7 -2q3 0 7 1.5t6 1.5q-9 -8 -9 -14q0 -11 8.5 -31.5t8.5 -30.5t-8 -17q9 -7 9 -18q0 -5 -1.5 -13.5t-1.5 -12.5l22 -29q14 -18 30 -18q5 -1 5 1l-1 1q1 2 5 2q6 0 6 -2l-1 -3l1 -4l8 9h7q10 0 29 -1.5t27 -1.5q5 0 12.5 3.5 t12.5 3.5q7 0 12 -2q14 -18 14 -44l-4 -5q2 -5 2 -12q0 -4 -2 -14q-1 -10 0 -15q-27 -10 -29 -10q-5 0 -13 9q-2 -4 -8 -13h-2q-10 0 -23 9l-12 -9l-8 9q-8 -9 -24 -9q-13 1 -27 1h-2l-31 -33q0 -7 -5 -20q1 -7 6 -23q-9 9 -27 9q0 -1 18 -10q0 -2 -13 -28l5 -2q3 1 7 4 l1 -5q0 -7 -4 -10q4 -4 13 -4l-5 -25q-5 6 -14 13q-1 -1 -3 -2q0 -12 5.5 -15.5t12.5 -6.5l-9 -10q12 -16 7 -61q2 -17 12 -49q-3 -14 -3 -27q0 -7 5.5 -19t5.5 -18q0 -15 -24 -24q-18 -7 -36 -7q-5 0 -20 7.5t-22 7.5q4 0 9 5q-14 15 -13 38v21q2 0 7 -2t7 -1q1 -7 3 -15 t9 -8q16 0 22 6q1 0 1 9q0 2 -5 2q-6 0 -11 -3.5t-7 -3.5q0 9 9 23q-6 4 -18 11l-11 -9q-6 5 -11 6q9 25 9 45q0 59 -18 76q7 4 14 14q-2 5 -7 8q6 10 7 27q1 13 0 33q-1 25 -1 29q0 26 9 31q-3 3 -12 2q0 45 1.5 136t1.5 136q0 56 -1 85q-1 9 -6.5 26.5t-5.5 26.5 q0 42 56 42q20 0 41 -6.5t25 -6.5q18 0 54.5 2t54.5 2q10 0 30.5 6.5t31.5 6.5q49 0 49 -51zM652 754l-6 3l-6 -12l6 -2zM642 759l-16 8l-2 -7l15 -8zM631 739q0 12 -5 17q-4 -4 -11 -5zM614 730q0 12 -5 17q-7 0 -7 -12q5 0 12 -5zM497 577l-7 2l-5 -11l6 -3zM634 426l-6 2 l-6 -11l6 -3zM633 406l-2 6l-11 -5v-7zM469 539l-12 6l-2 -6l11 -6zM491 523l-11 11q-26 -3 -32 -17l-8 9q-1 -1 -1 -3q0 -1 19 -19q6 13 19 13q9 0 7 -11q0 11 7 17zM545 422l-7 7l-4 -4l6 -7zM456 450l-3 6l-10 -5v-7zM517 396q-11 6 -20 23q0 -4 -11 -7q6 0 18 -13 q-9 -8 -9 -18l1 -6q5 -4 16 -8zM496 365l-6 7l-5 -5l7 -6zM489 346q-7 10 -23 24q-4 -9 -15 -24q3 -2 7 -2q8 0 15 7q-5 0 -5 5l2 6q9 -17 8 -22q2 0 5 4t6 2zM451 379l-2 6l-11 -5v-7zM452 333l-6 2l-6 -11l7 -3zM477 279q-22 22 -22 28q-2 2 -4 2q-3 0 -9 -6v-21 q5 0 17 -1.5t18 -1.5zM496 241l-3 7l-15 -5v-7zM464 263q-4 0 -9.5 5.5t-5.5 8.5q-1 -13 -5 -17q-7 4 -10 4q-1 0 -14 -7q5 -1 15 -9q7 -5 16 -5h4q-1 1 -7 4t-6 5q2 2 5 2q2 0 6 -1.5t6 -1.5q0 5 5 12zM479 198l-6 18l-6 -3l5 -15h7zM477 121v7h-25v-7h25zM363 758 q0 -38 -19 -48q-11 -7 -55 -7q-9 0 -27 18h-1q-2 0 -16 -13q-6 5 -11 5q1 1 9.5 5.5t8.5 5.5t-3 2q-18 1 -50 5q4 5 9 18l-8 7q-7 -7 -7 -35q-3 5 -10 13q-1 -1 -6 -9.5t-12 -8.5q-5 0 -8 2.5t-4 2.5q-1 -8 -5 -22l-10 9q-3 0 -3.5 -4.5t-0.5 -7.5h-6q-13 0 -13 -5 q0 -2 4 -6q-1 1 -2 1q-4 0 -12 -8q0 4 0 -16q0 -2 2 -2q1 0 7 2q-8 -4 -22 -10q2 -2 2 -4v-1q0 -2 7 -2q3 0 7 1.5t6 1.5q-9 -8 -9 -14q0 -11 8.5 -31.5t8.5 -30.5t-8 -17q9 -7 9 -18q0 -5 -1.5 -13.5t-1.5 -12.5l22 -29q14 -18 30 -18q5 -1 5 1l-1 1q1 2 5 2q6 0 6 -2 l-1 -3l1 -4l8 9h7q10 0 29 -1.5t27 -1.5q5 0 12.5 3.5t12.5 3.5q7 0 12 -2q14 -18 14 -44l-4 -5q2 -5 2 -12q0 -4 -2 -14q-1 -10 0 -15q-27 -10 -29 -10q-5 0 -13 9q-2 -4 -8 -13h-2q-10 0 -23 9l-12 -9l-8 9q-8 -9 -24 -9q-13 1 -27 1h-2l-31 -33q0 -7 -5 -20q1 -7 6 -23 q-9 9 -27 9q0 -1 18 -10q0 -2 -13 -28l5 -2q3 1 7 4l1 -5q0 -7 -4 -10q4 -4 13 -4l-5 -25q-5 6 -14 13q-1 -1 -3 -2q0 -12 5.5 -15.5t12.5 -6.5l-9 -10q12 -16 7 -61q2 -17 12 -49q-3 -14 -3 -27q0 -7 5.5 -19t5.5 -18q0 -15 -24 -24q-18 -7 -36 -7q-5 0 -20 7.5t-22 7.5 q4 0 9 5q-14 15 -13 38v21q2 0 7 -2t7 -1q1 -7 3 -15t9 -8q16 0 22 6q1 0 1 9q0 2 -5 2q-6 0 -11 -3.5t-7 -3.5q0 9 9 23q-6 4 -18 11l-11 -9q-6 5 -11 6q9 25 9 45q0 59 -18 76q7 4 14 14q-2 5 -7 8q6 10 7 27q1 13 0 33q-1 25 -1 29q0 26 9 31q-3 3 -12 2q0 45 1.5 136 t1.5 136q0 56 -1 85q-1 9 -6.5 26.5t-5.5 26.5q0 42 56 42q20 0 41 -6.5t25 -6.5q18 0 54.5 2t54.5 2q10 0 30.5 6.5t31.5 6.5q49 0 49 -51zM271 754l-6 3l-6 -12l6 -2zM261 759l-16 8l-2 -7l15 -8zM250 739q0 12 -5 17q-4 -4 -11 -5zM233 730q0 12 -5 17q-7 0 -7 -12 q5 0 12 -5zM116 577l-7 2l-5 -11l6 -3zM253 426l-6 2l-6 -11l6 -3zM252 406l-2 6l-11 -5v-7zM88 539l-12 6l-2 -6l11 -6zM110 523l-11 11q-26 -3 -32 -17l-8 9q-1 -1 -1 -3q0 -1 19 -19q6 13 19 13q9 0 7 -11q0 11 7 17zM164 422l-7 7l-4 -4l6 -7zM75 450l-3 6l-10 -5v-7z M136 396q-11 6 -20 23q0 -4 -11 -7q6 0 18 -13q-9 -8 -9 -18l1 -6q5 -4 16 -8zM115 365l-6 7l-5 -5l7 -6zM108 346q-7 10 -23 24q-4 -9 -15 -24q3 -2 7 -2q8 0 15 7q-5 0 -5 5l2 6q9 -17 8 -22q2 0 5 4t6 2zM70 379l-2 6l-11 -5v-7zM71 333l-6 2l-6 -11l7 -3zM96 279 q-22 22 -22 28q-2 2 -4 2q-3 0 -9 -6v-21q5 0 17 -1.5t18 -1.5zM115 241l-3 7l-15 -5v-7zM83 263q-4 0 -9.5 5.5t-5.5 8.5q-1 -13 -5 -17q-7 4 -10 4q-1 0 -14 -7q5 -1 15 -9q7 -5 16 -5h4q-1 1 -7 4t-6 5q2 2 5 2q2 0 6 -1.5t6 -1.5q0 5 5 12zM98 198l-6 18l-6 -3l5 -15h7z M96 121v7h-25v-7h25z" />
<glyph unicode="&#xfb04;" horiz-adv-x="1139" d="M1120 45q0 -18 -10.5 -33t-22.5 -15q-10 4 -14 4q-8 0 -12 -9q-7 5 -20.5 9.5t-19.5 8.5q-5 -3 -11 -7q-1 -1 -1 -14q-4 0 -18 8.5t-19 8.5t-14 -4.5t-15 -4.5q-5 0 -27.5 6.5t-27.5 6.5q-6 0 -2.5 -4.5t-1.5 -4.5t-18 4.5t-18 4.5q-4 0 -8.5 -6.5t-11.5 -6.5 q-5 0 -17.5 4.5t-16.5 4.5q0 23 2 69.5t2 65.5q4 -1 8 3q-4 3 -8 3v112q0 3 4.5 42.5t4.5 58.5q-2 9 -2 71q0 40 4 122q4 95 4 108q0 18 -1 52q0 15 4 57q2 20 -4 33q41 1 45 -3q9 9 22 9q5 0 22.5 -4.5t27.5 -4.5q14 -29 14 -33l-49 -648q2 -1 2.5 -6.5t6.5 -5.5t5 2t4 2 q12 0 25 -26q2 1 11 8q6 5 13 5q5 0 32.5 -4.5t33.5 -4.5q5 0 25 2.5t26 2.5h16q12 -1 16 -1q10 -29 10 -48zM982 44v7h-21v-7h21zM843 130l-6 13l-6 -3l6 -10h6zM851 103l-17 5v-6l14 -5zM744 758q0 -38 -19 -48q-11 -7 -55 -7q-9 0 -27 18h-1q-2 0 -16 -13q-6 5 -11 5 q1 1 9.5 5.5t8.5 5.5t-3 2q-18 1 -50 5q4 5 9 18l-8 7q-7 -7 -7 -35q-3 5 -10 13q-1 -1 -6 -9.5t-12 -8.5q-5 0 -8 2.5t-4 2.5q-1 -8 -5 -22l-10 9q-3 0 -3.5 -4.5t-0.5 -7.5h-6q-13 0 -13 -5q0 -2 4 -6q-1 1 -2 1q-4 0 -12 -8q0 4 0 -16q0 -2 2 -2q1 0 7 2q-8 -4 -22 -10 q2 -2 2 -4v-1q0 -2 7 -2q3 0 7 1.5t6 1.5q-9 -8 -9 -14q0 -11 8.5 -31.5t8.5 -30.5t-8 -17q9 -7 9 -18q0 -5 -1.5 -13.5t-1.5 -12.5l22 -29q14 -18 30 -18q5 -1 5 1l-1 1q1 2 5 2q6 0 6 -2l-1 -3l1 -4l8 9h7q10 0 29 -1.5t27 -1.5q5 0 12.5 3.5t12.5 3.5q7 0 12 -2 q14 -18 14 -44l-4 -5q2 -5 2 -12q0 -4 -2 -14q-1 -10 0 -15q-27 -10 -29 -10q-5 0 -13 9q-2 -4 -8 -13h-2q-10 0 -23 9l-12 -9l-8 9q-8 -9 -24 -9q-13 1 -27 1h-2l-31 -33q0 -7 -5 -20q1 -7 6 -23q-9 9 -27 9q0 -1 18 -10q0 -2 -13 -28l5 -2q3 1 7 4l1 -5q0 -7 -4 -10 q4 -4 13 -4l-5 -25q-5 6 -14 13q-1 -1 -3 -2q0 -12 5.5 -15.5t12.5 -6.5l-9 -10q12 -16 7 -61q2 -17 12 -49q-3 -14 -3 -27q0 -7 5.5 -19t5.5 -18q0 -15 -24 -24q-18 -7 -36 -7q-5 0 -20 7.5t-22 7.5q4 0 9 5q-14 15 -13 38v21q2 0 7 -2t7 -1q1 -7 3 -15t9 -8q16 0 22 6 q1 0 1 9q0 2 -5 2q-6 0 -11 -3.5t-7 -3.5q0 9 9 23q-6 4 -18 11l-11 -9q-6 5 -11 6q9 25 9 45q0 59 -18 76q7 4 14 14q-2 5 -7 8q6 10 7 27q1 13 0 33q-1 25 -1 29q0 26 9 31q-3 3 -12 2q0 45 1.5 136t1.5 136q0 56 -1 85q-1 9 -6.5 26.5t-5.5 26.5q0 42 56 42q20 0 41 -6.5 t25 -6.5q18 0 54.5 2t54.5 2q10 0 30.5 6.5t31.5 6.5q49 0 49 -51zM652 754l-6 3l-6 -12l6 -2zM642 759l-16 8l-2 -7l15 -8zM631 739q0 12 -5 17q-4 -4 -11 -5zM614 730q0 12 -5 17q-7 0 -7 -12q5 0 12 -5zM497 577l-7 2l-5 -11l6 -3zM634 426l-6 2l-6 -11l6 -3zM633 406 l-2 6l-11 -5v-7zM469 539l-12 6l-2 -6l11 -6zM491 523l-11 11q-26 -3 -32 -17l-8 9q-1 -1 -1 -3q0 -1 19 -19q6 13 19 13q9 0 7 -11q0 11 7 17zM545 422l-7 7l-4 -4l6 -7zM456 450l-3 6l-10 -5v-7zM517 396q-11 6 -20 23q0 -4 -11 -7q6 0 18 -13q-9 -8 -9 -18l1 -6 q5 -4 16 -8zM496 365l-6 7l-5 -5l7 -6zM489 346q-7 10 -23 24q-4 -9 -15 -24q3 -2 7 -2q8 0 15 7q-5 0 -5 5l2 6q9 -17 8 -22q2 0 5 4t6 2zM451 379l-2 6l-11 -5v-7zM452 333l-6 2l-6 -11l7 -3zM477 279q-22 22 -22 28q-2 2 -4 2q-3 0 -9 -6v-21q5 0 17 -1.5t18 -1.5z M496 241l-3 7l-15 -5v-7zM464 263q-4 0 -9.5 5.5t-5.5 8.5q-1 -13 -5 -17q-7 4 -10 4q-1 0 -14 -7q5 -1 15 -9q7 -5 16 -5h4q-1 1 -7 4t-6 5q2 2 5 2q2 0 6 -1.5t6 -1.5q0 5 5 12zM479 198l-6 18l-6 -3l5 -15h7zM477 121v7h-25v-7h25zM363 758q0 -38 -19 -48q-11 -7 -55 -7 q-9 0 -27 18h-1q-2 0 -16 -13q-6 5 -11 5q1 1 9.5 5.5t8.5 5.5t-3 2q-18 1 -50 5q4 5 9 18l-8 7q-7 -7 -7 -35q-3 5 -10 13q-1 -1 -6 -9.5t-12 -8.5q-5 0 -8 2.5t-4 2.5q-1 -8 -5 -22l-10 9q-3 0 -3.5 -4.5t-0.5 -7.5h-6q-13 0 -13 -5q0 -2 4 -6q-1 1 -2 1q-4 0 -12 -8 q0 4 0 -16q0 -2 2 -2q1 0 7 2q-8 -4 -22 -10q2 -2 2 -4v-1q0 -2 7 -2q3 0 7 1.5t6 1.5q-9 -8 -9 -14q0 -11 8.5 -31.5t8.5 -30.5t-8 -17q9 -7 9 -18q0 -5 -1.5 -13.5t-1.5 -12.5l22 -29q14 -18 30 -18q5 -1 5 1l-1 1q1 2 5 2q6 0 6 -2l-1 -3l1 -4l8 9h7q10 0 29 -1.5 t27 -1.5q5 0 12.5 3.5t12.5 3.5q7 0 12 -2q14 -18 14 -44l-4 -5q2 -5 2 -12q0 -4 -2 -14q-1 -10 0 -15q-27 -10 -29 -10q-5 0 -13 9q-2 -4 -8 -13h-2q-10 0 -23 9l-12 -9l-8 9q-8 -9 -24 -9q-13 1 -27 1h-2l-31 -33q0 -7 -5 -20q1 -7 6 -23q-9 9 -27 9q0 -1 18 -10 q0 -2 -13 -28l5 -2q3 1 7 4l1 -5q0 -7 -4 -10q4 -4 13 -4l-5 -25q-5 6 -14 13q-1 -1 -3 -2q0 -12 5.5 -15.5t12.5 -6.5l-9 -10q12 -16 7 -61q2 -17 12 -49q-3 -14 -3 -27q0 -7 5.5 -19t5.5 -18q0 -15 -24 -24q-18 -7 -36 -7q-5 0 -20 7.5t-22 7.5q4 0 9 5q-14 15 -13 38v21 q2 0 7 -2t7 -1q1 -7 3 -15t9 -8q16 0 22 6q1 0 1 9q0 2 -5 2q-6 0 -11 -3.5t-7 -3.5q0 9 9 23q-6 4 -18 11l-11 -9q-6 5 -11 6q9 25 9 45q0 59 -18 76q7 4 14 14q-2 5 -7 8q6 10 7 27q1 13 0 33q-1 25 -1 29q0 26 9 31q-3 3 -12 2q0 45 1.5 136t1.5 136q0 56 -1 85 q-1 9 -6.5 26.5t-5.5 26.5q0 42 56 42q20 0 41 -6.5t25 -6.5q18 0 54.5 2t54.5 2q10 0 30.5 6.5t31.5 6.5q49 0 49 -51zM271 754l-6 3l-6 -12l6 -2zM261 759l-16 8l-2 -7l15 -8zM250 739q0 12 -5 17q-4 -4 -11 -5zM233 730q0 12 -5 17q-7 0 -7 -12q5 0 12 -5zM116 577l-7 2 l-5 -11l6 -3zM253 426l-6 2l-6 -11l6 -3zM252 406l-2 6l-11 -5v-7zM88 539l-12 6l-2 -6l11 -6zM110 523l-11 11q-26 -3 -32 -17l-8 9q-1 -1 -1 -3q0 -1 19 -19q6 13 19 13q9 0 7 -11q0 11 7 17zM164 422l-7 7l-4 -4l6 -7zM75 450l-3 6l-10 -5v-7zM136 396q-11 6 -20 23 q0 -4 -11 -7q6 0 18 -13q-9 -8 -9 -18l1 -6q5 -4 16 -8zM115 365l-6 7l-5 -5l7 -6zM108 346q-7 10 -23 24q-4 -9 -15 -24q3 -2 7 -2q8 0 15 7q-5 0 -5 5l2 6q9 -17 8 -22q2 0 5 4t6 2zM70 379l-2 6l-11 -5v-7zM71 333l-6 2l-6 -11l7 -3zM96 279q-22 22 -22 28q-2 2 -4 2 q-3 0 -9 -6v-21q5 0 17 -1.5t18 -1.5zM115 241l-3 7l-15 -5v-7zM83 263q-4 0 -9.5 5.5t-5.5 8.5q-1 -13 -5 -17q-7 4 -10 4q-1 0 -14 -7q5 -1 15 -9q7 -5 16 -5h4q-1 1 -7 4t-6 5q2 2 5 2q2 0 6 -1.5t6 -1.5q0 5 5 12zM98 198l-6 18l-6 -3l5 -15h7zM96 121v7h-25v-7h25z" />
</font>
</defs>
</svg>
